<svg width="56" height="56" viewBox="0 0 56 56" fill="none" xmlns="http://www.w3.org/2000/svg">
<rect x="1" y="1" width="54" height="54" rx="27" fill="#4FA0EB"/>
<path d="M24.0705 35.9954C25.5492 36.0449 27.0228 35.7974 28.4042 35.2677C29.7856 34.738 31.0469 33.9367 32.1134 32.9112C33.1798 31.8857 34.0299 30.6569 34.6134 29.2973C35.1969 27.9377 35.5019 26.4749 35.5105 24.9954C36.1881 24.1568 36.6913 23.1912 36.9905 22.1554C37.0128 22.0736 37.011 21.987 36.9853 21.9062C36.9596 21.8253 36.911 21.7537 36.8455 21.6998C36.78 21.6459 36.7003 21.6121 36.616 21.6024C36.5317 21.5928 36.4465 21.6077 36.3705 21.6454C36.0159 21.8161 35.6168 21.8712 35.2293 21.803C34.8418 21.7348 34.4854 21.5468 34.2105 21.2654C33.8594 20.881 33.4348 20.5709 32.9617 20.3536C32.4886 20.1363 31.9768 20.0162 31.4564 20.0003C30.9361 19.9845 30.4178 20.0732 29.9324 20.2613C29.447 20.4494 29.0043 20.7331 28.6305 21.0954C28.1187 21.5911 27.7438 22.2107 27.5423 22.8941C27.3408 23.5775 27.3195 24.3014 27.4805 24.9954C24.1305 25.1954 21.8305 23.6054 19.9905 21.4254C19.9352 21.3628 19.8629 21.3177 19.7824 21.2955C19.7019 21.2733 19.6166 21.275 19.5371 21.3005C19.4575 21.3259 19.3871 21.374 19.3345 21.4388C19.2818 21.5036 19.2491 21.5823 19.2405 21.6654C18.8899 23.6098 19.1428 25.615 19.9651 27.4115C20.7874 29.208 22.1397 30.7099 23.8405 31.7154C22.7001 33.0232 21.0987 33.8401 19.3705 33.9954C19.2779 34.0108 19.1924 34.0547 19.126 34.121C19.0596 34.1874 19.0156 34.2728 19.0002 34.3654C18.9848 34.4579 18.9987 34.553 19.04 34.6373C19.0812 34.7216 19.1479 34.7909 19.2305 34.8354C20.734 35.5868 22.3897 35.9836 24.0705 35.9954Z" fill="white"/>
<rect x="1" y="1" width="54" height="54" rx="27" stroke="#4FA0EB" stroke-width="2"/>
</svg>
