<svg width="273" height="57" viewBox="0 0 273 57" fill="none" xmlns="http://www.w3.org/2000/svg">
<path d="M28.038 18.7938C28.2255 18.6063 28.4798 18.501 28.745 18.501C29.0102 18.501 29.2645 18.6063 29.452 18.7938L32.452 21.7938C32.6342 21.9824 32.7349 22.235 32.7327 22.4972C32.7304 22.7594 32.6252 23.0102 32.4398 23.1956C32.2544 23.381 32.0036 23.4862 31.7414 23.4884C31.4792 23.4907 31.2266 23.3899 31.038 23.2078L29.745 21.9148V31.5008C29.745 31.766 29.6396 32.0203 29.4521 32.2079C29.2646 32.3954 29.0102 32.5008 28.745 32.5008C28.4798 32.5008 28.2254 32.3954 28.0379 32.2079C27.8504 32.0203 27.745 31.766 27.745 31.5008V21.9148L26.452 23.2078C26.2634 23.3899 26.0108 23.4907 25.7486 23.4884C25.4864 23.4862 25.2356 23.381 25.0502 23.1956C24.8648 23.0102 24.7596 22.7594 24.7573 22.4972C24.755 22.235 24.8558 21.9824 25.038 21.7938L28.038 18.7938ZM20.745 27.5008C20.745 26.9703 20.9557 26.4616 21.3308 26.0865C21.7059 25.7115 22.2146 25.5008 22.745 25.5008H24.745C25.0102 25.5008 25.2646 25.6061 25.4521 25.7937C25.6396 25.9812 25.745 26.2355 25.745 26.5008C25.745 26.766 25.6396 27.0203 25.4521 27.2079C25.2646 27.3954 25.0102 27.5008 24.745 27.5008H22.745V36.5008H34.745V27.5008H32.745C32.4798 27.5008 32.2254 27.3954 32.0379 27.2079C31.8504 27.0203 31.745 26.766 31.745 26.5008C31.745 26.2355 31.8504 25.9812 32.0379 25.7937C32.2254 25.6061 32.4798 25.5008 32.745 25.5008H34.745C35.2754 25.5008 35.7841 25.7115 36.1592 26.0865C36.5343 26.4616 36.745 26.9703 36.745 27.5008V36.5008C36.745 37.0312 36.5343 37.5399 36.1592 37.915C35.7841 38.29 35.2754 38.5008 34.745 38.5008H22.745C22.2146 38.5008 21.7059 38.29 21.3308 37.915C20.9557 37.5399 20.745 37.0312 20.745 36.5008V27.5008Z" fill="#0052B4"/>
<rect x="1.745" y="1.50098" width="54" height="54" rx="27" stroke="#0052B4" stroke-width="2"/>
<path d="M96.8154 36.4959C98.2941 36.5454 99.7677 36.2979 101.149 35.7682C102.531 35.2385 103.792 34.4372 104.858 33.4117C105.925 32.3862 106.775 31.1574 107.358 29.7978C107.942 28.4382 108.247 26.9754 108.255 25.4959C108.933 24.6573 109.436 23.6917 109.735 22.6559C109.758 22.5741 109.756 22.4875 109.73 22.4067C109.704 22.3258 109.656 22.2541 109.59 22.2003C109.525 22.1464 109.445 22.1126 109.361 22.1029C109.277 22.0933 109.191 22.1082 109.115 22.1459C108.761 22.3165 108.362 22.3717 107.974 22.3035C107.587 22.2353 107.23 22.0473 106.955 21.7659C106.604 21.3815 106.18 21.0714 105.707 20.8541C105.234 20.6368 104.722 20.5167 104.201 20.5008C103.681 20.485 103.163 20.5737 102.677 20.7618C102.192 20.9499 101.749 21.2336 101.375 21.5959C100.864 22.0916 100.489 22.7112 100.287 23.3946C100.086 24.078 100.064 24.8018 100.225 25.4959C96.8754 25.6959 94.5754 24.1059 92.7354 21.9259C92.6801 21.8633 92.6078 21.8181 92.5273 21.796C92.4468 21.7738 92.3616 21.7755 92.282 21.801C92.2025 21.8264 92.1321 21.8745 92.0794 21.9393C92.0267 22.0041 91.9941 22.0828 91.9854 22.1659C91.6349 24.1103 91.8877 26.1154 92.71 27.912C93.5323 29.7085 94.8846 31.2104 96.5854 32.2159C95.445 33.5237 93.8436 34.3406 92.1154 34.4959C92.0228 34.5112 91.9373 34.5552 91.8709 34.6215C91.8046 34.6878 91.7606 34.7733 91.7451 34.8659C91.7297 34.9584 91.7436 35.0535 91.7849 35.1378C91.8262 35.2221 91.8928 35.2913 91.9754 35.3359C93.4789 36.0873 95.1346 36.4841 96.8154 36.4959Z" fill="#4FA0EB"/>
<rect x="73.745" y="1.50098" width="54" height="54" rx="27" stroke="#4FA0EB" stroke-width="2"/>
<path d="M178.245 20.004C178.245 19.8714 178.192 19.7442 178.099 19.6504C178.005 19.5566 177.878 19.504 177.745 19.504H175.245C173.986 19.4413 172.754 19.8794 171.817 20.7225C170.88 21.5657 170.315 22.7455 170.245 24.004V26.704H167.745C167.612 26.704 167.485 26.7566 167.391 26.8504C167.298 26.9442 167.245 27.0714 167.245 27.204V29.804C167.245 29.9366 167.298 30.0637 167.391 30.1575C167.485 30.2513 167.612 30.304 167.745 30.304H170.245V37.004C170.245 37.1366 170.298 37.2637 170.391 37.3575C170.485 37.4513 170.612 37.504 170.745 37.504H173.745C173.878 37.504 174.005 37.4513 174.099 37.3575C174.192 37.2637 174.245 37.1366 174.245 37.004V30.304H176.865C176.976 30.3056 177.085 30.27 177.173 30.203C177.262 30.136 177.326 30.0413 177.355 29.934L178.075 27.334C178.095 27.2601 178.098 27.1826 178.083 27.1075C178.068 27.0325 178.036 26.9618 177.99 26.9009C177.944 26.8401 177.884 26.7907 177.815 26.7565C177.747 26.7224 177.672 26.7044 177.595 26.704H174.245V24.004C174.27 23.7564 174.386 23.5271 174.571 23.3607C174.756 23.1942 174.996 23.1027 175.245 23.104H177.745C177.878 23.104 178.005 23.0513 178.099 22.9575C178.192 22.8637 178.245 22.7366 178.245 22.604V20.004Z" fill="#405790"/>
<rect x="145.745" y="1.50098" width="54" height="54" rx="27" stroke="#405790" stroke-width="2"/>
<path d="M234.749 38.501L236.101 33.533C235.21 32.0058 234.742 30.269 234.745 28.501C234.745 22.978 239.222 18.501 244.745 18.501C250.268 18.501 254.745 22.978 254.745 28.501C254.745 34.024 250.268 38.501 244.745 38.501C242.978 38.5038 241.242 38.0361 239.715 37.146L234.749 38.501ZM241.136 23.809C241.007 23.817 240.881 23.851 240.765 23.909C240.657 23.9704 240.558 24.0472 240.471 24.137C240.351 24.25 240.283 24.348 240.21 24.443C239.84 24.924 239.642 25.5144 239.645 26.121C239.647 26.611 239.775 27.088 239.975 27.534C240.384 28.436 241.057 29.391 241.946 30.276C242.16 30.489 242.369 30.703 242.594 30.902C243.697 31.8734 245.012 32.574 246.434 32.948L247.003 33.035C247.188 33.045 247.373 33.031 247.559 33.022C247.85 33.0069 248.135 32.9281 248.392 32.791C248.523 32.7235 248.651 32.6501 248.775 32.571C248.775 32.571 248.818 32.543 248.9 32.481C249.035 32.381 249.118 32.31 249.23 32.193C249.313 32.107 249.385 32.006 249.44 31.891C249.518 31.728 249.596 31.417 249.628 31.158C249.652 30.96 249.645 30.852 249.642 30.785C249.638 30.678 249.549 30.567 249.452 30.52L248.87 30.259C248.87 30.259 248 29.88 247.469 29.638C247.413 29.6136 247.353 29.5997 247.292 29.597C247.224 29.5899 247.154 29.5976 247.089 29.6196C247.024 29.6415 246.964 29.6771 246.914 29.724V29.722C246.909 29.722 246.842 29.779 246.119 30.655C246.078 30.7107 246.02 30.7529 245.955 30.776C245.889 30.7992 245.818 30.8023 245.751 30.785C245.686 30.7676 245.622 30.7455 245.56 30.719C245.436 30.667 245.393 30.647 245.308 30.61L245.303 30.608C244.731 30.3582 244.201 30.0208 243.733 29.608C243.607 29.498 243.49 29.378 243.37 29.262C242.977 28.8852 242.634 28.459 242.35 27.994L242.291 27.899C242.249 27.8351 242.214 27.7663 242.189 27.694C242.151 27.547 242.25 27.429 242.25 27.429C242.25 27.429 242.493 27.163 242.606 27.019C242.7 26.8993 242.788 26.7748 242.869 26.646C242.987 26.456 243.024 26.261 242.962 26.11C242.682 25.426 242.392 24.745 242.094 24.069C242.035 23.935 241.86 23.839 241.701 23.82C241.647 23.814 241.593 23.808 241.539 23.804C241.405 23.7973 241.27 23.7996 241.136 23.809Z" fill="#6BC879"/>
<rect x="217.745" y="1.50098" width="54" height="54" rx="27" stroke="#6BC879" stroke-width="2"/>
</svg>
