<svg width="199" height="101" viewBox="0 0 199 101" fill="none" xmlns="http://www.w3.org/2000/svg">
<g style="mix-blend-mode:multiply">
<path d="M59.3867 91.25C59.5221 90.6562 59.7357 90 60.0273 89.2812C60.3294 88.5625 60.6107 88.0312 60.8711 87.6875C60.944 87.5833 61.0221 87.5156 61.1055 87.4844C61.1992 87.4531 61.3034 87.4375 61.418 87.4375H63.3086C63.444 87.4375 63.5482 87.401 63.6211 87.3281C63.7044 87.2448 63.7461 87.151 63.7461 87.0469C63.7461 86.8906 63.5742 86.1875 63.2305 84.9375C62.8867 83.6771 62.5638 82.6562 62.2617 81.875C62.1784 81.6354 62.0326 81.4792 61.8242 81.4062C61.6263 81.3229 61.3971 81.2812 61.1367 81.2812H60.0742C59.9388 81.2812 59.8086 81.2292 59.6836 81.125C59.5586 81.0208 59.4961 80.8698 59.4961 80.6719C59.4961 80.5573 59.5482 80.3594 59.6523 80.0781C59.9961 79.1823 60.3659 78.3854 60.7617 77.6875C61.1576 76.9792 61.6107 76.2708 62.1211 75.5625C62.3294 75.2812 62.5742 75.1406 62.8555 75.1406C63.0013 75.1406 63.1263 75.1979 63.2305 75.3125C63.3346 75.4271 63.4023 75.5365 63.4336 75.6406C63.5586 75.9948 63.6888 76.2396 63.8242 76.375C63.9596 76.5104 64.1419 76.5781 64.3711 76.5781H72.418C72.9701 76.5781 73.4492 76.724 73.8555 77.0156C74.2721 77.2969 74.6107 77.6354 74.8711 78.0312C75.0273 78.2708 75.1367 78.5677 75.1992 78.9219C75.2721 79.276 75.3451 79.8073 75.418 80.5156C75.668 82.849 75.793 85.0729 75.793 87.1875C75.793 87.8958 75.7773 88.3802 75.7461 88.6406C75.7148 88.901 75.6367 89.1562 75.5117 89.4062C75.3346 89.7396 75.0534 90.2083 74.668 90.8125C74.2826 91.4167 73.8919 91.9792 73.4961 92.5C73.4336 92.5729 73.3659 92.6302 73.293 92.6719C73.2305 92.724 73.1471 92.75 73.043 92.75C72.8555 92.75 72.7617 92.5625 72.7617 92.1875C72.7617 90.9583 72.6732 89.3229 72.4961 87.2812C72.3294 85.2292 72.1367 83.6406 71.918 82.5156C71.8346 82.0365 71.6836 81.7135 71.4648 81.5469C71.2461 81.3698 70.8971 81.2812 70.418 81.2812H66.293C66.1784 81.2812 66.0898 81.3073 66.0273 81.3594C65.9648 81.4115 65.9336 81.4688 65.9336 81.5312L66.043 81.9844C66.3346 83.1406 66.5742 84.1302 66.7617 84.9531C66.9492 85.776 67.043 86.3594 67.043 86.7031C67.043 86.9531 67.0221 87.1875 66.9805 87.4062C66.9492 87.625 66.8971 87.875 66.8242 88.1562C66.7201 88.5938 66.5378 89.1458 66.2773 89.8125C66.0169 90.4792 65.7409 91.0938 65.4492 91.6562C65.3763 91.7917 65.293 91.8906 65.1992 91.9531C65.1055 92.0052 64.9753 92.0312 64.8086 92.0312H59.8867C59.5117 92.0312 59.3242 91.8698 59.3242 91.5469C59.3242 91.4948 59.3451 91.3958 59.3867 91.25ZM83.208 92.7031C83.0621 92.7031 82.9476 92.6146 82.8642 92.4375C82.7913 92.2708 82.7444 92.0625 82.7236 91.8125C82.6819 90.6875 82.5726 89.1823 82.3955 87.2969C82.2184 85.401 82.0673 84.0729 81.9423 83.3125C81.9007 83 81.7653 82.6354 81.5361 82.2188C81.3173 81.7917 81.0465 81.4375 80.7236 81.1562C80.1403 80.6458 79.5465 80.1927 78.9423 79.7969L78.6455 79.5781C78.5101 79.4635 78.4423 79.3385 78.4423 79.2031C78.4423 79.099 78.4788 78.974 78.5517 78.8281C79.5101 77.151 80.3955 75.9583 81.208 75.25C81.3226 75.1771 81.4371 75.1406 81.5517 75.1406C81.6142 75.1406 81.708 75.1667 81.833 75.2188C82.1871 75.4167 82.6715 75.849 83.2861 76.5156C83.9007 77.1823 84.3226 77.7031 84.5517 78.0781C84.8017 78.4844 85.0205 78.9323 85.208 79.4219C85.3955 79.901 85.5205 80.5833 85.583 81.4688C85.6976 82.6562 85.7548 84.1719 85.7548 86.0156C85.7548 87.099 85.7444 87.8542 85.7236 88.2812C85.7236 88.3646 85.7184 88.4948 85.708 88.6719C85.6976 88.849 85.6715 89.0156 85.6298 89.1719C85.5986 89.3281 85.5465 89.4948 85.4736 89.6719C85.3173 90.0573 85.0517 90.5312 84.6767 91.0938C84.3121 91.6458 83.9892 92.0885 83.708 92.4219C83.5413 92.6094 83.3746 92.7031 83.208 92.7031ZM91.1855 87.9375C91.3521 87.6042 91.5657 87.2031 91.8261 86.7344C92.1803 86.1198 92.4563 85.6042 92.6542 85.1875C92.8521 84.7708 92.9511 84.4323 92.9511 84.1719C92.9511 83.3177 92.7167 82.651 92.248 82.1719C91.9459 81.8594 91.6178 81.5625 91.2636 81.2812C90.9094 81 90.4771 80.6771 89.9667 80.3125C89.9042 80.2604 89.7323 80.1354 89.4511 79.9375C89.1803 79.7396 88.9719 79.5677 88.8261 79.4219C88.6803 79.2448 88.6073 79.1094 88.6073 79.0156C88.6073 78.9115 88.6646 78.7604 88.7792 78.5625C88.9667 78.1875 89.3417 77.6458 89.9042 76.9375C90.4667 76.2292 90.9094 75.724 91.2323 75.4219C91.3678 75.3073 91.4719 75.2344 91.5448 75.2031C91.6178 75.1615 91.6855 75.1406 91.748 75.1406C91.8209 75.1406 91.9094 75.1667 92.0136 75.2188C92.6178 75.5729 93.3573 76.1198 94.2323 76.8594C95.1178 77.5885 95.7636 78.2292 96.1698 78.7812C96.4615 79.1771 96.6907 79.5781 96.8573 79.9844C97.024 80.3802 97.1073 80.8229 97.1073 81.3125C97.1073 81.9271 96.9719 82.5781 96.7011 83.2656C96.4303 83.9427 96.1282 84.5365 95.7948 85.0469C95.3782 85.724 94.8053 86.3385 94.0761 86.8906C93.3573 87.4427 92.5969 87.875 91.7948 88.1875C91.6073 88.2708 91.4771 88.3125 91.4042 88.3125C91.2376 88.3125 91.1542 88.2344 91.1542 88.0781C91.1542 88.026 91.1646 87.9792 91.1855 87.9375ZM102.522 88.9219C102.272 87.9844 102.059 87.1562 101.882 86.4375C101.788 86.0729 101.684 85.6771 101.569 85.25C101.455 84.8229 101.335 84.3854 101.21 83.9375C100.752 82.3021 100.158 80.8542 99.4286 79.5938C99.3869 79.5312 99.3505 79.4583 99.3192 79.375C99.2984 79.2812 99.288 79.2031 99.288 79.1406C99.288 79.026 99.3348 78.8802 99.4286 78.7031C99.8661 77.9323 100.298 77.2396 100.725 76.625C101.153 76.0104 101.465 75.6094 101.663 75.4219C101.84 75.2344 102.012 75.1406 102.179 75.1406C102.283 75.1406 102.366 75.1667 102.429 75.2188C102.502 75.2604 102.585 75.3281 102.679 75.4219C102.887 75.7031 103.111 76.1771 103.35 76.8438C103.6 77.5104 103.85 78.3906 104.1 79.4844C104.278 80.2656 104.434 81.0938 104.569 81.9688C104.715 82.8438 104.809 83.3906 104.85 83.6094C105.028 84.7656 105.153 85.4896 105.225 85.7812C105.413 86.6042 105.673 87.1667 106.007 87.4688C106.35 87.7604 106.809 87.9062 107.382 87.9062C107.892 87.9062 108.439 87.8073 109.022 87.6094C109.606 87.4115 110.147 87.1771 110.647 86.9062C111.147 86.6354 111.533 86.3906 111.804 86.1719C112.397 85.6823 112.694 84.7656 112.694 83.4219C112.694 82.7656 112.533 82.2135 112.21 81.7656C111.887 81.3177 111.475 80.9844 110.975 80.7656C110.475 80.5469 109.955 80.4375 109.413 80.4375C108.965 80.4375 108.517 80.5156 108.069 80.6719C107.632 80.8177 107.236 81.0104 106.882 81.25C106.798 81.3021 106.679 81.3854 106.522 81.5C106.366 81.6042 106.252 81.6562 106.179 81.6562C106.002 81.6562 105.913 81.5573 105.913 81.3594C105.913 81.0052 106.043 80.4323 106.304 79.6406C106.564 78.8385 106.845 78.1667 107.147 77.625C107.283 77.3958 107.403 77.224 107.507 77.1094C107.611 76.9844 107.757 76.8698 107.944 76.7656C108.465 76.4531 109.033 76.2031 109.647 76.0156C110.272 75.8281 110.923 75.7344 111.6 75.7344C112.621 75.7344 113.491 75.9844 114.21 76.4844C114.939 76.9844 115.486 77.6458 115.85 78.4688C116.215 79.2917 116.397 80.1719 116.397 81.1094C116.397 82.1927 116.199 83.2917 115.804 84.4062C115.408 85.5208 114.986 86.4948 114.538 87.3281C114.048 88.276 113.574 89 113.116 89.5C112.668 90 112.059 90.4792 111.288 90.9375C109.538 92.0208 107.85 92.5625 106.225 92.5625C105.84 92.5625 105.434 92.4896 105.007 92.3438C104.58 92.1979 104.205 91.9896 103.882 91.7188C103.58 91.4688 103.335 91.1302 103.147 90.7031C102.96 90.2656 102.814 89.8802 102.71 89.5469C102.616 89.2135 102.554 89.0052 102.522 88.9219ZM127.062 85C126.875 83.8646 126.417 82.9635 125.687 82.2969C124.969 81.6198 124.047 81.2812 122.922 81.2812H118.734C118.568 81.2812 118.427 81.2448 118.312 81.1719C118.198 81.099 118.14 81.0052 118.14 80.8906C118.14 80.5365 118.292 79.9948 118.594 79.2656C118.906 78.5365 119.281 77.8021 119.719 77.0625C120.156 76.3229 120.557 75.7708 120.922 75.4062C120.995 75.3229 121.062 75.2552 121.125 75.2031C121.187 75.1406 121.255 75.1094 121.328 75.1094C121.443 75.1094 121.531 75.1354 121.594 75.1875C121.656 75.2292 121.698 75.3073 121.719 75.4219C121.792 75.7969 121.89 76.0781 122.015 76.2656C122.151 76.4531 122.302 76.5469 122.469 76.5469H125.5C126.479 76.5469 127.354 76.8125 128.125 77.3438C128.906 77.8646 129.463 78.5365 129.797 79.3594C130.099 80.1719 130.312 81.2656 130.437 82.6406C130.562 84.0156 130.625 85.1927 130.625 86.1719C130.625 87.3385 130.588 88.0938 130.515 88.4375C130.38 88.9479 130.12 89.5625 129.734 90.2812C129.359 90.9896 128.943 91.6875 128.484 92.375C128.37 92.5104 128.276 92.599 128.203 92.6406C128.14 92.6927 128.062 92.7188 127.969 92.7188C127.698 92.7188 127.547 92.3958 127.515 91.75C127.495 91.375 127.474 90.8229 127.453 90.0938C127.411 88.8958 127.364 87.9167 127.312 87.1562C127.26 86.3854 127.177 85.6667 127.062 85ZM135.79 82.2031C135.769 81.9531 135.67 81.75 135.493 81.5938C135.326 81.4375 135.128 81.3594 134.899 81.3594C134.545 81.3594 134.196 81.3021 133.852 81.1875C133.769 81.1562 133.696 81.099 133.634 81.0156C133.582 80.9219 133.555 80.8438 133.555 80.7812C133.555 80.5625 133.759 80.0729 134.165 79.3125C134.582 78.5417 135.055 77.7552 135.587 76.9531C136.118 76.151 136.54 75.5938 136.852 75.2812C136.977 75.1562 137.134 75.0938 137.321 75.0938C137.592 75.0938 137.764 75.224 137.837 75.4844C137.941 75.8906 138.05 76.1667 138.165 76.3125C138.279 76.4479 138.441 76.5156 138.649 76.5156H148.415C149.321 76.5156 149.936 76.8438 150.259 77.5C150.582 78.1458 150.743 78.9844 150.743 80.0156C150.743 80.5365 150.665 81.1198 150.509 81.7656C150.352 82.4115 150.186 82.9583 150.009 83.4062C149.811 83.9479 149.509 84.6719 149.102 85.5781C148.696 86.474 148.342 87.1979 148.04 87.75C147.29 88.9583 146.566 89.8125 145.868 90.3125C145.483 90.5833 144.946 90.9062 144.259 91.2812C143.571 91.6562 142.899 91.974 142.243 92.2344C141.597 92.5052 141.123 92.6406 140.821 92.6406C140.707 92.6406 140.608 92.6094 140.524 92.5469C140.451 92.4948 140.415 92.4167 140.415 92.3125C140.415 92.0833 140.535 91.5156 140.774 90.6094C141.024 89.6927 141.259 88.9688 141.477 88.4375C141.571 88.2083 141.67 88.0469 141.774 87.9531C141.889 87.849 142.05 87.7604 142.259 87.6875C143.821 87.1354 144.988 86.5677 145.759 85.9844C145.998 85.8073 146.165 85.6146 146.259 85.4062C146.352 85.1875 146.446 84.8854 146.54 84.5C146.613 84.1667 146.66 83.8646 146.68 83.5938C146.701 83.3125 146.712 82.9583 146.712 82.5312C146.712 82.0625 146.618 81.7344 146.43 81.5469C146.243 81.349 145.915 81.25 145.446 81.25H140.274C139.753 81.25 139.493 81.5573 139.493 82.1719V92.375C139.493 93.7083 139.446 94.5365 139.352 94.8594C139.269 95.099 139.18 95.3021 139.087 95.4688C139.003 95.6458 138.951 95.7604 138.93 95.8125C138.639 96.3125 138.389 96.7188 138.18 97.0312C137.983 97.3542 137.748 97.6823 137.477 98.0156C137.342 98.1719 137.233 98.276 137.149 98.3281C137.076 98.3802 136.988 98.4062 136.884 98.4062C136.654 98.4062 136.524 98.1562 136.493 97.6562L136.352 94.2344C136.134 88.5156 135.946 84.5052 135.79 82.2031ZM157.72 92.7031C157.575 92.7031 157.46 92.6146 157.377 92.4375C157.304 92.2708 157.257 92.0625 157.236 91.8125C157.194 90.6875 157.085 89.1823 156.908 87.2969C156.731 85.401 156.58 84.0729 156.455 83.3125C156.413 83 156.278 82.6354 156.049 82.2188C155.83 81.7917 155.559 81.4375 155.236 81.1562C154.653 80.6458 154.059 80.1927 153.455 79.7969L153.158 79.5781C153.023 79.4635 152.955 79.3385 152.955 79.2031C152.955 79.099 152.991 78.974 153.064 78.8281C154.023 77.151 154.908 75.9583 155.72 75.25C155.835 75.1771 155.95 75.1406 156.064 75.1406C156.127 75.1406 156.22 75.1667 156.345 75.2188C156.7 75.4167 157.184 75.849 157.799 76.5156C158.413 77.1823 158.835 77.7031 159.064 78.0781C159.314 78.4844 159.533 78.9323 159.72 79.4219C159.908 79.901 160.033 80.5833 160.095 81.4688C160.21 82.6562 160.267 84.1719 160.267 86.0156C160.267 87.099 160.257 87.8542 160.236 88.2812C160.236 88.3646 160.231 88.4948 160.22 88.6719C160.21 88.849 160.184 89.0156 160.142 89.1719C160.111 89.3281 160.059 89.4948 159.986 89.6719C159.83 90.0573 159.564 90.5312 159.189 91.0938C158.825 91.6458 158.502 92.0885 158.22 92.4219C158.054 92.6094 157.887 92.7031 157.72 92.7031ZM163.979 92.1875C163.979 91.9479 164.307 90.6562 164.964 88.3125L165.135 87.6875C165.333 87.0208 165.51 86.3073 165.667 85.5469C165.833 84.7865 165.917 84.1823 165.917 83.7344C165.917 83.3802 165.833 83 165.667 82.5938C165.542 82.2604 165.307 81.8229 164.964 81.2812C164.62 80.7292 164.255 80.2135 163.87 79.7344C163.859 79.7135 163.833 79.6823 163.792 79.6406C163.75 79.5885 163.719 79.5417 163.698 79.5C163.688 79.4583 163.682 79.4115 163.682 79.3594C163.682 79.2552 163.719 79.1302 163.792 78.9844C163.958 78.651 164.287 78.1198 164.776 77.3906C165.276 76.6615 165.787 75.9688 166.307 75.3125C166.359 75.25 166.422 75.2031 166.495 75.1719C166.568 75.1302 166.635 75.1094 166.698 75.1094C166.813 75.1094 166.943 75.1927 167.089 75.3594C167.484 75.8385 167.844 76.375 168.167 76.9688C168.5 77.5625 168.76 78.1042 168.948 78.5938C169.073 78.9792 169.198 79.4427 169.323 79.9844C169.448 80.526 169.51 80.8281 169.51 80.8906C169.51 80.901 169.516 80.9115 169.526 80.9219C169.537 80.9323 169.547 80.9375 169.557 80.9375C169.62 80.9375 169.667 80.901 169.698 80.8281L169.854 80.4844C170.219 79.6927 170.557 79.0104 170.87 78.4375C171.182 77.8542 171.51 77.3906 171.854 77.0469C172.281 76.6302 172.719 76.3281 173.167 76.1406C173.625 75.9427 174.135 75.8438 174.698 75.8438C175.427 75.8438 176.13 76.0417 176.807 76.4375C177.495 76.8229 178.099 77.3906 178.62 78.1406C179.714 79.6302 180.26 81.8333 180.26 84.75C180.26 85.7083 180.224 86.5 180.151 87.125C180.089 87.7708 179.896 88.5208 179.573 89.375C179.26 90.2292 178.927 90.9427 178.573 91.5156C178.458 91.7135 178.333 91.8438 178.198 91.9062C178.063 91.9688 177.88 92 177.651 92H169.667C169.49 92 169.349 91.9688 169.245 91.9062C169.151 91.8438 169.104 91.724 169.104 91.5469C169.115 91.4844 169.146 91.3854 169.198 91.25C169.25 91.1042 169.313 90.9531 169.385 90.7969C169.635 90.2448 169.943 89.6458 170.307 89C170.672 88.3438 170.969 87.8646 171.198 87.5625C171.302 87.4583 171.391 87.3906 171.464 87.3594C171.537 87.3177 171.662 87.2969 171.839 87.2969H176.51C176.802 87.2969 176.948 87.1927 176.948 86.9844C176.948 86.5677 176.922 86.1823 176.87 85.8281C176.818 85.474 176.734 84.974 176.62 84.3281C176.526 83.8906 176.38 83.4323 176.182 82.9531C175.995 82.474 175.776 82.0729 175.526 81.75C175.224 81.3958 174.839 81.1146 174.37 80.9062C173.901 80.6979 173.422 80.5938 172.932 80.5938C172.162 80.5938 171.526 80.8021 171.026 81.2188C170.526 81.6354 170.057 82.2604 169.62 83.0938C169.047 84.2188 168.521 85.5833 168.042 87.1875C168.021 87.2604 167.979 87.401 167.917 87.6094C167.865 87.8073 167.787 88.0104 167.682 88.2188C167.443 88.7083 167.021 89.3594 166.417 90.1719C165.823 90.974 165.26 91.6406 164.729 92.1719C164.542 92.3594 164.365 92.4531 164.198 92.4531C164.135 92.4531 164.083 92.4271 164.042 92.375C164 92.3229 163.979 92.2604 163.979 92.1875ZM189.519 81.6406C189.478 81.3594 189.306 81.2188 189.004 81.2188H182.769C182.592 81.2188 182.425 81.1615 182.269 81.0469C182.123 80.9323 182.05 80.7552 182.05 80.5156C182.05 80.276 182.217 79.8073 182.55 79.1094C182.884 78.401 183.259 77.6771 183.675 76.9375C184.103 76.1979 184.399 75.724 184.566 75.5156C184.66 75.3698 184.743 75.2656 184.816 75.2031C184.889 75.1406 184.983 75.1094 185.097 75.1094C185.233 75.1094 185.373 75.1927 185.519 75.3594C185.571 75.4427 185.608 75.5365 185.629 75.6406C185.66 75.7448 185.681 75.8073 185.691 75.8281C185.754 76.0573 185.827 76.2292 185.91 76.3438C186.004 76.4583 186.181 76.5156 186.441 76.5156H189.91C190.004 76.5156 190.092 76.4896 190.175 76.4375C190.259 76.375 190.379 76.2708 190.535 76.125C190.712 75.9479 190.858 75.8177 190.972 75.7344C191.524 75.3177 191.962 75.1094 192.285 75.1094C192.577 75.1094 192.722 75.3229 192.722 75.75V76.3125C192.722 76.4479 192.832 76.5156 193.05 76.5156H194.722C194.91 76.5156 195.061 76.5885 195.175 76.7344C195.29 76.8698 195.347 77.0781 195.347 77.3594C195.347 77.8073 195.233 78.4062 195.004 79.1562C194.785 79.8958 194.535 80.5104 194.254 81C194.149 81.1667 193.946 81.25 193.644 81.25H193.269C193.155 81.25 193.071 81.2917 193.019 81.375C192.967 81.4583 192.941 81.5469 192.941 81.6406C193.004 82.9844 193.05 84.099 193.082 84.9844C193.113 85.8698 193.134 86.875 193.144 88C193.144 88.3646 193.082 88.7344 192.957 89.1094C192.832 89.5573 192.545 90.1406 192.097 90.8594C191.66 91.5781 191.28 92.125 190.957 92.5C190.821 92.6354 190.696 92.7031 190.582 92.7031C190.332 92.7031 190.186 92.4792 190.144 92.0312L189.941 88.2969C189.795 85.0365 189.655 82.8177 189.519 81.6406Z" fill="#0052B4"/>
</g>
<g style="mix-blend-mode:multiply">
<path d="M54.3867 67.25C54.5221 66.6562 54.7357 66 55.0273 65.2812C55.3294 64.5625 55.6107 64.0312 55.8711 63.6875C55.944 63.5833 56.0221 63.5156 56.1055 63.4844C56.1992 63.4531 56.3034 63.4375 56.418 63.4375H58.3086C58.444 63.4375 58.5482 63.401 58.6211 63.3281C58.7044 63.2448 58.7461 63.151 58.7461 63.0469C58.7461 62.8906 58.5742 62.1875 58.2305 60.9375C57.8867 59.6771 57.5638 58.6562 57.2617 57.875C57.1784 57.6354 57.0326 57.4792 56.8242 57.4062C56.6263 57.3229 56.3971 57.2812 56.1367 57.2812H55.0742C54.9388 57.2812 54.8086 57.2292 54.6836 57.125C54.5586 57.0208 54.4961 56.8698 54.4961 56.6719C54.4961 56.5573 54.5482 56.3594 54.6523 56.0781C54.9961 55.1823 55.3659 54.3854 55.7617 53.6875C56.1576 52.9792 56.6107 52.2708 57.1211 51.5625C57.3294 51.2812 57.5742 51.1406 57.8555 51.1406C58.0013 51.1406 58.1263 51.1979 58.2305 51.3125C58.3346 51.4271 58.4023 51.5365 58.4336 51.6406C58.5586 51.9948 58.6888 52.2396 58.8242 52.375C58.9596 52.5104 59.1419 52.5781 59.3711 52.5781H67.418C67.9701 52.5781 68.4492 52.724 68.8555 53.0156C69.2721 53.2969 69.6107 53.6354 69.8711 54.0312C70.0273 54.2708 70.1367 54.5677 70.1992 54.9219C70.2721 55.276 70.3451 55.8073 70.418 56.5156C70.668 58.849 70.793 61.0729 70.793 63.1875C70.793 63.8958 70.7773 64.3802 70.7461 64.6406C70.7148 64.901 70.6367 65.1562 70.5117 65.4062C70.3346 65.7396 70.0534 66.2083 69.668 66.8125C69.2826 67.4167 68.8919 67.9792 68.4961 68.5C68.4336 68.5729 68.3659 68.6302 68.293 68.6719C68.2305 68.724 68.1471 68.75 68.043 68.75C67.8555 68.75 67.7617 68.5625 67.7617 68.1875C67.7617 66.9583 67.6732 65.3229 67.4961 63.2812C67.3294 61.2292 67.1367 59.6406 66.918 58.5156C66.8346 58.0365 66.6836 57.7135 66.4648 57.5469C66.2461 57.3698 65.8971 57.2812 65.418 57.2812H61.293C61.1784 57.2812 61.0898 57.3073 61.0273 57.3594C60.9648 57.4115 60.9336 57.4688 60.9336 57.5312L61.043 57.9844C61.3346 59.1406 61.5742 60.1302 61.7617 60.9531C61.9492 61.776 62.043 62.3594 62.043 62.7031C62.043 62.9531 62.0221 63.1875 61.9805 63.4062C61.9492 63.625 61.8971 63.875 61.8242 64.1562C61.7201 64.5938 61.5378 65.1458 61.2773 65.8125C61.0169 66.4792 60.7409 67.0938 60.4492 67.6562C60.3763 67.7917 60.293 67.8906 60.1992 67.9531C60.1055 68.0052 59.9753 68.0312 59.8086 68.0312H54.8867C54.5117 68.0312 54.3242 67.8698 54.3242 67.5469C54.3242 67.4948 54.3451 67.3958 54.3867 67.25ZM78.208 68.7031C78.0621 68.7031 77.9476 68.6146 77.8642 68.4375C77.7913 68.2708 77.7444 68.0625 77.7236 67.8125C77.6819 66.6875 77.5726 65.1823 77.3955 63.2969C77.2184 61.401 77.0673 60.0729 76.9423 59.3125C76.9007 59 76.7653 58.6354 76.5361 58.2188C76.3173 57.7917 76.0465 57.4375 75.7236 57.1562C75.1403 56.6458 74.5465 56.1927 73.9423 55.7969L73.6455 55.5781C73.5101 55.4635 73.4423 55.3385 73.4423 55.2031C73.4423 55.099 73.4788 54.974 73.5517 54.8281C74.5101 53.151 75.3955 51.9583 76.208 51.25C76.3226 51.1771 76.4371 51.1406 76.5517 51.1406C76.6142 51.1406 76.708 51.1667 76.833 51.2188C77.1871 51.4167 77.6715 51.849 78.2861 52.5156C78.9007 53.1823 79.3226 53.7031 79.5517 54.0781C79.8017 54.4844 80.0205 54.9323 80.208 55.4219C80.3955 55.901 80.5205 56.5833 80.583 57.4688C80.6976 58.6562 80.7548 60.1719 80.7548 62.0156C80.7548 63.099 80.7444 63.8542 80.7236 64.2812C80.7236 64.3646 80.7184 64.4948 80.708 64.6719C80.6976 64.849 80.6715 65.0156 80.6298 65.1719C80.5986 65.3281 80.5465 65.4948 80.4736 65.6719C80.3173 66.0573 80.0517 66.5312 79.6767 67.0938C79.3121 67.6458 78.9892 68.0885 78.708 68.4219C78.5413 68.6094 78.3746 68.7031 78.208 68.7031ZM84.2323 63.7812C84.3886 63.4792 84.6178 63.3281 84.9198 63.3281H88.1073C88.4303 63.3281 88.5917 63.1406 88.5917 62.7656C88.5917 62.0677 88.5657 61.5208 88.5136 61.125C88.4615 60.7292 88.3834 60.3229 88.2792 59.9062C88.1751 59.5 88.0657 59.1667 87.9511 58.9062C87.8365 58.6458 87.6907 58.401 87.5136 58.1719C87.2011 57.7344 86.7428 57.2708 86.1386 56.7812C85.5344 56.2812 84.8469 55.8594 84.0761 55.5156C83.8573 55.401 83.748 55.25 83.748 55.0625C83.748 54.9167 83.7948 54.776 83.8886 54.6406C84.3678 53.849 84.7792 53.1979 85.123 52.6875C85.4667 52.1667 85.8209 51.724 86.1855 51.3594C86.2792 51.2656 86.3521 51.2031 86.4042 51.1719C86.4667 51.1302 86.5448 51.1094 86.6386 51.1094C86.7428 51.1094 86.9251 51.1927 87.1855 51.3594C88.1126 51.9219 88.9355 52.5781 89.6542 53.3281C89.9771 53.6615 90.2844 54.1406 90.5761 54.7656C90.8678 55.3802 91.0865 56.0156 91.2323 56.6719C91.5032 58.1198 91.6386 59.401 91.6386 60.5156C91.6386 61.9948 91.5084 63.1979 91.248 64.125C91.0917 64.6979 90.9094 65.2865 90.7011 65.8906C90.4928 66.4844 90.2948 66.9635 90.1073 67.3281C90.0032 67.5365 89.873 67.7031 89.7167 67.8281C89.5709 67.9427 89.4094 68 89.2323 68H83.2636C83.1386 68 83.0344 67.9635 82.9511 67.8906C82.8782 67.8177 82.8417 67.7292 82.8417 67.625C82.8417 67.4688 83.0188 66.8854 83.373 65.875C83.7376 64.8542 84.024 64.1562 84.2323 63.7812ZM96.7255 63.9375C96.8921 63.6042 97.1057 63.2031 97.3661 62.7344C97.7203 62.1198 97.9963 61.6042 98.1942 61.1875C98.3921 60.7708 98.4911 60.4323 98.4911 60.1719C98.4911 59.3177 98.2567 58.651 97.788 58.1719C97.4859 57.8594 97.1578 57.5625 96.8036 57.2812C96.4494 57 96.0171 56.6771 95.5067 56.3125C95.4442 56.2604 95.2723 56.1354 94.9911 55.9375C94.7203 55.7396 94.5119 55.5677 94.3661 55.4219C94.2203 55.2448 94.1473 55.1094 94.1473 55.0156C94.1473 54.9115 94.2046 54.7604 94.3192 54.5625C94.5067 54.1875 94.8817 53.6458 95.4442 52.9375C96.0067 52.2292 96.4494 51.724 96.7723 51.4219C96.9078 51.3073 97.0119 51.2344 97.0848 51.2031C97.1578 51.1615 97.2255 51.1406 97.288 51.1406C97.3609 51.1406 97.4494 51.1667 97.5536 51.2188C98.1578 51.5729 98.8973 52.1198 99.7723 52.8594C100.658 53.5885 101.304 54.2292 101.71 54.7812C102.002 55.1771 102.231 55.5781 102.397 55.9844C102.564 56.3802 102.647 56.8229 102.647 57.3125C102.647 57.9271 102.512 58.5781 102.241 59.2656C101.97 59.9427 101.668 60.5365 101.335 61.0469C100.918 61.724 100.345 62.3385 99.6161 62.8906C98.8973 63.4427 98.1369 63.875 97.3348 64.1875C97.1473 64.2708 97.0171 64.3125 96.9442 64.3125C96.7776 64.3125 96.6942 64.2344 96.6942 64.0781C96.6942 64.026 96.7046 63.9792 96.7255 63.9375ZM111.609 57.6406C111.568 57.3594 111.396 57.2188 111.094 57.2188H104.859C104.682 57.2188 104.515 57.1615 104.359 57.0469C104.213 56.9323 104.14 56.7552 104.14 56.5156C104.14 56.276 104.307 55.8073 104.64 55.1094C104.974 54.401 105.349 53.6771 105.765 52.9375C106.193 52.1979 106.489 51.724 106.656 51.5156C106.75 51.3698 106.833 51.2656 106.906 51.2031C106.979 51.1406 107.073 51.1094 107.187 51.1094C107.323 51.1094 107.463 51.1927 107.609 51.3594C107.661 51.4427 107.698 51.5365 107.719 51.6406C107.75 51.7448 107.771 51.8073 107.781 51.8281C107.844 52.0573 107.917 52.2292 108 52.3438C108.094 52.4583 108.271 52.5156 108.531 52.5156H112C112.094 52.5156 112.182 52.4896 112.265 52.4375C112.349 52.375 112.469 52.2708 112.625 52.125C112.802 51.9479 112.948 51.8177 113.062 51.7344C113.614 51.3177 114.052 51.1094 114.375 51.1094C114.667 51.1094 114.812 51.3229 114.812 51.75V52.3125C114.812 52.4479 114.922 52.5156 115.14 52.5156H116.812C117 52.5156 117.151 52.5885 117.265 52.7344C117.38 52.8698 117.437 53.0781 117.437 53.3594C117.437 53.8073 117.323 54.4062 117.094 55.1562C116.875 55.8958 116.625 56.5104 116.344 57C116.239 57.1667 116.036 57.25 115.734 57.25H115.359C115.245 57.25 115.161 57.2917 115.109 57.375C115.057 57.4583 115.031 57.5469 115.031 57.6406C115.094 58.9844 115.14 60.099 115.172 60.9844C115.203 61.8698 115.224 62.875 115.234 64C115.234 64.3646 115.172 64.7344 115.047 65.1094C114.922 65.5573 114.635 66.1406 114.187 66.8594C113.75 67.5781 113.37 68.125 113.047 68.5C112.911 68.6354 112.786 68.7031 112.672 68.7031C112.422 68.7031 112.276 68.4792 112.234 68.0312L112.031 64.2969C111.885 61.0365 111.745 58.8177 111.609 57.6406ZM120.524 68.1875C120.524 67.9479 120.852 66.6562 121.509 64.3125L121.68 63.6875C121.878 63.0208 122.055 62.3073 122.212 61.5469C122.378 60.7865 122.462 60.1823 122.462 59.7344C122.462 59.3802 122.378 59 122.212 58.5938C122.087 58.2604 121.852 57.8229 121.509 57.2812C121.165 56.7292 120.8 56.2135 120.415 55.7344C120.404 55.7135 120.378 55.6823 120.337 55.6406C120.295 55.5885 120.264 55.5417 120.243 55.5C120.233 55.4583 120.227 55.4115 120.227 55.3594C120.227 55.2552 120.264 55.1302 120.337 54.9844C120.503 54.651 120.832 54.1198 121.321 53.3906C121.821 52.6615 122.332 51.9688 122.852 51.3125C122.904 51.25 122.967 51.2031 123.04 51.1719C123.113 51.1302 123.18 51.1094 123.243 51.1094C123.358 51.1094 123.488 51.1927 123.634 51.3594C124.029 51.8385 124.389 52.375 124.712 52.9688C125.045 53.5625 125.305 54.1042 125.493 54.5938C125.618 54.9792 125.743 55.4427 125.868 55.9844C125.993 56.526 126.055 56.8281 126.055 56.8906C126.055 56.901 126.061 56.9115 126.071 56.9219C126.082 56.9323 126.092 56.9375 126.102 56.9375C126.165 56.9375 126.212 56.901 126.243 56.8281L126.399 56.4844C126.764 55.6927 127.102 55.0104 127.415 54.4375C127.727 53.8542 128.055 53.3906 128.399 53.0469C128.826 52.6302 129.264 52.3281 129.712 52.1406C130.17 51.9427 130.68 51.8438 131.243 51.8438C131.972 51.8438 132.675 52.0417 133.352 52.4375C134.04 52.8229 134.644 53.3906 135.165 54.1406C136.259 55.6302 136.805 57.8333 136.805 60.75C136.805 61.7083 136.769 62.5 136.696 63.125C136.634 63.7708 136.441 64.5208 136.118 65.375C135.805 66.2292 135.472 66.9427 135.118 67.5156C135.003 67.7135 134.878 67.8438 134.743 67.9062C134.608 67.9688 134.425 68 134.196 68H126.212C126.035 68 125.894 67.9688 125.79 67.9062C125.696 67.8438 125.649 67.724 125.649 67.5469C125.66 67.4844 125.691 67.3854 125.743 67.25C125.795 67.1042 125.858 66.9531 125.93 66.7969C126.18 66.2448 126.488 65.6458 126.852 65C127.217 64.3438 127.514 63.8646 127.743 63.5625C127.847 63.4583 127.936 63.3906 128.009 63.3594C128.082 63.3177 128.207 63.2969 128.384 63.2969H133.055C133.347 63.2969 133.493 63.1927 133.493 62.9844C133.493 62.5677 133.467 62.1823 133.415 61.8281C133.363 61.474 133.279 60.974 133.165 60.3281C133.071 59.8906 132.925 59.4323 132.727 58.9531C132.54 58.474 132.321 58.0729 132.071 57.75C131.769 57.3958 131.384 57.1146 130.915 56.9062C130.446 56.6979 129.967 56.5938 129.477 56.5938C128.707 56.5938 128.071 56.8021 127.571 57.2188C127.071 57.6354 126.602 58.2604 126.165 59.0938C125.592 60.2188 125.066 61.5833 124.587 63.1875C124.566 63.2604 124.524 63.401 124.462 63.6094C124.41 63.8073 124.332 64.0104 124.227 64.2188C123.988 64.7083 123.566 65.3594 122.962 66.1719C122.368 66.974 121.805 67.6406 121.274 68.1719C121.087 68.3594 120.91 68.4531 120.743 68.4531C120.68 68.4531 120.628 68.4271 120.587 68.375C120.545 68.3229 120.524 68.2604 120.524 68.1875ZM148.276 63.8594C148.38 63.7448 148.464 63.6667 148.526 63.625C148.589 63.5729 148.677 63.5365 148.792 63.5156C149.51 63.3594 150.297 63.0885 151.151 62.7031C152.005 62.3073 152.599 61.9271 152.932 61.5625C153.214 61.2292 153.422 60.8385 153.557 60.3906C153.703 59.9323 153.776 59.4427 153.776 58.9219C153.776 58.3698 153.672 57.9531 153.464 57.6719C153.266 57.3906 152.932 57.25 152.464 57.25H147.385C146.76 57.25 146.297 57.1823 145.995 57.0469C145.703 56.9115 145.505 56.6927 145.401 56.3906C145.307 56.0885 145.26 55.6354 145.26 55.0312C145.26 54.9583 145.266 54.8177 145.276 54.6094C145.287 54.401 145.292 54.151 145.292 53.8594C145.292 53.2135 145.255 52.6562 145.182 52.1875C145.037 51.4271 144.828 50.8177 144.557 50.3594C144.505 50.2344 144.479 50.1302 144.479 50.0469C144.479 49.974 144.505 49.875 144.557 49.75C144.745 49.3854 145.109 48.875 145.651 48.2188C146.203 47.5625 146.672 47.0521 147.057 46.6875C147.182 46.5625 147.292 46.5 147.385 46.5C147.552 46.5 147.708 46.5781 147.854 46.7344C148 46.8802 148.104 47.0729 148.167 47.3125C148.281 47.6771 148.359 48.2917 148.401 49.1562C148.443 50.0104 148.464 50.776 148.464 51.4531C148.464 51.849 148.594 52.1302 148.854 52.2969C149.115 52.4635 149.51 52.5469 150.042 52.5469H155.76C156.427 52.5469 156.922 52.724 157.245 53.0781C157.568 53.4219 157.729 53.9167 157.729 54.5625C157.729 55.5417 157.625 56.5052 157.417 57.4531C157.219 58.401 156.948 59.4062 156.604 60.4688C156.083 62.0625 155.297 63.4948 154.245 64.7656C153.193 66.026 151.964 66.9635 150.557 67.5781C149.995 67.8281 149.313 68.0781 148.51 68.3281C147.708 68.5781 147.177 68.7031 146.917 68.7031C146.667 68.7031 146.542 68.5625 146.542 68.2812C146.542 67.9792 146.641 67.5312 146.839 66.9375C147.037 66.3333 147.276 65.7344 147.557 65.1406C147.839 64.5469 148.078 64.1198 148.276 63.8594ZM161.644 65.8125C161.769 65.6354 161.931 65.5 162.129 65.4062C162.358 65.2812 162.623 65.1458 162.925 65C163.228 64.8438 163.441 64.7292 163.566 64.6562C163.608 64.6354 163.634 64.6146 163.644 64.5938C163.665 64.5625 163.675 64.5208 163.675 64.4688C163.675 64.2708 163.488 63.6198 163.113 62.5156C162.738 61.401 162.28 60.2552 161.738 59.0781C161.207 57.901 160.665 56.9896 160.113 56.3438C159.884 56.1042 159.769 55.8854 159.769 55.6875C159.769 55.4688 159.946 55.0469 160.3 54.4219C160.665 53.7969 161.066 53.1719 161.504 52.5469C161.952 51.9115 162.254 51.5312 162.41 51.4062C162.566 51.2292 162.743 51.1406 162.941 51.1406C163.056 51.1406 163.149 51.1875 163.222 51.2812C163.306 51.3646 163.389 51.4948 163.472 51.6719C164.587 54.2344 165.623 57.9323 166.582 62.7656C166.613 62.9115 166.67 62.9844 166.754 62.9844C166.774 62.9844 166.879 62.9375 167.066 62.8438C167.358 62.6667 167.748 62.4271 168.238 62.125C168.738 61.8125 169.071 61.5781 169.238 61.4219C169.405 61.2656 169.53 61.1094 169.613 60.9531C169.696 60.7969 169.738 60.5885 169.738 60.3281C169.738 59.9844 169.597 59.349 169.316 58.4219C169.045 57.4948 168.795 56.7969 168.566 56.3281C168.535 56.276 168.478 56.1771 168.394 56.0312C168.321 55.875 168.259 55.7292 168.207 55.5938C168.155 55.4479 168.129 55.3177 168.129 55.2031C168.129 55.0156 168.29 54.6615 168.613 54.1406C168.946 53.6094 169.321 53.0625 169.738 52.5C170.155 51.9271 170.457 51.5365 170.644 51.3281C170.665 51.2865 170.722 51.2448 170.816 51.2031C170.91 51.1615 171.004 51.1406 171.097 51.1406C171.181 51.1406 171.269 51.1719 171.363 51.2344C171.467 51.2865 171.556 51.3594 171.629 51.4531C171.889 51.8802 172.149 52.6771 172.41 53.8438C172.67 55.0104 172.8 55.9948 172.8 56.7969C172.8 57.4531 172.769 57.9427 172.707 58.2656C172.644 58.5781 172.608 58.776 172.597 58.8594C172.545 59.2031 172.394 59.75 172.144 60.5C171.894 61.25 171.613 62.0104 171.3 62.7812C170.988 63.5417 170.702 64.125 170.441 64.5312C170.181 64.9583 169.879 65.3333 169.535 65.6562C169.202 65.9792 168.759 66.3229 168.207 66.6875C167.738 66.9896 166.748 67.5417 165.238 68.3438C163.738 69.1562 162.488 69.7708 161.488 70.1875C161.217 70.2917 160.998 70.3698 160.832 70.4219C160.665 70.4844 160.535 70.5156 160.441 70.5156C160.191 70.5156 160.066 70.3906 160.066 70.1406C160.066 70.0156 160.16 69.6562 160.347 69.0625C160.545 68.4688 160.764 67.8542 161.004 67.2188C161.254 66.5729 161.467 66.1042 161.644 65.8125Z" fill="#0052B4"/>
</g>
<g style="mix-blend-mode:multiply">
<path d="M60.0898 37C59.9023 35.8646 59.444 34.9635 58.7148 34.2969C57.9961 33.6198 57.0742 33.2812 55.9492 33.2812H51.7617C51.5951 33.2812 51.4544 33.2448 51.3398 33.1719C51.2253 33.099 51.168 33.0052 51.168 32.8906C51.168 32.5365 51.319 31.9948 51.6211 31.2656C51.9336 30.5365 52.3086 29.8021 52.7461 29.0625C53.1836 28.3229 53.5846 27.7708 53.9492 27.4062C54.0221 27.3229 54.0898 27.2552 54.1523 27.2031C54.2148 27.1406 54.2826 27.1094 54.3555 27.1094C54.4701 27.1094 54.5586 27.1354 54.6211 27.1875C54.6836 27.2292 54.7253 27.3073 54.7461 27.4219C54.819 27.7969 54.918 28.0781 55.043 28.2656C55.1784 28.4531 55.3294 28.5469 55.4961 28.5469H58.5273C59.5065 28.5469 60.3815 28.8125 61.1523 29.3438C61.9336 29.8646 62.4909 30.5365 62.8242 31.3594C63.1263 32.1719 63.3398 33.2656 63.4648 34.6406C63.5898 36.0156 63.6523 37.1927 63.6523 38.1719C63.6523 39.3385 63.6159 40.0938 63.543 40.4375C63.4076 40.9479 63.1471 41.5625 62.7617 42.2812C62.3867 42.9896 61.9701 43.6875 61.5117 44.375C61.3971 44.5104 61.3034 44.599 61.2305 44.6406C61.168 44.6927 61.0898 44.7188 60.9961 44.7188C60.7253 44.7188 60.5742 44.3958 60.543 43.75C60.5221 43.375 60.5013 42.8229 60.4805 42.0938C60.4388 40.8958 60.3919 39.9167 60.3398 39.1562C60.2878 38.3854 60.2044 37.6667 60.0898 37ZM67.3017 44.1875C67.3017 43.9479 67.6298 42.6562 68.2861 40.3125L68.458 39.6875C68.6559 39.0208 68.833 38.3073 68.9892 37.5469C69.1559 36.7865 69.2392 36.1823 69.2392 35.7344C69.2392 35.3802 69.1559 35 68.9892 34.5938C68.8642 34.2604 68.6298 33.8229 68.2861 33.2812C67.9423 32.7292 67.5778 32.2135 67.1923 31.7344C67.1819 31.7135 67.1559 31.6823 67.1142 31.6406C67.0726 31.5885 67.0413 31.5417 67.0205 31.5C67.0101 31.4583 67.0048 31.4115 67.0048 31.3594C67.0048 31.2552 67.0413 31.1302 67.1142 30.9844C67.2809 30.651 67.609 30.1198 68.0986 29.3906C68.5986 28.6615 69.109 27.9688 69.6298 27.3125C69.6819 27.25 69.7444 27.2031 69.8173 27.1719C69.8903 27.1302 69.958 27.1094 70.0205 27.1094C70.1351 27.1094 70.2653 27.1927 70.4111 27.3594C70.8069 27.8385 71.1663 28.375 71.4892 28.9688C71.8226 29.5625 72.083 30.1042 72.2705 30.5938C72.3955 30.9792 72.5205 31.4427 72.6455 31.9844C72.7705 32.526 72.833 32.8281 72.833 32.8906C72.833 32.901 72.8382 32.9115 72.8486 32.9219C72.859 32.9323 72.8694 32.9375 72.8798 32.9375C72.9423 32.9375 72.9892 32.901 73.0205 32.8281L73.1767 32.4844C73.5413 31.6927 73.8798 31.0104 74.1923 30.4375C74.5048 29.8542 74.833 29.3906 75.1767 29.0469C75.6038 28.6302 76.0413 28.3281 76.4892 28.1406C76.9476 27.9427 77.458 27.8438 78.0205 27.8438C78.7496 27.8438 79.4528 28.0417 80.1298 28.4375C80.8173 28.8229 81.4215 29.3906 81.9423 30.1406C83.0361 31.6302 83.583 33.8333 83.583 36.75C83.583 37.7083 83.5465 38.5 83.4736 39.125C83.4111 39.7708 83.2184 40.5208 82.8955 41.375C82.583 42.2292 82.2496 42.9427 81.8955 43.5156C81.7809 43.7135 81.6559 43.8438 81.5205 43.9062C81.3851 43.9688 81.2028 44 80.9736 44H72.9892C72.8121 44 72.6715 43.9688 72.5673 43.9062C72.4736 43.8438 72.4267 43.724 72.4267 43.5469C72.4371 43.4844 72.4684 43.3854 72.5205 43.25C72.5726 43.1042 72.6351 42.9531 72.708 42.7969C72.958 42.2448 73.2653 41.6458 73.6298 41C73.9944 40.3438 74.2913 39.8646 74.5205 39.5625C74.6246 39.4583 74.7132 39.3906 74.7861 39.3594C74.859 39.3177 74.984 39.2969 75.1611 39.2969H79.833C80.1246 39.2969 80.2705 39.1927 80.2705 38.9844C80.2705 38.5677 80.2444 38.1823 80.1923 37.8281C80.1403 37.474 80.0569 36.974 79.9423 36.3281C79.8486 35.8906 79.7028 35.4323 79.5048 34.9531C79.3173 34.474 79.0986 34.0729 78.8486 33.75C78.5465 33.3958 78.1611 33.1146 77.6923 32.9062C77.2236 32.6979 76.7444 32.5938 76.2548 32.5938C75.484 32.5938 74.8486 32.8021 74.3486 33.2188C73.8486 33.6354 73.3798 34.2604 72.9423 35.0938C72.3694 36.2188 71.8434 37.5833 71.3642 39.1875C71.3434 39.2604 71.3017 39.401 71.2392 39.6094C71.1871 39.8073 71.109 40.0104 71.0048 40.2188C70.7653 40.7083 70.3434 41.3594 69.7392 42.1719C69.1455 42.974 68.583 43.6406 68.0517 44.1719C67.8642 44.3594 67.6871 44.4531 67.5205 44.4531C67.458 44.4531 67.4059 44.4271 67.3642 44.375C67.3226 44.3229 67.3017 44.2604 67.3017 44.1875ZM90.748 44.7031C90.6021 44.7031 90.4876 44.6146 90.4042 44.4375C90.3313 44.2708 90.2844 44.0625 90.2636 43.8125C90.2219 42.6875 90.1126 41.1823 89.9355 39.2969C89.7584 37.401 89.6073 36.0729 89.4823 35.3125C89.4407 35 89.3053 34.6354 89.0761 34.2188C88.8573 33.7917 88.5865 33.4375 88.2636 33.1562C87.6803 32.6458 87.0865 32.1927 86.4823 31.7969L86.1855 31.5781C86.0501 31.4635 85.9823 31.3385 85.9823 31.2031C85.9823 31.099 86.0188 30.974 86.0917 30.8281C87.0501 29.151 87.9355 27.9583 88.748 27.25C88.8626 27.1771 88.9771 27.1406 89.0917 27.1406C89.1542 27.1406 89.248 27.1667 89.373 27.2188C89.7271 27.4167 90.2115 27.849 90.8261 28.5156C91.4407 29.1823 91.8626 29.7031 92.0917 30.0781C92.3417 30.4844 92.5605 30.9323 92.748 31.4219C92.9355 31.901 93.0605 32.5833 93.123 33.4688C93.2376 34.6562 93.2948 36.1719 93.2948 38.0156C93.2948 39.099 93.2844 39.8542 93.2636 40.2812C93.2636 40.3646 93.2584 40.4948 93.248 40.6719C93.2376 40.849 93.2115 41.0156 93.1698 41.1719C93.1386 41.3281 93.0865 41.4948 93.0136 41.6719C92.8573 42.0573 92.5917 42.5312 92.2167 43.0938C91.8521 43.6458 91.5292 44.0885 91.248 44.4219C91.0813 44.6094 90.9146 44.7031 90.748 44.7031ZM100.491 42.2656C100.231 41.3073 99.9755 40.4323 99.7255 39.6406C99.4859 38.849 99.1682 37.8854 98.7723 36.75C98.1265 34.8958 97.4182 33.2604 96.6473 31.8438C96.439 31.4688 96.3348 31.1823 96.3348 30.9844C96.3348 30.8594 96.3921 30.6719 96.5067 30.4219C96.7255 30.0052 97.0588 29.4896 97.5067 28.875C97.9546 28.25 98.3505 27.7656 98.6942 27.4219C98.7151 27.401 98.7515 27.3646 98.8036 27.3125C98.8557 27.25 98.9078 27.2083 98.9598 27.1875C99.0119 27.1562 99.0744 27.1406 99.1473 27.1406C99.2723 27.1406 99.3765 27.1771 99.4598 27.25C99.5432 27.3125 99.6421 27.4271 99.7567 27.5938C99.9026 27.8229 100.132 28.349 100.444 29.1719C100.757 29.9948 101.012 30.7656 101.21 31.4844C101.647 33.0052 101.949 34.2083 102.116 35.0938C102.116 35.1354 102.132 35.1927 102.163 35.2656C102.194 35.3385 102.241 35.375 102.304 35.375C102.491 35.375 102.679 35.2656 102.866 35.0469C103.064 34.8177 103.225 34.5156 103.35 34.1406C103.475 33.7656 103.538 33.375 103.538 32.9688C103.538 32.3854 103.418 31.776 103.179 31.1406C103.095 30.974 103.054 30.8438 103.054 30.75C103.054 30.6354 103.08 30.5312 103.132 30.4375C103.194 30.3333 103.236 30.2604 103.257 30.2188C104.028 29.0208 104.746 28.0885 105.413 27.4219C105.6 27.2344 105.757 27.1406 105.882 27.1406C106.142 27.1406 106.34 27.2656 106.475 27.5156C106.653 27.776 106.824 28.2708 106.991 29C107.158 29.7188 107.241 30.3021 107.241 30.75C107.241 31.1979 107.189 31.5625 107.085 31.8438C106.981 32.125 106.871 32.3646 106.757 32.5625C106.642 32.75 106.564 32.875 106.522 32.9375C106.241 33.4479 105.783 34.0573 105.147 34.7656C104.522 35.474 103.798 36.2083 102.975 36.9688C102.965 36.9792 102.913 37.026 102.819 37.1094C102.725 37.1823 102.679 37.2604 102.679 37.3438C102.679 37.4375 102.684 37.5104 102.694 37.5625C102.715 37.625 102.772 37.8646 102.866 38.2812C102.97 38.6979 103.074 38.9896 103.179 39.1562C103.304 39.3958 103.434 39.5625 103.569 39.6562C103.705 39.7396 103.939 39.7812 104.272 39.7812C104.752 39.7812 105.283 39.6823 105.866 39.4844C106.449 39.276 106.996 39.0312 107.507 38.75C108.017 38.4583 108.418 38.1927 108.71 37.9531C109.043 37.6823 109.298 37.4531 109.475 37.2656C109.663 37.0677 109.804 36.8438 109.897 36.5938C110.002 36.3438 110.054 36.0312 110.054 35.6562C110.054 35.0938 109.944 34.4427 109.725 33.7031C109.517 32.9635 109.278 32.1823 109.007 31.3594C108.903 31.1198 108.85 30.9375 108.85 30.8125C108.85 30.6979 108.882 30.6042 108.944 30.5312C109.246 30.0208 109.627 29.4688 110.085 28.875C110.543 28.2812 111.022 27.7656 111.522 27.3281C111.585 27.2865 111.663 27.2448 111.757 27.2031C111.85 27.1615 111.929 27.1406 111.991 27.1406C112.147 27.1406 112.272 27.1927 112.366 27.2969C112.46 27.3906 112.543 27.5156 112.616 27.6719C112.804 28.1094 112.986 28.7917 113.163 29.7188C113.35 30.6458 113.444 31.4219 113.444 32.0469C113.444 32.5573 113.403 33.0365 113.319 33.4844C113.236 33.9219 113.121 34.4167 112.975 34.9688L112.882 35.3438C112.621 36.3333 112.35 37.1562 112.069 37.8125C111.788 38.4688 111.559 38.9583 111.382 39.2812C111.215 39.5938 111.111 39.7865 111.069 39.8594C110.819 40.3281 110.47 40.8281 110.022 41.3594C109.574 41.8906 109.132 42.2865 108.694 42.5469C108.298 42.776 107.741 43.0469 107.022 43.3594C106.304 43.6719 105.574 43.9375 104.835 44.1562C104.095 44.3854 103.491 44.5 103.022 44.5C102.502 44.5 101.996 44.3073 101.507 43.9219C101.028 43.5365 100.689 42.9844 100.491 42.2656Z" fill="#0052B4"/>
</g>
<g style="mix-blend-mode:multiply">
<path d="M58.6992 10.7344C58.668 10.349 58.5169 9.98438 58.2461 9.64062C57.9857 9.29688 57.5586 9.125 56.9648 9.125H47.1523C46.6211 9.125 46.3555 8.96354 46.3555 8.64062C46.3555 8.55729 46.3867 8.42188 46.4492 8.23438C46.5221 8.04688 46.6055 7.84375 46.6992 7.625L46.918 7.09375C47.2096 6.45833 47.5586 5.8125 47.9648 5.15625C48.3711 4.5 48.7773 3.90104 49.1836 3.35938C49.2357 3.28646 49.3138 3.22917 49.418 3.1875C49.5326 3.13542 49.6523 3.10938 49.7773 3.10938C49.9961 3.10938 50.1471 3.22396 50.2305 3.45312C50.2617 3.53646 50.3034 3.68229 50.3555 3.89062C50.418 4.09896 50.5013 4.26042 50.6055 4.375C50.7096 4.48958 50.8451 4.54688 51.0117 4.54688H58.8242C59.7409 4.54688 60.4596 4.84375 60.9805 5.4375C61.5013 6.02083 61.819 6.77083 61.9336 7.6875C62.0378 8.44792 62.1159 9.63542 62.168 11.25C62.2305 12.8542 62.2617 14.6667 62.2617 16.6875C62.2617 16.8958 62.2357 17.0938 62.1836 17.2812C62.069 17.6667 61.7826 18.2188 61.3242 18.9375C60.8763 19.6562 60.4805 20.1615 60.1367 20.4531C59.918 20.6198 59.7513 20.7031 59.6367 20.7031C59.5221 20.7031 59.4284 20.6354 59.3555 20.5C59.2826 20.375 59.2461 20.1875 59.2461 19.9375C59.2148 18.3958 59.1471 16.7812 59.043 15.0938C58.9388 13.4062 58.8242 11.9531 58.6992 10.7344ZM48.543 14.5156C48.543 14.3594 48.5586 14.2344 48.5898 14.1406C48.6211 14.0365 48.6784 13.8906 48.7617 13.7031C48.9284 13.3698 49.1732 12.9531 49.4961 12.4531C49.819 11.9531 50.1159 11.5469 50.3867 11.2344C50.5951 11.0156 50.7565 10.8646 50.8711 10.7812C50.9857 10.6875 51.1003 10.6406 51.2148 10.6406C51.3398 10.6406 51.4232 10.6719 51.4648 10.7344C51.5169 10.7969 51.5482 10.8594 51.5586 10.9219C51.569 10.9844 51.5742 11.026 51.5742 11.0469C51.6471 11.3698 51.7409 12.2656 51.8555 13.7344C51.9701 15.2031 52.0273 16.1771 52.0273 16.6562C52.0273 16.8125 52.0169 16.9531 51.9961 17.0781C51.9753 17.1927 51.9284 17.3438 51.8555 17.5312C51.7096 17.9583 51.3867 18.5104 50.8867 19.1875C50.3971 19.8542 49.9909 20.3229 49.668 20.5938C49.5638 20.6667 49.4596 20.7031 49.3555 20.7031C49.2305 20.7031 49.1523 20.6615 49.1211 20.5781C49.0898 20.4948 49.069 20.375 49.0586 20.2188C48.9544 19.5729 48.8398 18.5677 48.7148 17.2031C48.6003 15.8385 48.543 14.9427 48.543 14.5156ZM66.6142 20.1875C66.6142 19.9479 66.9423 18.6562 67.5986 16.3125L67.7705 15.6875C67.9684 15.0208 68.1455 14.3073 68.3017 13.5469C68.4684 12.7865 68.5517 12.1823 68.5517 11.7344C68.5517 11.3802 68.4684 11 68.3017 10.5938C68.1767 10.2604 67.9423 9.82292 67.5986 9.28125C67.2548 8.72917 66.8903 8.21354 66.5048 7.73438C66.4944 7.71354 66.4684 7.68229 66.4267 7.64062C66.3851 7.58854 66.3538 7.54167 66.333 7.5C66.3226 7.45833 66.3173 7.41146 66.3173 7.35938C66.3173 7.25521 66.3538 7.13021 66.4267 6.98438C66.5934 6.65104 66.9215 6.11979 67.4111 5.39062C67.9111 4.66146 68.4215 3.96875 68.9423 3.3125C68.9944 3.25 69.0569 3.20312 69.1298 3.17188C69.2028 3.13021 69.2705 3.10938 69.333 3.10938C69.4476 3.10938 69.5778 3.19271 69.7236 3.35938C70.1194 3.83854 70.4788 4.375 70.8017 4.96875C71.1351 5.5625 71.3955 6.10417 71.583 6.59375C71.708 6.97917 71.833 7.44271 71.958 7.98438C72.083 8.52604 72.1455 8.82812 72.1455 8.89062C72.1455 8.90104 72.1507 8.91146 72.1611 8.92188C72.1715 8.93229 72.1819 8.9375 72.1923 8.9375C72.2548 8.9375 72.3017 8.90104 72.333 8.82812L72.4892 8.48438C72.8538 7.69271 73.1923 7.01042 73.5048 6.4375C73.8173 5.85417 74.1455 5.39062 74.4892 5.04688C74.9163 4.63021 75.3538 4.32812 75.8017 4.14062C76.2601 3.94271 76.7705 3.84375 77.333 3.84375C78.0621 3.84375 78.7653 4.04167 79.4423 4.4375C80.1298 4.82292 80.734 5.39062 81.2548 6.14062C82.3486 7.63021 82.8955 9.83333 82.8955 12.75C82.8955 13.7083 82.859 14.5 82.7861 15.125C82.7236 15.7708 82.5309 16.5208 82.208 17.375C81.8955 18.2292 81.5621 18.9427 81.208 19.5156C81.0934 19.7135 80.9684 19.8438 80.833 19.9062C80.6976 19.9688 80.5153 20 80.2861 20H72.3017C72.1246 20 71.984 19.9688 71.8798 19.9062C71.7861 19.8438 71.7392 19.724 71.7392 19.5469C71.7496 19.4844 71.7809 19.3854 71.833 19.25C71.8851 19.1042 71.9476 18.9531 72.0205 18.7969C72.2705 18.2448 72.5778 17.6458 72.9423 17C73.3069 16.3438 73.6038 15.8646 73.833 15.5625C73.9371 15.4583 74.0257 15.3906 74.0986 15.3594C74.1715 15.3177 74.2965 15.2969 74.4736 15.2969H79.1455C79.4371 15.2969 79.583 15.1927 79.583 14.9844C79.583 14.5677 79.5569 14.1823 79.5048 13.8281C79.4528 13.474 79.3694 12.974 79.2548 12.3281C79.1611 11.8906 79.0153 11.4323 78.8173 10.9531C78.6298 10.474 78.4111 10.0729 78.1611 9.75C77.859 9.39583 77.4736 9.11458 77.0048 8.90625C76.5361 8.69792 76.0569 8.59375 75.5673 8.59375C74.7965 8.59375 74.1611 8.80208 73.6611 9.21875C73.1611 9.63542 72.6923 10.2604 72.2548 11.0938C71.6819 12.2188 71.1559 13.5833 70.6767 15.1875C70.6559 15.2604 70.6142 15.401 70.5517 15.6094C70.4996 15.8073 70.4215 16.0104 70.3173 16.2188C70.0778 16.7083 69.6559 17.3594 69.0517 18.1719C68.458 18.974 67.8955 19.6406 67.3642 20.1719C67.1767 20.3594 66.9996 20.4531 66.833 20.4531C66.7705 20.4531 66.7184 20.4271 66.6767 20.375C66.6351 20.3229 66.6142 20.2604 66.6142 20.1875Z" fill="#0052B4"/>
</g>
<g style="mix-blend-mode:multiply">
<path d="M20.6716 82.9531C20.6716 82.6198 20.7341 82.25 20.8591 81.8438C20.9841 81.4375 21.1456 81.0521 21.3435 80.6875C21.3748 80.625 21.4685 80.4583 21.6248 80.1875C21.781 79.9167 21.906 79.625 21.9998 79.3125C22.1039 79 22.156 78.7031 22.156 78.4219C22.156 77.8281 21.8591 77.3594 21.2654 77.0156C20.682 76.6615 19.9789 76.3542 19.156 76.0938L18.7341 75.9531C18.63 75.8906 18.5779 75.8073 18.5779 75.7031C18.5779 75.526 18.6195 75.3646 18.7029 75.2188C19.1404 74.5312 19.5518 73.9323 19.9373 73.4219C20.3331 72.901 20.8123 72.4115 21.3748 71.9531C21.5831 71.7865 21.7602 71.7031 21.906 71.7031C21.9998 71.7031 22.1352 71.7292 22.3123 71.7812C22.9477 71.9375 23.5779 72.1979 24.2029 72.5625C24.8279 72.9167 25.3487 73.3698 25.7654 73.9219C26.1925 74.474 26.406 75.1042 26.406 75.8125C26.406 76.4167 26.2914 76.9479 26.0623 77.4062C25.8331 77.8646 25.557 78.3021 25.2341 78.7188C24.807 79.2708 24.4737 79.7552 24.2341 80.1719C24.005 80.5885 23.8904 80.9479 23.8904 81.25C23.8904 81.4167 23.932 81.5677 24.0154 81.7031C24.1091 81.8281 24.2445 81.974 24.4216 82.1406C24.4425 82.1615 24.4789 82.1979 24.531 82.25C24.5831 82.3021 24.6195 82.3542 24.6404 82.4062C24.6612 82.4583 24.6716 82.5208 24.6716 82.5938C24.6716 82.6562 24.6508 82.7188 24.6091 82.7812C24.5675 82.8438 24.5414 82.8906 24.531 82.9219C24.3956 83.1823 24.1456 83.5312 23.781 83.9688C23.4268 84.4062 23.1456 84.724 22.9373 84.9219C22.906 84.9427 22.8539 84.9792 22.781 85.0312C22.7185 85.0833 22.6612 85.125 22.6091 85.1562C22.557 85.1771 22.4998 85.1875 22.4373 85.1875C22.3331 85.1875 22.2289 85.1667 22.1248 85.125C22.0206 85.0833 21.9477 85.0417 21.906 85C21.0831 84.3125 20.6716 83.6302 20.6716 82.9531ZM20.0154 89.8906C19.9112 89.7448 19.8591 89.6094 19.8591 89.4844C19.8591 89.2969 19.9216 89.1302 20.0466 88.9844C20.255 88.7344 20.6248 88.3177 21.156 87.7344C21.6873 87.151 22.0362 86.7812 22.2029 86.625C22.3904 86.4375 22.5727 86.3438 22.7498 86.3438C22.8227 86.3438 22.8904 86.3698 22.9529 86.4219C23.0154 86.4635 23.0883 86.5208 23.1716 86.5938C23.557 86.9896 23.9737 87.3698 24.4216 87.7344C24.8695 88.0885 25.307 88.3958 25.7341 88.6562C25.9425 88.7708 26.0466 88.9427 26.0466 89.1719C26.0466 89.2448 26.0258 89.3385 25.9841 89.4531C25.9425 89.5677 25.8956 89.651 25.8435 89.7031C25.1873 90.6719 24.4893 91.5104 23.7498 92.2188C23.6143 92.375 23.4633 92.4531 23.2966 92.4531C23.1195 92.4531 22.9789 92.4167 22.8748 92.3438C22.3227 92.0521 21.8018 91.6927 21.3123 91.2656C20.8227 90.8385 20.3904 90.3802 20.0154 89.8906Z" fill="#0052B4"/>
</g>
<rect x="23.4409" y="3.00391" width="8" height="92" transform="rotate(-8 23.4409 3.00391)" fill="#0052B4"/>
<rect x="2.21558" y="2" width="8" height="92" fill="#0052B4"/>
</svg>
