<svg width="56" height="56" viewBox="0 0 56 56" fill="none" xmlns="http://www.w3.org/2000/svg">
<rect x="1" y="1" width="54" height="54" rx="27" fill="#6BC879"/>
<path d="M18.004 38L19.356 33.032C18.4652 31.5049 17.9971 29.768 18 28C18 22.477 22.477 18 28 18C33.523 18 38 22.477 38 28C38 33.523 33.523 38 28 38C26.2328 38.0029 24.4967 37.5352 22.97 36.645L18.004 38ZM24.391 23.308C24.2619 23.316 24.1357 23.35 24.02 23.408C23.9115 23.4694 23.8125 23.5462 23.726 23.636C23.606 23.749 23.538 23.847 23.465 23.942C23.0954 24.423 22.8966 25.0134 22.9 25.62C22.902 26.11 23.03 26.587 23.23 27.033C23.639 27.935 24.312 28.89 25.201 29.775C25.415 29.988 25.624 30.202 25.849 30.401C26.9524 31.3725 28.2673 32.073 29.689 32.447L30.258 32.534C30.443 32.544 30.628 32.53 30.814 32.521C31.1053 32.506 31.3896 32.4271 31.647 32.29C31.778 32.2225 31.9058 32.1491 32.03 32.07C32.03 32.07 32.073 32.042 32.155 31.98C32.29 31.88 32.373 31.809 32.485 31.692C32.568 31.606 32.64 31.505 32.695 31.39C32.773 31.227 32.851 30.916 32.883 30.657C32.907 30.459 32.9 30.351 32.897 30.284C32.893 30.177 32.804 30.066 32.707 30.019L32.125 29.758C32.125 29.758 31.255 29.379 30.724 29.137C30.668 29.1126 30.608 29.0987 30.547 29.096C30.4786 29.089 30.4095 29.0967 30.3443 29.1186C30.2791 29.1405 30.2193 29.1761 30.169 29.223V29.221C30.164 29.221 30.097 29.278 29.374 30.154C29.3325 30.2098 29.2754 30.2519 29.2098 30.2751C29.1443 30.2982 29.0733 30.3013 29.006 30.284C28.9409 30.2666 28.877 30.2445 28.815 30.218C28.691 30.166 28.648 30.146 28.563 30.109L28.558 30.107C27.9859 29.8572 27.4562 29.5198 26.988 29.107C26.862 28.997 26.745 28.877 26.625 28.761C26.2316 28.3842 25.8887 27.958 25.605 27.493L25.546 27.398C25.5036 27.3342 25.4694 27.2653 25.444 27.193C25.406 27.046 25.505 26.928 25.505 26.928C25.505 26.928 25.748 26.662 25.861 26.518C25.9551 26.3983 26.0429 26.2738 26.124 26.145C26.242 25.955 26.279 25.76 26.217 25.609C25.937 24.925 25.647 24.244 25.349 23.568C25.29 23.434 25.115 23.338 24.956 23.319C24.902 23.313 24.848 23.307 24.794 23.303C24.6597 23.2963 24.5251 23.2987 24.391 23.308Z" fill="white"/>
<rect x="1" y="1" width="54" height="54" rx="27" stroke="#6BC879" stroke-width="2"/>
</svg>
