<svg width="80" height="50" viewBox="0 0 80 50" fill="none" xmlns="http://www.w3.org/2000/svg">
<g style="mix-blend-mode:multiply">
<path d="M5.99934 9.98975C5.89387 9.35107 5.63605 8.84424 5.2259 8.46924C4.8216 8.08838 4.30305 7.89795 3.67023 7.89795H1.31477C1.22102 7.89795 1.14191 7.87744 1.07746 7.83643C1.01301 7.79541 0.980782 7.74268 0.980782 7.67822C0.980782 7.479 1.06574 7.17432 1.23566 6.76416C1.41145 6.354 1.62238 5.94092 1.86848 5.5249C2.11457 5.10889 2.34016 4.79834 2.54523 4.59326C2.58625 4.54639 2.62434 4.5083 2.65949 4.479C2.69465 4.44385 2.73273 4.42627 2.77375 4.42627C2.8382 4.42627 2.88801 4.44092 2.92316 4.47021C2.95832 4.49365 2.98176 4.5376 2.99348 4.60205C3.03449 4.81299 3.09016 4.97119 3.16047 5.07666C3.23664 5.18213 3.3216 5.23486 3.41535 5.23486H5.12043C5.67121 5.23486 6.1634 5.38428 6.59699 5.68311C7.03645 5.97607 7.34992 6.354 7.53742 6.81689C7.70734 7.27393 7.82746 7.88916 7.89777 8.6626C7.96809 9.43604 8.00324 10.0981 8.00324 10.6489C8.00324 11.3052 7.98273 11.73 7.94172 11.9233C7.86555 12.2104 7.71906 12.5562 7.50227 12.9604C7.29133 13.3589 7.05695 13.7515 6.79914 14.1382C6.73469 14.2144 6.68195 14.2642 6.64094 14.2876C6.60578 14.3169 6.56184 14.3315 6.5091 14.3315C6.35676 14.3315 6.2718 14.1499 6.25422 13.7866C6.2425 13.5757 6.23078 13.2651 6.21906 12.855C6.19563 12.1812 6.16926 11.6304 6.13996 11.2026C6.11066 10.769 6.06379 10.3647 5.99934 9.98975ZM12.016 12.9517C11.8695 12.4126 11.7259 11.9204 11.5853 11.4751C11.4505 11.0298 11.2718 10.4878 11.0492 9.84912C10.6859 8.80615 10.2875 7.88623 9.85387 7.08936C9.73668 6.87842 9.67809 6.71729 9.67809 6.60596C9.67809 6.53564 9.71031 6.43018 9.77477 6.28955C9.89781 6.05518 10.0853 5.76514 10.3373 5.41943C10.5892 5.06787 10.8119 4.79541 11.0052 4.60205C11.017 4.59033 11.0375 4.56982 11.0668 4.54053C11.0961 4.50537 11.1254 4.48193 11.1546 4.47021C11.1839 4.45264 11.2191 4.44385 11.2601 4.44385C11.3304 4.44385 11.389 4.46436 11.4359 4.50537C11.4828 4.54053 11.5384 4.60498 11.6029 4.69873C11.6849 4.82764 11.8138 5.12354 11.9896 5.58643C12.1654 6.04932 12.3089 6.48291 12.4203 6.88721C12.6664 7.74268 12.8363 8.41943 12.93 8.91748C12.93 8.94092 12.9388 8.97314 12.9564 9.01416C12.974 9.05518 13.0004 9.07568 13.0355 9.07568C13.141 9.07568 13.2464 9.01416 13.3519 8.89111C13.4632 8.76221 13.5541 8.59229 13.6244 8.38135C13.6947 8.17041 13.7298 7.95068 13.7298 7.72217C13.7298 7.39404 13.6625 7.05127 13.5277 6.69385C13.4808 6.6001 13.4574 6.52686 13.4574 6.47412C13.4574 6.40967 13.472 6.35107 13.5013 6.29834C13.5365 6.23975 13.5599 6.19873 13.5716 6.17529C14.0052 5.50146 14.4095 4.97705 14.7845 4.60205C14.89 4.49658 14.9779 4.44385 15.0482 4.44385C15.1947 4.44385 15.306 4.51416 15.3822 4.65479C15.4818 4.80127 15.5785 5.07959 15.6722 5.48975C15.766 5.89404 15.8129 6.22217 15.8129 6.47412C15.8129 6.72607 15.7836 6.93115 15.725 7.08936C15.6664 7.24756 15.6048 7.38232 15.5404 7.49365C15.4759 7.59912 15.432 7.66943 15.4086 7.70459C15.2504 7.9917 14.9925 8.33447 14.6351 8.73291C14.2836 9.13135 13.8763 9.54443 13.4134 9.97217C13.4076 9.97803 13.3783 10.0044 13.3255 10.0513C13.2728 10.0923 13.2464 10.1362 13.2464 10.1831C13.2464 10.2358 13.2494 10.2769 13.2552 10.3062C13.267 10.3413 13.2992 10.4761 13.3519 10.7104C13.4105 10.9448 13.4691 11.1089 13.5277 11.2026C13.598 11.3374 13.6713 11.4312 13.7474 11.4839C13.8236 11.5308 13.9554 11.5542 14.1429 11.5542C14.4125 11.5542 14.7113 11.4985 15.0394 11.3872C15.3675 11.27 15.6752 11.1323 15.9623 10.9741C16.2494 10.8101 16.475 10.6606 16.639 10.5259C16.8265 10.3735 16.9701 10.2446 17.0697 10.1392C17.1752 10.0278 17.2543 9.90186 17.307 9.76123C17.3656 9.62061 17.3949 9.44482 17.3949 9.23389C17.3949 8.91748 17.3334 8.55127 17.2103 8.13525C17.0931 7.71924 16.9584 7.27979 16.806 6.81689C16.7474 6.68213 16.7181 6.57959 16.7181 6.50928C16.7181 6.44482 16.7357 6.39209 16.7709 6.35107C16.9408 6.06396 17.1546 5.75342 17.4125 5.41943C17.6703 5.08545 17.9398 4.79541 18.2211 4.54932C18.2562 4.52588 18.3002 4.50244 18.3529 4.479C18.4056 4.45557 18.4496 4.44385 18.4847 4.44385C18.5726 4.44385 18.6429 4.47314 18.6957 4.53174C18.7484 4.58447 18.7953 4.65479 18.8363 4.74268C18.9418 4.98877 19.0443 5.37256 19.1439 5.89404C19.2494 6.41553 19.3021 6.85205 19.3021 7.20361C19.3021 7.49072 19.2787 7.76025 19.2318 8.01221C19.1849 8.2583 19.1205 8.53662 19.0384 8.84717L18.9857 9.05811C18.8392 9.61475 18.6869 10.0776 18.5287 10.4468C18.3705 10.8159 18.2416 11.0913 18.142 11.2729C18.0482 11.4487 17.9896 11.5571 17.9662 11.5981C17.8255 11.8618 17.6293 12.1431 17.3773 12.4419C17.1254 12.7407 16.8763 12.9634 16.6302 13.1099C16.4076 13.2388 16.0941 13.3911 15.6898 13.5669C15.2855 13.7427 14.8754 13.8921 14.4593 14.0151C14.0433 14.144 13.7035 14.2085 13.4398 14.2085C13.1468 14.2085 12.8627 14.1001 12.5873 13.8833C12.3177 13.6665 12.1273 13.356 12.016 12.9517ZM22.1547 11.6421C22.2484 11.4546 22.3686 11.229 22.515 10.9653C22.7143 10.6196 22.8695 10.3296 22.9809 10.0952C23.0922 9.86084 23.1479 9.67041 23.1479 9.52393C23.1479 9.04346 23.016 8.66846 22.7523 8.39893C22.5824 8.22314 22.3979 8.05615 22.1986 7.89795C21.9994 7.73975 21.7563 7.55811 21.4691 7.35303C21.434 7.32373 21.3373 7.25342 21.1791 7.14209C21.0268 7.03076 20.9096 6.93408 20.8275 6.85205C20.7455 6.75244 20.7045 6.67627 20.7045 6.62354C20.7045 6.56494 20.7367 6.47998 20.8012 6.36865C20.9066 6.15771 21.1176 5.85303 21.434 5.45459C21.7504 5.05615 21.9994 4.77197 22.1811 4.60205C22.2572 4.5376 22.3158 4.49658 22.3568 4.479C22.3979 4.45557 22.4359 4.44385 22.4711 4.44385C22.5121 4.44385 22.5619 4.4585 22.6205 4.48779C22.9604 4.68701 23.3764 4.99463 23.8686 5.41064C24.3666 5.8208 24.7299 6.18115 24.9584 6.4917C25.1225 6.71436 25.2514 6.93994 25.3451 7.16846C25.4389 7.39111 25.4857 7.64014 25.4857 7.91553C25.4857 8.26123 25.4096 8.62744 25.2572 9.01416C25.1049 9.39502 24.935 9.729 24.7475 10.0161C24.5131 10.397 24.1908 10.7427 23.7807 11.0532C23.3764 11.3638 22.9486 11.6069 22.4975 11.7827C22.392 11.8296 22.3188 11.853 22.2777 11.853C22.184 11.853 22.1371 11.8091 22.1371 11.7212C22.1371 11.6919 22.143 11.6655 22.1547 11.6421ZM33.4448 8.71533C33.4272 8.49854 33.3422 8.29346 33.1899 8.1001C33.0434 7.90674 32.8032 7.81006 32.4692 7.81006H26.9496C26.6508 7.81006 26.5014 7.71924 26.5014 7.5376C26.5014 7.49072 26.519 7.41455 26.5541 7.30908C26.5952 7.20361 26.642 7.08936 26.6948 6.96631L26.8178 6.66748C26.9819 6.31006 27.1782 5.94678 27.4067 5.57764C27.6352 5.2085 27.8637 4.87158 28.0922 4.56689C28.1215 4.52588 28.1655 4.49365 28.2241 4.47021C28.2885 4.44092 28.3559 4.42627 28.4262 4.42627C28.5493 4.42627 28.6342 4.49072 28.6811 4.61963C28.6987 4.6665 28.7221 4.74854 28.7514 4.86572C28.7866 4.98291 28.8334 5.07373 28.892 5.13818C28.9506 5.20264 29.0268 5.23486 29.1205 5.23486H33.5151C34.0307 5.23486 34.435 5.40186 34.728 5.73584C35.0209 6.06396 35.1996 6.48584 35.2641 7.00146C35.3227 7.4292 35.3666 8.09717 35.3959 9.00537C35.4311 9.90771 35.4487 10.9272 35.4487 12.064C35.4487 12.1812 35.434 12.2925 35.4047 12.3979C35.3403 12.6147 35.1791 12.9253 34.9213 13.3296C34.6694 13.7339 34.4467 14.0181 34.2534 14.1821C34.1303 14.2759 34.0366 14.3228 33.9721 14.3228C33.9077 14.3228 33.8549 14.2847 33.8139 14.2085C33.7729 14.1382 33.7524 14.0327 33.7524 13.8921C33.7348 13.0249 33.6967 12.1167 33.6381 11.1675C33.5795 10.2183 33.5151 9.40088 33.4448 8.71533ZM27.7319 10.8423C27.7319 10.7544 27.7407 10.6841 27.7582 10.6313C27.7758 10.5728 27.808 10.4907 27.8549 10.3853C27.9487 10.1978 28.0864 9.96338 28.268 9.68213C28.4496 9.40088 28.6166 9.17236 28.769 8.99658C28.8862 8.87354 28.977 8.78857 29.0414 8.7417C29.1059 8.68896 29.1704 8.6626 29.2348 8.6626C29.3051 8.6626 29.352 8.68018 29.3754 8.71533C29.4047 8.75049 29.4223 8.78564 29.4282 8.8208C29.434 8.85596 29.437 8.87939 29.437 8.89111C29.478 9.07275 29.5307 9.57666 29.5952 10.4028C29.6596 11.229 29.6918 11.7769 29.6918 12.0464C29.6918 12.1343 29.686 12.2134 29.6743 12.2837C29.6625 12.3481 29.6362 12.4331 29.5952 12.5386C29.5131 12.7788 29.3315 13.0894 29.0502 13.4702C28.7748 13.8452 28.5463 14.1089 28.3647 14.2612C28.3061 14.3022 28.2475 14.3228 28.1889 14.3228C28.1186 14.3228 28.0746 14.2993 28.0571 14.2524C28.0395 14.2056 28.0278 14.1382 28.0219 14.0503C27.9633 13.687 27.8989 13.1216 27.8286 12.354C27.7641 11.5864 27.7319 11.0825 27.7319 10.8423ZM43.2808 14.3228C43.1987 14.3228 43.1343 14.2729 43.0874 14.1733C43.0464 14.0796 43.02 13.9624 43.0083 13.8218C42.9849 13.189 42.9234 12.3423 42.8237 11.2817C42.7241 10.2153 42.6392 9.46826 42.5689 9.04053C42.5454 8.86475 42.4693 8.65967 42.3404 8.42529C42.2173 8.18506 42.065 7.98584 41.8833 7.82764C41.5552 7.54053 41.2212 7.28564 40.8814 7.06299L40.7144 6.93994C40.6382 6.87549 40.6001 6.80518 40.6001 6.729C40.6001 6.67041 40.6206 6.6001 40.6616 6.51807C41.2007 5.57471 41.6987 4.90381 42.1558 4.50537C42.2202 4.46436 42.2847 4.44385 42.3491 4.44385C42.3843 4.44385 42.437 4.4585 42.5073 4.48779C42.7066 4.59912 42.979 4.84229 43.3247 5.21729C43.6704 5.59229 43.9077 5.88525 44.0366 6.09619C44.1773 6.32471 44.3003 6.57666 44.4058 6.85205C44.5112 7.12158 44.5816 7.50537 44.6167 8.00342C44.6812 8.67139 44.7134 9.52393 44.7134 10.561C44.7134 11.1704 44.7075 11.5952 44.6958 11.8354C44.6958 11.8823 44.6929 11.9556 44.687 12.0552C44.6812 12.1548 44.6665 12.2485 44.6431 12.3364C44.6255 12.4243 44.5962 12.5181 44.5552 12.6177C44.4673 12.8345 44.3179 13.1011 44.107 13.4175C43.9019 13.728 43.7202 13.9771 43.562 14.1646C43.4683 14.27 43.3745 14.3228 43.2808 14.3228ZM47.1793 11.563C47.2261 11.4985 47.2906 11.4399 47.3726 11.3872C47.4546 11.3286 47.5484 11.2993 47.6539 11.2993H50.6949C50.8238 11.2993 50.8882 11.2612 50.8882 11.1851C50.8882 11.1616 50.8765 11.1353 50.8531 11.106C50.8296 11.0708 50.8033 11.0386 50.774 11.0093C50.5513 10.8159 50.1763 10.5229 49.649 10.1304C48.9927 9.63818 48.4595 9.22217 48.0494 8.88232C47.6392 8.54248 47.2818 8.18506 46.9771 7.81006C46.813 7.61084 46.6578 7.39111 46.5113 7.15088C46.3707 6.90479 46.3004 6.73779 46.3004 6.6499C46.3004 6.53857 46.3912 6.34229 46.5728 6.06104C46.7545 5.77979 46.9625 5.48975 47.1968 5.19092C47.4312 4.89209 47.6099 4.67822 47.733 4.54932C47.7447 4.5376 47.7652 4.51416 47.7945 4.479C47.8296 4.44385 47.8707 4.42627 47.9175 4.42627C48.023 4.42627 48.1021 4.51123 48.1548 4.68115C48.2662 5.06201 48.4273 5.40771 48.6382 5.71826C48.8492 6.02881 49.1304 6.35986 49.482 6.71143C49.7574 6.99268 50.0709 7.29443 50.4224 7.6167C50.7798 7.93311 51.1168 8.2085 51.4332 8.44287C51.4449 8.45459 51.4595 8.46045 51.4771 8.46045C51.5064 8.46045 51.5298 8.44873 51.5474 8.42529C51.5709 8.396 51.5826 8.36084 51.5826 8.31982C51.5826 8.2085 51.5679 8.06494 51.5386 7.88916C51.5093 7.70752 51.4654 7.52588 51.4068 7.34424C51.3482 7.1626 51.2867 7.01611 51.2222 6.90479C51.1636 6.7876 51.1343 6.70264 51.1343 6.6499C51.1343 6.61475 51.1402 6.58545 51.1519 6.56201C51.1636 6.53271 51.1783 6.50635 51.1959 6.48291C51.2134 6.45947 51.2252 6.44189 51.231 6.43018C51.4068 6.13721 51.6412 5.79736 51.9341 5.41064C52.233 5.01807 52.4498 4.74854 52.5845 4.60205C52.6373 4.54932 52.6841 4.5083 52.7252 4.479C52.7662 4.44385 52.8013 4.42627 52.8306 4.42627C52.8892 4.42627 52.942 4.45264 52.9888 4.50537C53.0416 4.55811 53.0738 4.59033 53.0855 4.60205C53.1382 4.66064 53.2027 4.77197 53.2789 4.93604C53.3609 5.1001 53.4312 5.29932 53.4898 5.53369C53.5484 5.76807 53.5777 6.01416 53.5777 6.27197C53.5777 6.77588 53.5045 7.21826 53.358 7.59912C53.2173 7.97412 52.9654 8.45459 52.6021 9.04053C52.5787 9.08154 52.5494 9.12256 52.5142 9.16357C52.4849 9.20459 52.4703 9.24854 52.4703 9.29541C52.4703 9.31885 52.4791 9.34521 52.4966 9.37451C52.5142 9.39795 52.5377 9.42725 52.567 9.4624C52.5962 9.4917 52.6285 9.52686 52.6636 9.56787C52.8746 9.77881 53.0855 10.0308 53.2964 10.3237C53.5132 10.6167 53.6216 10.8423 53.6216 11.0005C53.6216 11.1235 53.5718 11.3433 53.4722 11.6597C53.3726 11.9761 53.2408 12.3247 53.0767 12.7056C52.9127 13.0806 52.7398 13.4233 52.5582 13.7339C52.5054 13.8101 52.441 13.8628 52.3648 13.8921C52.2886 13.9155 52.189 13.9272 52.066 13.9272H46.6168C46.3941 13.9272 46.2828 13.8569 46.2828 13.7163C46.2828 13.5757 46.3941 13.2417 46.6168 12.7144C46.8453 12.1812 47.0328 11.7974 47.1793 11.563ZM55.4459 11.5366C55.4986 11.4546 55.5543 11.3931 55.6129 11.3521C55.6773 11.3052 55.7594 11.2817 55.859 11.2817H59.5855C59.8082 11.2817 59.9195 11.1558 59.9195 10.9038C59.9195 10.6753 59.8902 10.3413 59.8316 9.90186C59.7789 9.4624 59.7086 9.09033 59.6207 8.78564C59.5387 8.55713 59.3951 8.32861 59.19 8.1001C59.0201 7.90674 58.8004 7.72803 58.5309 7.56396C58.2613 7.3999 57.9977 7.271 57.7398 7.17725C57.482 7.07764 57.2945 7.02783 57.1773 7.02783C57.0953 7.02783 57.0309 7.07764 56.984 7.17725C56.943 7.271 56.9225 7.37646 56.9225 7.49365C56.9225 7.63428 56.9811 7.79248 57.0982 7.96826C57.2213 8.13818 57.3824 8.27002 57.5816 8.36377C57.6813 8.39893 57.7574 8.4458 57.8102 8.50439C57.8629 8.55713 57.8893 8.60986 57.8893 8.6626C57.8893 8.69189 57.8805 8.72412 57.8629 8.75928C57.8453 8.79443 57.8336 8.8208 57.8277 8.83838C57.7398 9.02002 57.5875 9.28076 57.3707 9.62061C57.1598 9.96045 57.0045 10.189 56.9049 10.3062C56.8697 10.3472 56.8258 10.3823 56.773 10.4116C56.7203 10.4351 56.6705 10.4468 56.6236 10.4468C56.5768 10.4468 56.4801 10.3999 56.3336 10.3062C56.0875 10.1362 55.8766 9.9751 55.7008 9.82275C55.5309 9.66455 55.3756 9.4624 55.235 9.21631C55.0943 8.97021 55.024 8.69189 55.024 8.38135C55.024 7.94775 55.1646 7.45557 55.4459 6.90479C55.6451 6.52393 55.9586 6.0874 56.3863 5.59521C56.8199 5.09717 57.1832 4.75439 57.4762 4.56689C57.482 4.56104 57.5113 4.54053 57.5641 4.50537C57.6227 4.46436 57.6988 4.44385 57.7926 4.44385C57.9156 4.44385 58.1529 4.51416 58.5045 4.65479C58.8561 4.79541 59.2193 4.97119 59.5943 5.18213C59.9693 5.38721 60.2623 5.5835 60.4732 5.771C60.6432 5.92334 60.7896 6.07568 60.9127 6.22803C61.0416 6.37451 61.1617 6.57959 61.273 6.84326C61.3844 7.10107 61.4664 7.42041 61.5191 7.80127C61.6305 8.53369 61.6861 9.37744 61.6861 10.3325C61.6861 10.7485 61.6217 11.1704 61.4928 11.5981C61.3814 11.9497 61.2408 12.3364 61.0709 12.7583C60.9068 13.1802 60.7428 13.5112 60.5787 13.7515C60.5377 13.8159 60.4908 13.8628 60.4381 13.8921C60.3912 13.9155 60.3268 13.9272 60.2447 13.9272H54.8131C54.6139 13.9272 54.5143 13.8569 54.5143 13.7163C54.5143 13.5171 54.6227 13.1743 54.8395 12.688C55.0563 12.2017 55.2584 11.8179 55.4459 11.5366ZM64.5123 11.6421C64.6061 11.4546 64.7262 11.229 64.8727 10.9653C65.0719 10.6196 65.2272 10.3296 65.3385 10.0952C65.4498 9.86084 65.5055 9.67041 65.5055 9.52393C65.5055 9.04346 65.3737 8.66846 65.11 8.39893C64.9401 8.22314 64.7555 8.05615 64.5563 7.89795C64.3571 7.73975 64.1139 7.55811 63.8268 7.35303C63.7916 7.32373 63.695 7.25342 63.5368 7.14209C63.3844 7.03076 63.2672 6.93408 63.1852 6.85205C63.1032 6.75244 63.0621 6.67627 63.0621 6.62354C63.0621 6.56494 63.0944 6.47998 63.1588 6.36865C63.2643 6.15771 63.4752 5.85303 63.7916 5.45459C64.108 5.05615 64.3571 4.77197 64.5387 4.60205C64.6149 4.5376 64.6735 4.49658 64.7145 4.479C64.7555 4.45557 64.7936 4.44385 64.8288 4.44385C64.8698 4.44385 64.9196 4.4585 64.9782 4.48779C65.318 4.68701 65.734 4.99463 66.2262 5.41064C66.7243 5.8208 67.0875 6.18115 67.3161 6.4917C67.4801 6.71436 67.609 6.93994 67.7028 7.16846C67.7965 7.39111 67.8434 7.64014 67.8434 7.91553C67.8434 8.26123 67.7672 8.62744 67.6149 9.01416C67.4625 9.39502 67.2926 9.729 67.1051 10.0161C66.8707 10.397 66.5485 10.7427 66.1383 11.0532C65.734 11.3638 65.3063 11.6069 64.8551 11.7827C64.7496 11.8296 64.6764 11.853 64.6354 11.853C64.5416 11.853 64.4948 11.8091 64.4948 11.7212C64.4948 11.6919 64.5006 11.6655 64.5123 11.6421ZM70.3268 8.4165C70.3151 8.27588 70.2595 8.16162 70.1598 8.07373C70.0661 7.98584 69.9548 7.94189 69.8259 7.94189C69.6266 7.94189 69.4304 7.90967 69.237 7.84521C69.1901 7.82764 69.1491 7.79541 69.1139 7.74854C69.0846 7.6958 69.07 7.65186 69.07 7.6167C69.07 7.49365 69.1843 7.21826 69.4128 6.79053C69.6471 6.35693 69.9137 5.91455 70.2126 5.46338C70.5114 5.01221 70.7487 4.69873 70.9245 4.52295C70.9948 4.45264 71.0827 4.41748 71.1882 4.41748C71.3405 4.41748 71.4372 4.49072 71.4782 4.63721C71.5368 4.86572 71.5983 5.021 71.6628 5.10303C71.7272 5.1792 71.818 5.21729 71.9352 5.21729H77.4284C77.9382 5.21729 78.2839 5.40186 78.4655 5.771C78.6471 6.13428 78.738 6.60596 78.738 7.18604C78.738 7.479 78.694 7.80713 78.6061 8.17041C78.5182 8.53369 78.4245 8.84131 78.3249 9.09326C78.2136 9.39795 78.0436 9.80518 77.8151 10.3149C77.5866 10.8188 77.3874 11.2261 77.2175 11.5366C76.7956 12.2163 76.3884 12.6968 75.9958 12.978C75.779 13.1304 75.4772 13.312 75.0905 13.5229C74.7038 13.7339 74.3259 13.9126 73.9567 14.0591C73.5934 14.2114 73.3268 14.2876 73.1569 14.2876C73.0925 14.2876 73.0368 14.27 72.9899 14.2349C72.9489 14.2056 72.9284 14.1616 72.9284 14.103C72.9284 13.9741 72.9958 13.6548 73.1305 13.145C73.2712 12.6294 73.403 12.2222 73.5261 11.9233C73.5788 11.7944 73.6345 11.7036 73.693 11.6509C73.7575 11.5923 73.8483 11.5425 73.9655 11.5015C74.8444 11.1909 75.5007 10.8716 75.9343 10.5435C76.069 10.4438 76.1628 10.3354 76.2155 10.2183C76.2682 10.0952 76.321 9.92529 76.3737 9.7085C76.4147 9.521 76.4411 9.35107 76.4528 9.19873C76.4645 9.04053 76.4704 8.84131 76.4704 8.60107C76.4704 8.3374 76.4177 8.15283 76.3122 8.04736C76.2067 7.93604 76.0221 7.88037 75.7585 7.88037H72.8493C72.5563 7.88037 72.4098 8.05322 72.4098 8.39893V14.1382C72.4098 14.8882 72.3835 15.354 72.3307 15.5356C72.2839 15.6704 72.2341 15.7847 72.1813 15.8784C72.1345 15.978 72.1052 16.0425 72.0934 16.0718C71.9294 16.353 71.7887 16.5815 71.6716 16.7573C71.5602 16.939 71.4284 17.1235 71.2761 17.311C71.1999 17.3989 71.1384 17.4575 71.0915 17.4868C71.0505 17.5161 71.0007 17.5308 70.9421 17.5308C70.8132 17.5308 70.7399 17.3901 70.7223 17.1089L70.6432 15.1841C70.5202 11.9673 70.4147 9.71143 70.3268 8.4165ZM16.2396 27.4224C16.2396 27.0591 16.2191 26.4907 16.1781 25.7173C16.1371 24.938 16.099 24.4575 16.0639 24.2759C16.0521 24.1821 16.0199 24.106 15.9672 24.0474C15.9145 23.9888 15.8324 23.9448 15.7211 23.9155C15.6742 23.9097 15.598 23.9038 15.4926 23.8979C15.393 23.8862 15.3168 23.8745 15.2641 23.8628C15.2172 23.8511 15.1762 23.8247 15.141 23.7837C15.1059 23.7368 15.0883 23.6841 15.0883 23.6255C15.0883 23.5845 15.1117 23.5054 15.1586 23.3882C15.2055 23.2651 15.2348 23.1919 15.2465 23.1685C15.4105 22.7993 15.6244 22.3804 15.8881 21.9116C16.1576 21.4429 16.3949 21.0737 16.6 20.8042C16.6938 20.6753 16.7787 20.5815 16.8549 20.5229C16.9369 20.4585 17.0219 20.4263 17.1098 20.4263C17.1742 20.4263 17.2357 20.4556 17.2943 20.5142C17.3529 20.5669 17.3939 20.6343 17.4174 20.7163C17.476 20.9214 17.5492 21.0562 17.6371 21.1206C17.7309 21.1851 17.8627 21.2173 18.0326 21.2173H22.559C23.2387 21.2173 23.7104 21.437 23.974 21.8765C24.2436 22.3101 24.4047 22.8403 24.4574 23.4673C24.5043 24.0063 24.5336 24.4604 24.5453 24.8296C24.5629 25.1987 24.5775 25.6997 24.5893 26.3325C24.5893 26.6021 24.5805 26.8335 24.5629 27.0269C24.5453 27.2202 24.5102 27.4165 24.4574 27.6157C24.3285 28.1196 24.2055 28.5298 24.0883 28.8462C23.977 29.1626 23.8275 29.4585 23.64 29.7339C23.599 29.8101 23.5463 29.8628 23.4818 29.8921C23.4174 29.9155 23.3295 29.9272 23.2182 29.9272H17.5756C17.1537 29.9272 16.8139 29.7222 16.5561 29.312C16.433 29.1187 16.348 28.8433 16.3012 28.4858C16.2602 28.1284 16.2396 27.7739 16.2396 27.4224ZM22.4447 27.2817C22.5443 27.2817 22.6117 27.2378 22.6469 27.1499C22.6879 27.0562 22.7084 26.9683 22.7084 26.8862C22.7084 26.5288 22.6938 26.1216 22.6645 25.6646C22.6352 25.2075 22.5883 24.8501 22.5238 24.5923C22.4711 24.3755 22.3422 24.1997 22.1371 24.0649C21.932 23.9302 21.7123 23.8628 21.4779 23.8628H18.3842C18.2377 23.8628 18.1322 23.9009 18.0678 23.9771C18.0033 24.0474 17.9711 24.1616 17.9711 24.3198C17.9711 24.6011 17.9916 25.0054 18.0326 25.5327C18.0736 26.0601 18.1264 26.4526 18.1908 26.7104C18.2377 26.9155 18.3109 27.062 18.4105 27.1499C18.516 27.2378 18.6625 27.2817 18.85 27.2817H22.4447ZM28.9272 30.3228C28.8452 30.3228 28.7807 30.2729 28.7338 30.1733C28.6928 30.0796 28.6664 29.9624 28.6547 29.8218C28.6313 29.189 28.5698 28.3423 28.4702 27.2817C28.3705 26.2153 28.2856 25.4683 28.2153 25.0405C28.1918 24.8647 28.1157 24.6597 27.9868 24.4253C27.8637 24.1851 27.7114 23.9858 27.5297 23.8276C27.2016 23.5405 26.8676 23.2856 26.5278 23.063L26.3608 22.9399C26.2846 22.8755 26.2465 22.8052 26.2465 22.729C26.2465 22.6704 26.267 22.6001 26.308 22.5181C26.8471 21.5747 27.3452 20.9038 27.8022 20.5054C27.8666 20.4644 27.9311 20.4438 27.9955 20.4438C28.0307 20.4438 28.0834 20.4585 28.1538 20.4878C28.353 20.5991 28.6254 20.8423 28.9711 21.2173C29.3168 21.5923 29.5541 21.8853 29.683 22.0962C29.8237 22.3247 29.9467 22.5767 30.0522 22.8521C30.1577 23.1216 30.228 23.5054 30.2631 24.0034C30.3276 24.6714 30.3598 25.5239 30.3598 26.561C30.3598 27.1704 30.3539 27.5952 30.3422 27.8354C30.3422 27.8823 30.3393 27.9556 30.3334 28.0552C30.3276 28.1548 30.3129 28.2485 30.2895 28.3364C30.2719 28.4243 30.2426 28.5181 30.2016 28.6177C30.1137 28.8345 29.9643 29.1011 29.7534 29.4175C29.5483 29.728 29.3666 29.9771 29.2084 30.1646C29.1147 30.27 29.0209 30.3228 28.9272 30.3228ZM32.5093 27.5542C32.5854 27.4429 32.6616 27.3696 32.7378 27.3345C32.8198 27.2993 32.9077 27.2817 33.0014 27.2817H36.0073C36.1714 27.2817 36.3266 27.2319 36.4731 27.1323C36.6196 27.0327 36.7397 26.8862 36.8335 26.6929C36.9272 26.4995 36.9741 26.271 36.9741 26.0073C36.9741 25.5972 36.8921 25.231 36.728 24.9087C36.5698 24.5806 36.3413 24.3257 36.0425 24.144C35.7436 23.9565 35.3921 23.8628 34.9878 23.8628H32.5444C32.2807 23.8628 32.0786 23.8364 31.938 23.7837C31.7973 23.7251 31.727 23.6255 31.727 23.4849C31.727 23.3384 31.8208 23.0659 32.0083 22.6675C32.2016 22.2632 32.4214 21.8589 32.6675 21.4546C32.9136 21.0503 33.0981 20.7866 33.2212 20.6636C33.3149 20.5698 33.3852 20.5083 33.4321 20.479C33.4848 20.4438 33.5464 20.4263 33.6167 20.4263C33.6753 20.4263 33.7309 20.4585 33.7837 20.5229C33.8364 20.5874 33.8686 20.6665 33.8804 20.7603C33.9214 20.9595 33.9653 21.0854 34.0122 21.1382C34.0649 21.1909 34.1557 21.2173 34.2846 21.2173H36.3764C36.9507 21.2173 37.4429 21.3901 37.853 21.7358C38.2632 22.0757 38.5708 22.5122 38.7759 23.0454C38.9868 23.5728 39.0923 24.1089 39.0923 24.6538C39.0923 25.146 39.06 25.5796 38.9956 25.9546C38.937 26.3296 38.8139 26.7515 38.6264 27.2202C38.4331 27.689 38.187 28.1606 37.8882 28.6353C37.5893 29.1099 37.3139 29.4614 37.062 29.6899C36.9682 29.7778 36.8774 29.8394 36.7895 29.8745C36.7075 29.9097 36.5903 29.9272 36.438 29.9272H31.9116C31.7886 29.9272 31.7007 29.9097 31.6479 29.8745C31.6011 29.8394 31.5776 29.772 31.5776 29.6724C31.5776 29.52 31.7007 29.1772 31.9468 28.644C32.1929 28.105 32.3804 27.7417 32.5093 27.5542ZM41.857 27.6421C41.9507 27.4546 42.0708 27.229 42.2173 26.9653C42.4165 26.6196 42.5718 26.3296 42.6831 26.0952C42.7945 25.8608 42.8501 25.6704 42.8501 25.5239C42.8501 25.0435 42.7183 24.6685 42.4546 24.3989C42.2847 24.2231 42.1001 24.0562 41.9009 23.8979C41.7017 23.7397 41.4585 23.5581 41.1714 23.353C41.1362 23.3237 41.0396 23.2534 40.8814 23.1421C40.729 23.0308 40.6118 22.9341 40.5298 22.8521C40.4478 22.7524 40.4068 22.6763 40.4068 22.6235C40.4068 22.5649 40.439 22.48 40.5034 22.3687C40.6089 22.1577 40.8198 21.853 41.1362 21.4546C41.4527 21.0562 41.7017 20.772 41.8833 20.6021C41.9595 20.5376 42.0181 20.4966 42.0591 20.479C42.1001 20.4556 42.1382 20.4438 42.1734 20.4438C42.2144 20.4438 42.2642 20.4585 42.3228 20.4878C42.6626 20.687 43.0786 20.9946 43.5708 21.4106C44.0689 21.8208 44.4321 22.1812 44.6607 22.4917C44.8247 22.7144 44.9536 22.9399 45.0474 23.1685C45.1411 23.3911 45.188 23.6401 45.188 23.9155C45.188 24.2612 45.1118 24.6274 44.9595 25.0142C44.8071 25.395 44.6372 25.729 44.4497 26.0161C44.2154 26.397 43.8931 26.7427 43.4829 27.0532C43.0786 27.3638 42.6509 27.6069 42.1997 27.7827C42.0943 27.8296 42.021 27.853 41.98 27.853C41.8862 27.853 41.8394 27.8091 41.8394 27.7212C41.8394 27.6919 41.8452 27.6655 41.857 27.6421ZM47.9175 25.1196C47.8062 24.7212 47.6744 24.4136 47.522 24.1968C47.3697 23.9741 47.1558 23.8628 46.8804 23.8628C46.6578 23.8628 46.5084 23.8335 46.4322 23.7749C46.356 23.7163 46.3179 23.6226 46.3179 23.4937C46.3179 23.4409 46.3297 23.3765 46.3531 23.3003C46.3765 23.2241 46.4058 23.145 46.441 23.063C46.5406 22.8521 46.7457 22.4771 47.0562 21.938C47.3668 21.3989 47.6129 21.0005 47.7945 20.7427C47.8824 20.6313 47.9586 20.5552 48.023 20.5142C48.0933 20.4673 48.1636 20.4438 48.2339 20.4438C48.3394 20.4438 48.4156 20.4702 48.4625 20.5229C48.5152 20.5757 48.5504 20.6606 48.5679 20.7778C48.6031 20.9536 48.6617 21.0737 48.7437 21.1382C48.8316 21.2026 48.9664 21.2349 49.148 21.2349H54.8082C55.0367 21.2349 55.2447 21.2993 55.4322 21.4282C55.6197 21.5513 55.7691 21.73 55.8804 21.9644C55.9918 22.1987 56.0474 22.4683 56.0474 22.7729C56.0474 23.4819 55.9449 24.2085 55.7398 24.9526C55.5406 25.6909 55.2974 26.397 55.0103 27.0708C54.7877 27.604 54.5474 28.02 54.2896 28.3188C54.0377 28.6118 53.6978 28.896 53.2701 29.1714C52.8248 29.4409 52.3297 29.6812 51.7847 29.8921C51.2398 30.103 50.7564 30.2085 50.3345 30.2085C50.1236 30.2085 49.942 30.1616 49.7896 30.0679C49.6373 29.98 49.4996 29.8276 49.3765 29.6108C49.1949 29.3003 49.022 28.8931 48.858 28.3892C48.6998 27.8853 48.4918 27.1763 48.2339 26.2622C48.1109 25.7993 48.0054 25.4185 47.9175 25.1196ZM51.1695 27.5015C51.4507 27.5015 51.7964 27.4253 52.2066 27.2729C52.6168 27.1147 52.9859 26.9419 53.314 26.7544C53.5425 26.6255 53.73 26.4175 53.8765 26.1304C54.023 25.8433 54.0963 25.5063 54.0963 25.1196C54.0963 24.7036 54.0025 24.396 53.815 24.1968C53.6334 23.9976 53.355 23.8979 52.98 23.8979H50.0093C49.8043 23.8979 49.7017 23.9683 49.7017 24.1089C49.7017 24.1968 49.7457 24.4253 49.8336 24.7944C49.9214 25.1636 50.0298 25.562 50.1588 25.9897C50.2935 26.4116 50.4254 26.769 50.5543 27.062C50.6832 27.355 50.8882 27.5015 51.1695 27.5015ZM59.2779 27.5981C59.3365 27.5337 59.3834 27.4897 59.4186 27.4663C59.4537 27.437 59.5035 27.4165 59.568 27.4048C59.9723 27.3169 60.4146 27.1646 60.8951 26.9478C61.3756 26.7251 61.7096 26.5112 61.8971 26.3062C62.0553 26.1187 62.1725 25.8989 62.2486 25.647C62.3307 25.3892 62.3717 25.1138 62.3717 24.8208C62.3717 24.5103 62.3131 24.2759 62.1959 24.1177C62.0846 23.9595 61.8971 23.8804 61.6334 23.8804H58.777C58.4254 23.8804 58.1646 23.8423 57.9947 23.7661C57.8307 23.6899 57.7193 23.5669 57.6607 23.397C57.608 23.2271 57.5816 22.9722 57.5816 22.6323C57.5816 22.5913 57.5846 22.5122 57.5904 22.395C57.5963 22.2778 57.5992 22.1372 57.5992 21.9731C57.5992 21.6099 57.5787 21.2964 57.5377 21.0327C57.4557 20.605 57.3385 20.2622 57.1861 20.0044C57.1568 19.9341 57.1422 19.8755 57.1422 19.8286C57.1422 19.7876 57.1568 19.7319 57.1861 19.6616C57.2916 19.4565 57.4967 19.1694 57.8014 18.8003C58.1119 18.4312 58.3756 18.144 58.5924 17.939C58.6627 17.8687 58.7242 17.8335 58.777 17.8335C58.8707 17.8335 58.9586 17.8774 59.0406 17.9653C59.1227 18.0474 59.1813 18.1558 59.2164 18.2905C59.2809 18.4956 59.3248 18.8413 59.3482 19.3276C59.3717 19.8081 59.3834 20.2388 59.3834 20.6196C59.3834 20.8423 59.4566 21.0005 59.6031 21.0942C59.7496 21.188 59.9723 21.2349 60.2711 21.2349H63.4879C63.8629 21.2349 64.1412 21.3345 64.3229 21.5337C64.5045 21.7271 64.5953 22.0054 64.5953 22.3687C64.5953 22.9194 64.5367 23.4614 64.4195 23.9946C64.3082 24.5278 64.1559 25.0933 63.9625 25.6909C63.6695 26.5874 63.2271 27.3931 62.6354 28.1079C62.0436 28.8169 61.3521 29.3442 60.5611 29.6899C60.2447 29.8306 59.8609 29.9712 59.4098 30.1118C58.9586 30.2524 58.6598 30.3228 58.5133 30.3228C58.3727 30.3228 58.3023 30.2437 58.3023 30.0854C58.3023 29.9155 58.358 29.6636 58.4693 29.3296C58.5807 28.9897 58.7154 28.6528 58.8736 28.3188C59.0318 27.9849 59.1666 27.7446 59.2779 27.5981Z" fill="#0052B4"/>
</g>
<path d="M45.6568 39.9272L40 43.5841L34.3431 39.9272" stroke="#0052B4" stroke-width="2" stroke-linecap="round" stroke-linejoin="round"/>
<path d="M45.6568 44.9272L40 48.5841L34.3431 44.9272" stroke="#0052B4" stroke-width="2" stroke-linecap="round" stroke-linejoin="round"/>
</svg>
