<svg width="61" height="55" viewBox="0 0 61 55" fill="none" xmlns="http://www.w3.org/2000/svg">
<path d="M51.9583 31.5312V41.379C51.9583 48.2534 49.6933 52.8682 49.5948 53.0542C49.5027 53.2538 49.3715 53.4328 49.2089 53.5807C49.0462 53.7286 48.8556 53.8423 48.6482 53.9151C48.4408 53.9879 48.2209 54.0183 48.0015 54.0045C47.7821 53.9907 47.5677 53.933 47.3711 53.8348C47.1745 53.7365 46.9996 53.5998 46.8568 53.4327C46.714 53.2656 46.6062 53.0715 46.5398 52.8619C46.4735 52.6524 46.4499 52.4316 46.4705 52.2128C46.4911 51.994 46.5554 51.7815 46.6596 51.588C46.6788 51.5497 48.6757 47.4327 48.6757 41.379V31.5312C48.6757 30.5155 48.2722 29.5414 47.554 28.8232C46.8358 28.1049 45.8617 27.7015 44.846 27.7015C43.8303 27.7015 42.8562 28.1049 42.138 28.8232C41.4198 29.5414 41.0163 30.5155 41.0163 31.5312V32.6254C41.0163 33.0607 40.8433 33.4782 40.5355 33.786C40.2277 34.0938 39.8103 34.2667 39.375 34.2667C38.9397 34.2667 38.5222 34.0938 38.2144 33.786C37.9066 33.4782 37.7337 33.0607 37.7337 32.6254V27.1544C37.7337 26.1387 37.3302 25.1645 36.612 24.4463C35.8937 23.7281 34.9196 23.3246 33.9039 23.3246C32.8882 23.3246 31.9141 23.7281 31.1959 24.4463C30.4777 25.1645 30.0742 26.1387 30.0742 27.1544V30.437C30.0742 30.8723 29.9013 31.2898 29.5935 31.5976C29.2857 31.9054 28.8682 32.0783 28.4329 32.0783C27.9976 32.0783 27.5801 31.9054 27.2723 31.5976C26.9645 31.2898 26.7916 30.8723 26.7916 30.437V11.8355C26.7916 10.8198 26.3881 9.84567 25.6699 9.12746C24.9517 8.40925 23.9776 8.00576 22.9619 8.00576C21.9462 8.00576 20.9721 8.40925 20.2539 9.12746C19.5356 9.84567 19.1322 10.8198 19.1322 11.8355V41.379C19.1318 41.7354 19.0154 42.0819 18.8007 42.3662C18.586 42.6506 18.2845 42.8573 17.9419 42.9553C17.5993 43.0532 17.2342 43.037 16.9016 42.9091C16.569 42.7811 16.2871 42.5485 16.0985 42.2462L10.9885 34.0396C10.9779 34.0251 10.9687 34.0095 10.9612 33.9931C10.4533 33.1135 9.61683 32.4716 8.6357 32.2087C7.65457 31.9457 6.60919 32.0833 5.72951 32.5912C4.84984 33.099 4.20794 33.9355 3.94502 34.9167C3.68211 35.8978 3.81971 36.9432 4.32756 37.8229L12.3399 51.5004C12.4657 51.687 12.5517 51.8974 12.5928 52.1186C12.6338 52.3398 12.6289 52.567 12.5785 52.7863C12.528 53.0055 12.433 53.212 12.2993 53.393C12.1657 53.574 11.9963 53.7256 11.8016 53.8383C11.6069 53.9511 11.3911 54.0226 11.1676 54.0484C10.9442 54.0743 10.7177 54.0539 10.5025 53.9886C10.2872 53.9233 10.0876 53.8144 9.91619 53.6687C9.74475 53.523 9.60509 53.3437 9.50589 53.1417L1.48536 39.4642C0.537493 37.8318 0.276907 35.8897 0.76093 34.0652C1.24495 32.2407 2.43394 30.6832 4.06632 29.7353C5.6987 28.7874 7.64077 28.5269 9.46528 29.0109C11.2898 29.4949 12.8473 30.6839 13.7952 32.3163L15.8495 35.6344V11.8355C15.8495 9.94917 16.5989 8.14012 17.9327 6.8063C19.2665 5.47248 21.0756 4.72314 22.9619 4.72314C24.8482 4.72314 26.6572 5.47248 27.9911 6.8063C29.3249 8.14012 30.0742 9.94917 30.0742 11.8355V21.1636C31.0406 20.5453 32.1423 20.1701 33.2851 20.0698C34.428 19.9695 35.5781 20.1471 36.6375 20.5876C37.6968 21.028 38.6339 21.7182 39.3687 22.5992C40.1036 23.4802 40.6144 24.5259 40.8576 25.6471C41.9268 24.9229 43.173 24.5036 44.4624 24.4339C45.7519 24.3643 47.036 24.647 48.177 25.2518C49.3179 25.8566 50.2727 26.7606 50.9389 27.8668C51.6051 28.9731 51.9575 30.2398 51.9583 31.5312Z" fill="#0052B4"/>
<path d="M43.1471 9.59723H58.8818C59.3171 9.59723 59.7345 9.77016 60.0423 10.078C60.3501 10.3858 60.5231 10.8032 60.5231 11.2385C60.5231 11.6738 60.3501 12.0913 60.0423 12.3991C59.7345 12.7069 59.3171 12.8798 58.8818 12.8798H43.1471L49.0996 18.8323C49.4031 19.1412 49.5722 19.5574 49.5702 19.9904C49.5682 20.4234 49.3952 20.838 49.0888 21.144C48.7825 21.45 48.3676 21.6225 47.9346 21.6241C47.5016 21.6256 47.0856 21.4559 46.7771 21.152L38.0235 12.3984C37.7161 12.0907 37.5435 11.6735 37.5435 11.2385C37.5435 10.8036 37.7161 10.3864 38.0235 10.0787L46.7771 1.32504C47.0856 1.02118 47.5016 0.851534 47.9346 0.853037C48.3676 0.854541 48.7825 1.02708 49.0888 1.33307C49.3952 1.63906 49.5682 2.05371 49.5702 2.4867C49.5722 2.91969 49.4031 3.33593 49.0996 3.64476L43.1471 9.59723Z" fill="#0052B4"/>
</svg>
