<svg width="86" height="64" viewBox="0 0 86 64" fill="none" xmlns="http://www.w3.org/2000/svg">
<path fill-rule="evenodd" clip-rule="evenodd" d="M31.4233 22.7372V0.5H43H54.5767V22.7372C54.5767 28.2891 47.0961 28.2891 45.4577 28.2891C43.8696 28.2891 43 29.4209 43 29.4209C43 29.4209 42.1304 28.2891 40.5423 28.2891C38.9039 28.2891 31.4233 28.2891 31.4233 22.7372Z" fill="#0052B4"/>
<path d="M5.21456 47.2529H4.33456C4.33456 48.0956 4.33456 48.8742 4.33456 49.5889C4.34523 50.2929 4.3559 50.9862 4.36656 51.6689H5.34256C6.36656 51.6689 7.12923 51.4822 7.63056 51.1089C8.1319 50.7356 8.38256 50.1969 8.38256 49.4929C8.38256 48.7462 8.1319 48.1862 7.63056 47.8129C7.12923 47.4396 6.3239 47.2529 5.21456 47.2529ZM5.47056 42.4529H4.36656C4.3559 43.1356 4.34523 43.8289 4.33456 44.5329C4.33456 45.2262 4.33456 45.8876 4.33456 46.5169H5.16656C6.13723 46.5169 6.84123 46.3516 7.27856 46.0209C7.7159 45.6902 7.93456 45.1622 7.93456 44.4369C7.93456 43.7116 7.72656 43.1996 7.31056 42.9009C6.90523 42.6022 6.2919 42.4529 5.47056 42.4529ZM1.31056 42.3729V41.7169H5.95056C7.0599 41.7169 7.91856 41.9622 8.52656 42.4529C9.13456 42.9436 9.43856 43.5676 9.43856 44.3249C9.43856 44.8902 9.24656 45.4076 8.86256 45.8769C8.47856 46.3462 7.8439 46.6716 6.95856 46.8529C8.02523 47.0022 8.79323 47.3169 9.26256 47.7969C9.74256 48.2769 9.98256 48.8422 9.98256 49.4929C9.98256 49.9729 9.83856 50.4369 9.55056 50.8849C9.27323 51.3329 8.8199 51.7009 8.19056 51.9889C7.56123 52.2769 6.73456 52.4209 5.71056 52.4209H1.31056V51.7649L2.78256 51.5889C2.8039 50.9169 2.81456 50.2342 2.81456 49.5409C2.81456 48.8476 2.81456 48.1542 2.81456 47.4609V46.6769C2.81456 45.9836 2.81456 45.2956 2.81456 44.6129C2.81456 43.9196 2.8039 43.2316 2.78256 42.5489L1.31056 42.3729ZM10.7491 52.4209V51.8449L11.9491 51.6209C11.9597 51.2156 11.9651 50.7782 11.9651 50.3089C11.9757 49.8289 11.9811 49.4129 11.9811 49.0609V48.3089C11.9811 47.8716 11.9757 47.5089 11.9651 47.2209C11.9651 46.9222 11.9544 46.6129 11.9331 46.2929L10.6531 46.1489V45.5889L13.1171 44.6129L13.3571 44.7729L13.3091 46.9489V49.0609C13.3091 49.4129 13.3091 49.8289 13.3091 50.3089C13.3197 50.7782 13.3304 51.2156 13.3411 51.6209L14.4611 51.8449V52.4209H10.7491ZM12.6371 42.8529C12.3384 42.8529 12.0824 42.7569 11.8691 42.5649C11.6664 42.3729 11.5651 42.1276 11.5651 41.8289C11.5651 41.5196 11.6664 41.2742 11.8691 41.0929C12.0824 40.9009 12.3384 40.8049 12.6371 40.8049C12.9357 40.8049 13.1864 40.9009 13.3891 41.0929C13.6024 41.2742 13.7091 41.5196 13.7091 41.8289C13.7091 42.1276 13.6024 42.3729 13.3891 42.5649C13.1864 42.7569 12.9357 42.8529 12.6371 42.8529ZM14.8747 52.4209V51.8449L16.1547 51.6209C16.1654 51.1836 16.1707 50.7569 16.1707 50.3409C16.1814 49.9142 16.1867 49.4876 16.1867 49.0609V42.0369L14.8747 41.8769V41.3169L17.3707 40.5969L17.5947 40.7249L17.5307 42.9969V49.0609C17.5307 49.4876 17.5307 49.9142 17.5307 50.3409C17.5414 50.7676 17.552 51.1942 17.5627 51.6209L18.8427 51.8449V52.4209H14.8747ZM19.1603 52.4209V51.8449L20.4403 51.6209C20.451 51.1836 20.4563 50.7569 20.4563 50.3409C20.467 49.9142 20.4723 49.4876 20.4723 49.0609V42.0369L19.1603 41.8769V41.3169L21.6563 40.5969L21.8803 40.7249L21.8163 42.9969V49.0609C21.8163 49.4876 21.8163 49.9142 21.8163 50.3409C21.827 50.7676 21.8376 51.1942 21.8483 51.6209L23.1283 51.8449V52.4209H19.1603ZM31.0203 42.4529H30.0603C30.0496 43.1356 30.039 43.8342 30.0283 44.5489C30.0283 45.2529 30.0283 45.9622 30.0283 46.6769V47.4449H31.0843C32.055 47.4449 32.7483 47.2102 33.1643 46.7409C33.5803 46.2609 33.7883 45.6476 33.7883 44.9009C33.7883 44.1222 33.5643 43.5196 33.1163 43.0929C32.679 42.6662 31.9803 42.4529 31.0203 42.4529ZM27.0043 42.3729V41.7169H31.3083C32.663 41.7169 33.6763 42.0156 34.3483 42.6129C35.031 43.1996 35.3723 43.9622 35.3723 44.9009C35.3723 45.4982 35.223 46.0476 34.9243 46.5489C34.6256 47.0502 34.1456 47.4502 33.4843 47.7489C32.8336 48.0476 31.959 48.1969 30.8603 48.1969H30.0283C30.0283 48.7729 30.0283 49.3382 30.0283 49.8929C30.039 50.4476 30.0496 51.0129 30.0603 51.5889L31.5483 51.7649V52.4209H27.0043V51.7649L28.4763 51.5889C28.4976 50.9169 28.5083 50.2342 28.5083 49.5409C28.5083 48.8476 28.5083 48.1542 28.5083 47.4609V46.6769C28.5083 45.9836 28.5083 45.2956 28.5083 44.6129C28.5083 43.9196 28.4976 43.2316 28.4763 42.5489L27.0043 42.3729ZM35.7579 52.4209V51.8449L36.9099 51.6369C36.9206 51.2316 36.9259 50.7942 36.9259 50.3249C36.9366 49.8449 36.9419 49.4236 36.9419 49.0609V48.2929C36.9419 47.8556 36.9366 47.4929 36.9259 47.2049C36.9259 46.9169 36.9153 46.6129 36.8939 46.2929L35.6299 46.1489V45.5889L37.8699 44.6129L38.1099 44.7729L38.2859 46.6609C38.5526 46.0209 38.8939 45.5196 39.3099 45.1569C39.7366 44.7942 40.1633 44.6129 40.5899 44.6129C40.8353 44.6129 41.0646 44.6662 41.2779 44.7729C41.4913 44.8796 41.6459 45.0236 41.7419 45.2049C41.7419 45.9836 41.4273 46.3729 40.7979 46.3729C40.6166 46.3729 40.4459 46.3409 40.2859 46.2769C40.1259 46.2022 39.9713 46.1009 39.8219 45.9729L39.6299 45.7969C39.3099 46.0316 39.0433 46.3196 38.8299 46.6609C38.6166 47.0022 38.4406 47.4022 38.3019 47.8609V49.0609C38.3019 49.4129 38.3019 49.8236 38.3019 50.2929C38.3126 50.7622 38.3233 51.1996 38.3339 51.6049L39.6459 51.8449V52.4209H35.7579ZM45.5993 52.6289C44.9806 52.6289 44.3886 52.4849 43.8233 52.1969C43.2686 51.8982 42.8153 51.4556 42.4633 50.8689C42.1113 50.2716 41.9353 49.5356 41.9353 48.6609C41.9353 47.7756 42.1113 47.0342 42.4633 46.4369C42.8153 45.8289 43.2686 45.3756 43.8233 45.0769C44.3886 44.7676 44.9806 44.6129 45.5993 44.6129C46.218 44.6129 46.8046 44.7676 47.3593 45.0769C47.9246 45.3756 48.3833 45.8289 48.7353 46.4369C49.098 47.0342 49.2793 47.7756 49.2793 48.6609C49.2793 49.5356 49.098 50.2716 48.7353 50.8689C48.3833 51.4556 47.9246 51.8982 47.3593 52.1969C46.8046 52.4849 46.218 52.6289 45.5993 52.6289ZM45.5993 51.9089C46.2926 51.9089 46.826 51.6369 47.1993 51.0929C47.5726 50.5382 47.7593 49.7276 47.7593 48.6609C47.7593 47.5836 47.5726 46.7622 47.1993 46.1969C46.826 45.6316 46.2926 45.3489 45.5993 45.3489C44.906 45.3489 44.3726 45.6316 43.9993 46.1969C43.6366 46.7622 43.4553 47.5836 43.4553 48.6609C43.4553 49.7276 43.6366 50.5382 43.9993 51.0929C44.3726 51.6369 44.906 51.9089 45.5993 51.9089ZM49.9203 56.2449V55.6849L51.2003 55.4609C51.211 55.0236 51.2163 54.5862 51.2163 54.1489C51.227 53.7222 51.2323 53.2956 51.2323 52.8689V48.2929C51.2323 47.8556 51.227 47.4929 51.2163 47.2049C51.2163 46.9169 51.2056 46.6129 51.1843 46.2929L49.9203 46.1489V45.5889L52.1603 44.6129L52.4003 44.7729L52.4963 45.8129C53.2536 45.0129 54.059 44.6129 54.9123 44.6129C55.4883 44.6129 56.0056 44.7729 56.4643 45.0929C56.923 45.4129 57.2856 45.8716 57.5523 46.4689C57.8296 47.0556 57.9683 47.7649 57.9683 48.5969C57.9683 49.4182 57.8243 50.1329 57.5363 50.7409C57.2483 51.3382 56.8536 51.8022 56.3523 52.1329C55.8616 52.4636 55.3016 52.6289 54.6723 52.6289C54.3096 52.6289 53.947 52.5542 53.5843 52.4049C53.2323 52.2556 52.8856 51.9836 52.5443 51.5889V52.8529C52.5443 53.2796 52.5443 53.7062 52.5443 54.1329C52.555 54.5702 52.5656 55.0076 52.5763 55.4449L54.0323 55.6849V56.2449H49.9203ZM54.5283 45.5249C54.283 45.5249 54.0003 45.5889 53.6803 45.7169C53.3603 45.8342 52.9976 46.0636 52.5923 46.4049V50.9009C52.891 51.1889 53.1843 51.3969 53.4723 51.5249C53.7603 51.6529 54.0536 51.7169 54.3523 51.7169C54.9496 51.7169 55.4616 51.4769 55.8883 50.9969C56.315 50.5169 56.5283 49.7596 56.5283 48.7249C56.5283 47.7009 56.3416 46.9116 55.9683 46.3569C55.595 45.8022 55.115 45.5249 54.5283 45.5249ZM62.5924 52.6289C61.9738 52.6289 61.3818 52.4849 60.8164 52.1969C60.2618 51.8982 59.8084 51.4556 59.4564 50.8689C59.1044 50.2716 58.9284 49.5356 58.9284 48.6609C58.9284 47.7756 59.1044 47.0342 59.4564 46.4369C59.8084 45.8289 60.2618 45.3756 60.8164 45.0769C61.3818 44.7676 61.9738 44.6129 62.5924 44.6129C63.2111 44.6129 63.7978 44.7676 64.3524 45.0769C64.9178 45.3756 65.3764 45.8289 65.7284 46.4369C66.0911 47.0342 66.2724 47.7756 66.2724 48.6609C66.2724 49.5356 66.0911 50.2716 65.7284 50.8689C65.3764 51.4556 64.9178 51.8982 64.3524 52.1969C63.7978 52.4849 63.2111 52.6289 62.5924 52.6289ZM62.5924 51.9089C63.2858 51.9089 63.8191 51.6369 64.1924 51.0929C64.5658 50.5382 64.7524 49.7276 64.7524 48.6609C64.7524 47.5836 64.5658 46.7622 64.1924 46.1969C63.8191 45.6316 63.2858 45.3489 62.5924 45.3489C61.8991 45.3489 61.3658 45.6316 60.9924 46.1969C60.6298 46.7622 60.4484 47.5836 60.4484 48.6609C60.4484 49.7276 60.6298 50.5382 60.9924 51.0929C61.3658 51.6369 61.8991 51.9089 62.5924 51.9089ZM69.7097 52.6289C69.2617 52.6289 68.851 52.5756 68.4777 52.4689C68.1044 52.3729 67.7204 52.2236 67.3257 52.0209L67.2617 50.2609H68.1417L68.4457 51.6529C68.819 51.8236 69.251 51.9089 69.7417 51.9089C70.3497 51.9089 70.7977 51.7969 71.0857 51.5729C71.3844 51.3489 71.5337 51.0556 71.5337 50.6929C71.5337 50.3516 71.411 50.0796 71.1657 49.8769C70.9204 49.6636 70.547 49.4716 70.0457 49.3009L69.3097 49.0289C68.723 48.8156 68.2537 48.5382 67.9017 48.1969C67.5497 47.8556 67.3737 47.4129 67.3737 46.8689C67.3737 46.4742 67.4804 46.1062 67.6937 45.7649C67.907 45.4236 68.2217 45.1462 68.6377 44.9329C69.0537 44.7196 69.5604 44.6129 70.1577 44.6129C70.595 44.6129 70.9897 44.6716 71.3417 44.7889C71.7044 44.8956 72.0564 45.0556 72.3977 45.2689L72.3337 46.9009H71.5017L71.2457 45.6209C70.883 45.4396 70.515 45.3489 70.1417 45.3489C69.651 45.3489 69.2777 45.4502 69.0217 45.6529C68.7764 45.8449 68.6537 46.1062 68.6537 46.4369C68.6537 46.7889 68.7604 47.0556 68.9737 47.2369C69.1977 47.4182 69.5817 47.6102 70.1257 47.8129L70.6217 47.9889C71.4217 48.2876 71.987 48.6289 72.3177 49.0129C72.659 49.3969 72.8297 49.8396 72.8297 50.3409C72.8297 50.7462 72.7124 51.1249 72.4777 51.4769C72.243 51.8182 71.8964 52.0956 71.4377 52.3089C70.979 52.5222 70.403 52.6289 69.7097 52.6289ZM79.6232 52.5809C79.2392 52.5809 78.9192 52.4689 78.6632 52.2449C78.4072 52.0209 78.2472 51.7222 78.1832 51.3489C77.7459 51.7756 77.3619 52.0956 77.0312 52.3089C76.7005 52.5222 76.3005 52.6289 75.8312 52.6289C75.2445 52.6289 74.7379 52.4636 74.3112 52.1329C73.8952 51.7916 73.6872 51.2902 73.6872 50.6289C73.6872 50.3196 73.7565 50.0316 73.8952 49.7649C74.0445 49.4982 74.3112 49.2369 74.6952 48.9809C75.0792 48.7249 75.6285 48.4689 76.3432 48.2129C76.5885 48.1276 76.8712 48.0369 77.1912 47.9409C77.5112 47.8449 77.8312 47.7596 78.1512 47.6849V47.2849C78.1512 46.5062 78.0339 45.9889 77.7992 45.7329C77.5645 45.4769 77.1805 45.3489 76.6472 45.3489C76.5299 45.3489 76.3965 45.3542 76.2472 45.3649C76.1085 45.3756 75.9539 45.4022 75.7832 45.4449L75.4792 46.4849C75.3299 46.9969 75.0525 47.2529 74.6472 47.2529C74.1992 47.2529 73.9485 47.0342 73.8952 46.5969C74.0445 45.9889 74.3965 45.5089 74.9512 45.1569C75.5165 44.7942 76.2045 44.6129 77.0152 44.6129C77.8579 44.6129 78.4819 44.8262 78.8872 45.2529C79.2925 45.6689 79.4952 46.3836 79.4952 47.3969V50.8049C79.4952 51.1462 79.5485 51.3916 79.6552 51.5409C79.7619 51.6796 79.9005 51.7489 80.0712 51.7489C80.2099 51.7489 80.3272 51.7169 80.4232 51.6529C80.5192 51.5889 80.6099 51.5036 80.6952 51.3969L81.0152 51.7489C80.8232 52.0582 80.6099 52.2769 80.3752 52.4049C80.1512 52.5222 79.9005 52.5809 79.6232 52.5809ZM75.1112 50.3889C75.1112 50.8156 75.2339 51.1196 75.4792 51.3009C75.7245 51.4822 76.0285 51.5729 76.3912 51.5729C76.5512 51.5729 76.7005 51.5516 76.8392 51.5089C76.9885 51.4662 77.1645 51.3862 77.3672 51.2689C77.5699 51.1409 77.8312 50.9596 78.1512 50.7249V48.2769C77.8739 48.3516 77.6019 48.4369 77.3352 48.5329C77.0685 48.6182 76.8499 48.6929 76.6792 48.7569C76.2205 48.9382 75.8792 49.1249 75.6552 49.3169C75.4312 49.5089 75.2819 49.6956 75.2072 49.8769C75.1432 50.0582 75.1112 50.2289 75.1112 50.3889ZM81.0278 52.4209V51.8449L82.3078 51.6209C82.3185 51.1836 82.3238 50.7569 82.3238 50.3409C82.3345 49.9142 82.3398 49.4876 82.3398 49.0609V42.0369L81.0278 41.8769V41.3169L83.5238 40.5969L83.7478 40.7249L83.6838 42.9969V49.0609C83.6838 49.4876 83.6838 49.9142 83.6838 50.3409C83.6945 50.7676 83.7051 51.1942 83.7158 51.6209L84.9958 51.8449V52.4209H81.0278Z" fill="#0052B4"/>
</svg>
