<svg width="78" height="64" viewBox="0 0 78 64" fill="none" xmlns="http://www.w3.org/2000/svg">
<path fill-rule="evenodd" clip-rule="evenodd" d="M27.4238 22.7372V0.5H39.0005H50.5772V22.7372C50.5772 28.2891 43.0966 28.2891 41.4582 28.2891C39.8701 28.2891 39.0005 29.4209 39.0005 29.4209C39.0005 29.4209 38.1309 28.2891 36.5428 28.2891C34.9044 28.2891 27.4238 28.2891 27.4238 22.7372Z" fill="#0052B4"/>
<path d="M2.40908 44.8232C2.38955 44.693 2.30491 44.6019 2.15517 44.5498C2.01195 44.4912 1.87197 44.4554 1.73525 44.4424C1.60504 44.4229 1.52041 44.4098 1.48135 44.4033C1.37067 44.3773 1.31533 44.3219 1.31533 44.2373C1.31533 44.1787 1.33812 44.1071 1.38369 44.0225C1.62458 43.6383 1.90452 43.2542 2.22353 42.8701C2.54254 42.4795 2.80296 42.1865 3.00478 41.9912C3.08942 41.9066 3.17405 41.8643 3.25869 41.8643C3.32379 41.8643 3.37913 41.887 3.42471 41.9326C3.47679 41.9717 3.50934 42.027 3.52236 42.0986C3.54189 42.1572 3.56793 42.2484 3.60049 42.3721C3.63304 42.4958 3.68512 42.5902 3.75674 42.6553C3.83486 42.7139 3.95205 42.7432 4.1083 42.7432H10.1239C10.4755 42.7432 10.7717 42.8311 11.0126 43.0068C11.2535 43.1761 11.4325 43.4007 11.5497 43.6807C11.6734 43.9541 11.7353 44.2536 11.7353 44.5791C11.7353 45.1715 11.6506 45.7803 11.4813 46.4053C11.3186 47.0238 11.12 47.5999 10.8856 48.1338C10.1695 49.807 9.22223 50.9951 8.04385 51.6982C7.71833 51.8936 7.28538 52.1149 6.74502 52.3623C6.20465 52.6032 5.85309 52.7236 5.69033 52.7236C5.54059 52.7236 5.46572 52.6585 5.46572 52.5283C5.46572 52.4242 5.57965 52.167 5.80752 51.7568C6.03538 51.3402 6.15908 51.1156 6.17861 51.083C6.25023 50.9788 6.30556 50.9072 6.34463 50.8682C6.38369 50.8291 6.44554 50.7965 6.53017 50.7705C7.14215 50.5882 7.64346 50.4157 8.03408 50.2529C8.42471 50.0902 8.78278 49.8623 9.1083 49.5693C9.44033 49.2699 9.69098 48.8857 9.86025 48.417C9.9514 48.1631 10.0425 47.7855 10.1337 47.2842C10.2313 46.7829 10.2802 46.3239 10.2802 45.9072C10.2802 45.4645 10.2086 45.1032 10.0653 44.8232C9.9221 44.5433 9.66168 44.4033 9.28408 44.4033H4.22549C4.16689 44.4033 4.1083 44.4326 4.04971 44.4912C3.99111 44.5498 3.96181 44.6149 3.96181 44.6865C4.0139 45.7607 4.03994 47.2126 4.03994 49.042L4.04971 51.5322C4.04971 53.3161 4.03994 54.387 4.02041 54.7451C4.02041 54.7777 4.01064 54.8298 3.99111 54.9014C3.97158 54.9795 3.94554 55.0609 3.91299 55.1455C3.82835 55.3343 3.70791 55.5459 3.55166 55.7803C3.40192 56.0146 3.2652 56.2035 3.1415 56.3467C3.10244 56.3988 3.05036 56.4248 2.98525 56.4248C2.93968 56.4248 2.90062 56.4053 2.86806 56.3662C2.83551 56.3337 2.81924 56.2979 2.81924 56.2588C2.81273 55.8747 2.80622 55.4092 2.79971 54.8623C2.7932 54.3219 2.78994 53.902 2.78994 53.6025C2.77041 51.5387 2.73786 49.8656 2.69228 48.583C2.64671 47.2939 2.55231 46.0407 2.40908 44.8232ZM16.7212 52.8701C16.6821 52.8701 16.6496 52.8538 16.6235 52.8213C16.5975 52.7952 16.5845 52.7627 16.5845 52.7236C16.5845 49.5726 16.5226 47.4176 16.3989 46.2588C16.3794 46.07 16.3371 45.9007 16.272 45.751C16.2069 45.6012 16.0929 45.4482 15.9302 45.292C15.6242 45.0186 15.2173 44.7256 14.7095 44.4131C14.2017 44.0941 13.7524 43.8402 13.3618 43.6514C13.2967 43.6058 13.2479 43.57 13.2153 43.5439C13.1893 43.5114 13.1763 43.4723 13.1763 43.4268C13.1763 43.3877 13.1925 43.3454 13.2251 43.2998C13.2576 43.2477 13.2804 43.2152 13.2935 43.2021C13.4106 43.0133 13.5767 42.7887 13.7915 42.5283C14.0063 42.2679 14.1691 42.0758 14.2798 41.9521C14.2863 41.9456 14.3058 41.9294 14.3384 41.9033C14.3709 41.8773 14.4002 41.8643 14.4263 41.8643C14.4523 41.8643 14.4881 41.8773 14.5337 41.9033C14.5858 41.9229 14.6248 41.9391 14.6509 41.9521C15.3735 42.3167 16.132 42.8311 16.9263 43.4951C17.2192 43.749 17.4308 44.016 17.561 44.2959C17.6912 44.5758 17.7726 44.8786 17.8052 45.2041C17.8182 45.4189 17.8345 45.8096 17.854 46.376C17.8735 46.9424 17.8833 47.4274 17.8833 47.8311C17.8833 49.374 17.867 50.5264 17.8345 51.2881C17.8345 51.3467 17.8214 51.4118 17.7954 51.4834C17.7694 51.5485 17.7433 51.6104 17.7173 51.6689C17.6066 51.8643 17.4569 52.0856 17.2681 52.333C17.0793 52.5739 16.936 52.7367 16.8384 52.8213C16.7993 52.8538 16.7603 52.8701 16.7212 52.8701ZM21.2091 52.7725C21.1505 51.0928 21.0951 49.7874 21.0431 48.8564C20.9975 47.9189 20.9259 47.0596 20.8282 46.2783C20.7371 45.4906 20.6069 44.8428 20.4376 44.335C20.405 44.2373 20.3888 44.1494 20.3888 44.0713C20.3888 43.9801 20.4181 43.8695 20.4767 43.7393C20.5548 43.6025 20.7468 43.3063 21.0528 42.8506C21.3588 42.3949 21.5704 42.1019 21.6876 41.9717C21.7136 41.9456 21.7494 41.9229 21.795 41.9033C21.8406 41.8773 21.8797 41.8643 21.9122 41.8643C21.9643 41.8643 22.0164 41.8805 22.0685 41.9131C22.1205 41.9456 22.1563 41.9945 22.1759 42.0596C22.1889 42.1051 22.2052 42.1735 22.2247 42.2646C22.2507 42.3558 22.2768 42.4372 22.3028 42.5088C22.3289 42.5739 22.3647 42.6162 22.4103 42.6357C22.4754 42.6748 22.573 42.7074 22.7032 42.7334C22.8334 42.7529 22.9669 42.7627 23.1036 42.7627H26.0626C26.8048 42.7627 27.4786 42.9873 28.0841 43.4365C28.6961 43.8792 29.1713 44.4456 29.5099 45.1357C29.7768 45.6891 29.9591 46.3304 30.0567 47.0596C30.1544 47.7887 30.2032 48.6025 30.2032 49.501C30.2032 50.0674 30.1935 50.6143 30.1739 51.1416C30.1674 51.3304 30.1544 51.4704 30.1349 51.5615C30.1153 51.6462 30.0828 51.7275 30.0372 51.8057C29.9526 51.9619 29.8354 52.1507 29.6856 52.3721C29.5424 52.5869 29.4382 52.7301 29.3731 52.8018C29.3276 52.8473 29.2853 52.8701 29.2462 52.8701C29.142 52.8701 29.0899 52.7497 29.0899 52.5088C28.9337 48.9932 28.6277 46.848 28.172 46.0732C28.0483 45.8454 27.866 45.6077 27.6251 45.3604C27.3842 45.1064 27.0847 44.8883 26.7267 44.7061C26.3751 44.5173 25.9877 44.4229 25.5645 44.4229H22.6935C22.5502 44.4229 22.4428 44.4684 22.3712 44.5596C22.3061 44.6442 22.2735 44.7614 22.2735 44.9111L22.2931 45.2139C22.4037 46.7829 22.4591 47.932 22.4591 48.6611C22.4591 49.5205 22.4363 50.279 22.3907 50.9365C22.3712 51.1644 22.3289 51.3434 22.2638 51.4736C22.1336 51.7536 22.0099 51.9945 21.8927 52.1963C21.7755 52.3981 21.6257 52.5999 21.4435 52.8018C21.3979 52.8473 21.3523 52.8701 21.3067 52.8701C21.2807 52.8701 21.2579 52.8604 21.2384 52.8408C21.2188 52.8213 21.2091 52.7985 21.2091 52.7725ZM36.2103 50.9365C36.2493 50.8779 36.2884 50.8421 36.3274 50.8291C36.3665 50.8096 36.4446 50.7998 36.5618 50.7998H38.4856C38.6093 50.7998 38.6712 50.7347 38.6712 50.6045C38.6712 50.4808 38.5931 50.0088 38.4368 49.1885C38.2871 48.3617 38.108 47.512 37.8997 46.6396C37.6979 45.7673 37.5091 45.1064 37.3333 44.6572C37.3073 44.5726 37.2649 44.5075 37.2063 44.4619C37.1543 44.4098 37.0924 44.3838 37.0208 44.3838H35.8489C35.7643 44.3838 35.6894 44.361 35.6243 44.3154C35.5592 44.2633 35.5267 44.1982 35.5267 44.1201C35.5267 44.0876 35.5462 44.042 35.5853 43.9834C35.6959 43.7881 35.9368 43.4365 36.3079 42.9287C36.6855 42.4209 36.9557 42.0954 37.1185 41.9521C37.1966 41.8936 37.2617 41.8643 37.3138 41.8643C37.4244 41.8643 37.5156 41.9521 37.5872 42.1279C37.6067 42.1735 37.6425 42.2646 37.6946 42.4014C37.7467 42.5381 37.802 42.6325 37.8606 42.6846C37.9192 42.7367 37.9941 42.7627 38.0853 42.7627H43.0169C44.0455 42.7627 44.7454 43.111 45.1165 43.8076C45.2923 44.1462 45.4192 44.9176 45.4974 46.1221C45.582 47.32 45.6243 48.5342 45.6243 49.7646C45.6243 50.4027 45.6178 50.7965 45.6048 50.9463C45.5918 51.1546 45.569 51.2946 45.5364 51.3662C45.3476 51.848 45.1263 52.3005 44.8724 52.7236C44.8463 52.7627 44.8138 52.7952 44.7747 52.8213C44.7356 52.8538 44.6998 52.8701 44.6673 52.8701C44.6152 52.8701 44.5696 52.8506 44.5306 52.8115C44.498 52.7725 44.4785 52.7139 44.472 52.6357C44.4524 52.499 44.4329 51.9782 44.4134 51.0732C44.3678 49.6865 44.319 48.4951 44.2669 47.499C44.2148 46.5029 44.1497 45.8454 44.0716 45.5264C43.9674 45.1423 43.8274 44.859 43.6517 44.6768C43.4759 44.4945 43.235 44.4033 42.929 44.4033H39.1692C39.0846 44.4033 39.0195 44.4131 38.9739 44.4326C38.9283 44.4521 38.9056 44.4782 38.9056 44.5107C38.9056 44.5173 38.9056 44.54 38.9056 44.5791C38.9121 44.6182 38.9251 44.6702 38.9446 44.7354C39.0618 45.2822 39.1985 46.0114 39.3548 46.9229C39.511 47.8343 39.6185 48.5374 39.677 49.0322C39.6966 49.1689 39.7063 49.3122 39.7063 49.4619C39.7063 49.6051 39.6966 49.7223 39.677 49.8135C39.6185 50.1064 39.511 50.5003 39.3548 50.9951C39.1985 51.4899 39.0651 51.8643 38.9544 52.1182C38.8828 52.32 38.7428 52.4209 38.5345 52.4209H35.4778C35.4323 52.4209 35.3932 52.4111 35.3606 52.3916C35.3346 52.3656 35.3216 52.3363 35.3216 52.3037C35.3216 52.2516 35.3444 52.1963 35.3899 52.1377C35.6504 51.6885 35.9238 51.2881 36.2103 50.9365ZM48.1395 51.9717C48.4065 51.848 48.7678 51.6755 49.2235 51.4541C49.6858 51.2327 49.9885 51.0765 50.1317 50.9854C50.2424 50.9268 50.2978 50.8486 50.2978 50.751C50.2912 50.7119 50.2782 50.6598 50.2587 50.5947C50.2392 50.5231 50.2196 50.4678 50.2001 50.4287L49.9169 49.4619C49.663 48.596 49.4449 47.8929 49.2626 47.3525C49.0803 46.8122 48.8524 46.2327 48.579 45.6143C48.3056 44.9893 47.9703 44.335 47.5731 43.6514C47.4755 43.4756 47.4267 43.3584 47.4267 43.2998C47.4267 43.2607 47.4462 43.2152 47.4853 43.1631C47.5243 43.111 47.5504 43.0752 47.5634 43.0557C47.7066 42.8799 47.8889 42.6585 48.1103 42.3916C48.3381 42.1247 48.4813 41.9717 48.5399 41.9326C48.553 41.9261 48.5757 41.9131 48.6083 41.8936C48.6474 41.874 48.6832 41.8643 48.7157 41.8643C48.7938 41.8643 48.8459 41.9001 48.872 41.9717C49.2951 42.8571 49.6532 43.7751 49.9462 44.7256C50.2392 45.6696 50.5712 46.861 50.9423 48.2998C51.0465 48.71 51.2092 49.3252 51.4306 50.1455C51.4501 50.2236 51.4892 50.2627 51.5478 50.2627C51.5803 50.2627 51.6161 50.2562 51.6552 50.2432C51.6942 50.2236 51.7235 50.2074 51.7431 50.1943C52.3225 49.8298 52.7619 49.5498 53.0614 49.3545C53.3609 49.1592 53.553 49.0127 53.6376 48.915C53.7613 48.7848 53.8427 48.6318 53.8817 48.4561C53.9273 48.2738 53.9501 48.0264 53.9501 47.7139C53.9501 46.6396 53.7743 45.4613 53.4228 44.1787C53.2991 43.736 53.2372 43.4495 53.2372 43.3193C53.2372 43.2412 53.2632 43.1598 53.3153 43.0752C53.4455 42.9059 53.6278 42.6943 53.8622 42.4404C54.0966 42.18 54.2561 42.0107 54.3407 41.9326C54.3537 41.9261 54.3733 41.9131 54.3993 41.8936C54.4319 41.874 54.4612 41.8643 54.4872 41.8643C54.5263 41.8643 54.5653 41.8805 54.6044 41.9131C54.6435 41.9456 54.6695 41.9945 54.6825 42.0596C54.8648 42.7171 54.995 43.4137 55.0731 44.1494C55.1513 44.8851 55.1903 45.6012 55.1903 46.2979C55.1903 46.695 55.1578 47.0335 55.0927 47.3135C55.0341 47.5869 54.9267 47.9645 54.7704 48.4463C54.6402 48.8434 54.4319 49.2503 54.1454 49.667C53.859 50.0771 53.4846 50.458 53.0224 50.8096C52.4104 51.2653 51.5738 51.7894 50.5126 52.3818C49.4579 52.9743 48.452 53.4788 47.495 53.8955C47.3583 53.9476 47.2704 53.9736 47.2313 53.9736C47.1858 53.9736 47.1467 53.9574 47.1142 53.9248C47.0881 53.8923 47.0751 53.8532 47.0751 53.8076C47.0751 53.7165 47.1662 53.4821 47.3485 53.1045C47.5308 52.7334 47.6741 52.46 47.7782 52.2842C47.8173 52.2061 47.8629 52.1442 47.9149 52.0986C47.9735 52.0531 48.0484 52.0107 48.1395 51.9717ZM57.2759 51.0146C57.341 50.93 57.3996 50.8649 57.4517 50.8193C57.5103 50.7738 57.5851 50.751 57.6763 50.751H62.7349C62.8521 50.751 62.9302 50.7347 62.9692 50.7021C63.0083 50.6696 63.0278 50.6175 63.0278 50.5459C63.0278 50.4027 62.979 50.2855 62.8813 50.1943C62.4842 49.7646 61.856 49.1657 60.9966 48.3975L60.5571 47.9971C60.5116 47.9515 60.3586 47.8115 60.0981 47.5771C59.8442 47.3363 59.6326 47.1377 59.4634 46.9814C59.2941 46.8252 59.0174 46.5713 58.6333 46.2197C58.2492 45.8682 58.005 45.637 57.9009 45.5264C57.5949 45.1943 57.341 44.9014 57.1392 44.6475C56.9373 44.387 56.7257 44.0615 56.5044 43.6709C56.4718 43.6318 56.4556 43.5928 56.4556 43.5537C56.4556 43.5212 56.4621 43.4919 56.4751 43.4658C56.4881 43.4333 56.4979 43.4137 56.5044 43.4072C56.7062 43.0947 56.8755 42.8506 57.0122 42.6748C57.1554 42.4925 57.3117 42.3037 57.481 42.1084C57.52 42.0498 57.5623 41.9977 57.6079 41.9521C57.6665 41.8936 57.7121 41.8643 57.7446 41.8643C57.7707 41.8643 57.8 41.8773 57.8325 41.9033C57.8651 41.9229 57.8879 41.9521 57.9009 41.9912C58.2199 42.7855 58.6626 43.5798 59.229 44.374C59.8345 45.1878 60.6287 45.9854 61.6118 46.7666C61.6509 46.8057 61.6834 46.8317 61.7095 46.8447C61.742 46.8512 61.7811 46.8545 61.8267 46.8545C61.9373 46.8545 62.061 46.7568 62.1978 46.5615C62.3084 46.3467 62.3996 46.109 62.4712 45.8486C62.5428 45.5882 62.5786 45.2594 62.5786 44.8623C62.5786 44.5173 62.5135 44.1722 62.3833 43.8271C62.3377 43.723 62.3149 43.6546 62.3149 43.6221C62.3149 43.5635 62.3377 43.5016 62.3833 43.4365C62.5461 43.2152 62.7479 42.9548 62.9888 42.6553C63.2362 42.3493 63.4347 42.1214 63.5845 41.9717C63.617 41.9391 63.6463 41.9131 63.6724 41.8936C63.7049 41.874 63.731 41.8643 63.7505 41.8643C63.8026 41.8643 63.8547 41.9098 63.9067 42.001C64.2062 42.5674 64.356 43.2119 64.356 43.9346C64.356 44.4684 64.2095 45.0348 63.9165 45.6338C63.63 46.2262 63.2297 46.8122 62.7153 47.3916C62.6958 47.4111 62.6763 47.4437 62.6567 47.4893C62.6372 47.5283 62.6274 47.5674 62.6274 47.6064C62.6274 47.665 62.6405 47.7074 62.6665 47.7334C63.578 48.5602 64.1346 49.1071 64.3364 49.374C64.4927 49.5628 64.5708 49.7777 64.5708 50.0186C64.5708 50.2399 64.4992 50.4808 64.356 50.7412L64.2095 51.0049C63.9686 51.4671 63.7505 51.8382 63.5552 52.1182C63.464 52.2484 63.3794 52.333 63.3013 52.3721C63.2231 52.4046 63.1092 52.4209 62.9595 52.4209H56.6704C56.5728 52.4209 56.5011 52.4046 56.4556 52.3721C56.4165 52.3395 56.397 52.2972 56.397 52.2451C56.397 52.2191 56.4035 52.1963 56.4165 52.1768C56.4295 52.1507 56.4425 52.1312 56.4556 52.1182C56.6639 51.8122 56.8625 51.542 57.0513 51.3076L57.2759 51.0146ZM74.5274 45.8193C74.3907 44.8753 73.9155 44.4033 73.1017 44.4033H66.8028C66.588 44.4033 66.422 44.374 66.3048 44.3154C66.1941 44.2503 66.1388 44.1689 66.1388 44.0713C66.1388 43.9997 66.1616 43.9313 66.2071 43.8662C66.3569 43.6318 66.6043 43.2998 66.9493 42.8701C67.3009 42.4404 67.5711 42.141 67.7599 41.9717C67.8445 41.9001 67.9063 41.8643 67.9454 41.8643C68.0496 41.8643 68.1179 41.9359 68.1505 42.0791C68.157 42.1182 68.1635 42.18 68.17 42.2646C68.183 42.3428 68.1993 42.4176 68.2188 42.4893C68.2449 42.5544 68.2807 42.6032 68.3263 42.6357C68.3784 42.6813 68.4467 42.7106 68.5313 42.7236C68.616 42.7367 68.7169 42.7432 68.8341 42.7432H73.4044C73.6909 42.7432 73.948 42.7725 74.1759 42.8311C74.4103 42.8831 74.6544 43.0068 74.9083 43.2021C75.2013 43.417 75.4194 43.6774 75.5626 43.9834C75.7058 44.2829 75.8002 44.6442 75.8458 45.0674C76.0021 46.3695 76.0802 48.3584 76.0802 51.0342C76.0802 51.1318 76.0769 51.2067 76.0704 51.2588C76.0639 51.3109 76.0444 51.376 76.0118 51.4541C75.9532 51.6038 75.8263 51.8447 75.631 52.1768C75.4356 52.5088 75.2957 52.7171 75.211 52.8018C75.1655 52.8473 75.1166 52.8701 75.0646 52.8701C75.0125 52.8701 74.9702 52.8506 74.9376 52.8115C74.905 52.7725 74.8888 52.7236 74.8888 52.665L74.8302 51.0146C74.7911 49.667 74.7521 48.596 74.713 47.8018C74.6739 47.001 74.6121 46.3402 74.5274 45.8193ZM67.3106 47.9092C67.3106 47.6813 67.3334 47.5218 67.379 47.4307C67.4702 47.2484 67.5971 47.0368 67.7599 46.7959C67.9226 46.555 68.0952 46.3304 68.2774 46.1221C68.31 46.0895 68.3425 46.0732 68.3751 46.0732C68.4728 46.0732 68.5313 46.1481 68.5509 46.2979C68.616 46.6885 68.6713 47.4925 68.7169 48.71C68.7625 49.9209 68.7853 50.7673 68.7853 51.249C68.7853 51.3662 68.756 51.4899 68.6974 51.6201C68.463 52.0824 68.2286 52.46 67.9942 52.7529C67.9617 52.7985 67.9291 52.8278 67.8966 52.8408C67.864 52.8604 67.825 52.8701 67.7794 52.8701C67.7403 52.8701 67.7045 52.8506 67.672 52.8115C67.6459 52.779 67.6297 52.7301 67.6231 52.665C67.4148 49.7809 67.3106 48.1956 67.3106 47.9092Z" fill="#0052B4"/>
</svg>
