<svg width="64" height="64" viewBox="0 0 64 64" fill="none" xmlns="http://www.w3.org/2000/svg">
<path fill-rule="evenodd" clip-rule="evenodd" d="M20.4238 22.7372V0.5H32.0005H43.5772V22.7372C43.5772 28.2891 36.0966 28.2891 34.4582 28.2891C32.8701 28.2891 32.0005 29.4209 32.0005 29.4209C32.0005 29.4209 31.1309 28.2891 29.5428 28.2891C27.9044 28.2891 20.4238 28.2891 20.4238 22.7372Z" fill="#0052B4"/>
<path d="M2.72736 45.3428C2.71174 45.2386 2.64403 45.1657 2.52424 45.124C2.40966 45.0771 2.29768 45.0485 2.1883 45.0381C2.08413 45.0225 2.01643 45.012 1.98518 45.0068C1.89663 44.986 1.85236 44.9417 1.85236 44.874C1.85236 44.8271 1.87059 44.7699 1.90705 44.7021C2.09976 44.3949 2.32372 44.0876 2.57893 43.7803C2.83413 43.4678 3.04247 43.2334 3.20393 43.0771C3.27163 43.0094 3.33934 42.9756 3.40705 42.9756C3.45913 42.9756 3.50341 42.9938 3.53986 43.0303C3.58153 43.0615 3.60757 43.1058 3.61799 43.1631C3.63361 43.21 3.65445 43.2829 3.68049 43.3818C3.70653 43.4808 3.7482 43.5563 3.80549 43.6084C3.86799 43.6553 3.96174 43.6787 4.08674 43.6787H8.89924C9.18049 43.6787 9.41747 43.749 9.61018 43.8896C9.80288 44.0251 9.94611 44.2048 10.0399 44.4287C10.1388 44.6475 10.1883 44.887 10.1883 45.1475C10.1883 45.6214 10.1206 46.1084 9.98518 46.6084C9.85497 47.1032 9.69611 47.5641 9.50861 47.9912C8.9357 49.3298 8.17788 50.2803 7.23518 50.8428C6.97476 50.999 6.62841 51.1761 6.19611 51.374C5.76382 51.5667 5.48257 51.6631 5.35236 51.6631C5.23257 51.6631 5.17268 51.611 5.17268 51.5068C5.17268 51.4235 5.26382 51.2178 5.44611 50.8896C5.62841 50.5563 5.72736 50.3766 5.74299 50.3506C5.80028 50.2673 5.84455 50.21 5.8758 50.1787C5.90705 50.1475 5.95653 50.1214 6.02424 50.1006C6.51382 49.9548 6.91486 49.8167 7.22736 49.6865C7.53986 49.5563 7.82632 49.374 8.08674 49.1396C8.35236 48.9001 8.55288 48.5928 8.6883 48.2178C8.76122 48.0146 8.83413 47.7126 8.90705 47.3115C8.98518 46.9105 9.02424 46.5433 9.02424 46.21C9.02424 45.8558 8.96695 45.5667 8.85236 45.3428C8.73778 45.1188 8.52945 45.0068 8.22736 45.0068H4.18049C4.13361 45.0068 4.08674 45.0303 4.03986 45.0771C3.99299 45.124 3.96955 45.1761 3.96955 45.2334C4.01122 46.0928 4.03205 47.2542 4.03205 48.7178L4.03986 50.71C4.03986 52.137 4.03205 52.9938 4.01643 53.2803C4.01643 53.3063 4.00861 53.348 3.99299 53.4053C3.97736 53.4678 3.95653 53.5329 3.93049 53.6006C3.86278 53.7516 3.76643 53.9209 3.64143 54.1084C3.52163 54.2959 3.41226 54.4469 3.3133 54.5615C3.28205 54.6032 3.24038 54.624 3.1883 54.624C3.15184 54.624 3.12059 54.6084 3.09455 54.5771C3.06851 54.5511 3.05549 54.5225 3.05549 54.4912C3.05028 54.1839 3.04507 53.8115 3.03986 53.374C3.03466 52.9417 3.03205 52.6058 3.03205 52.3662C3.01643 50.7152 2.99038 49.3766 2.95393 48.3506C2.91747 47.3193 2.84195 46.3167 2.72736 45.3428ZM14.1771 51.7803C14.1458 51.7803 14.1198 51.7673 14.0989 51.7412C14.0781 51.7204 14.0677 51.6943 14.0677 51.6631C14.0677 49.1423 14.0182 47.4183 13.9192 46.4912C13.9036 46.3402 13.8698 46.2048 13.8177 46.085C13.7656 45.9652 13.6744 45.8428 13.5442 45.7178C13.2994 45.499 12.9739 45.2646 12.5677 45.0146C12.1614 44.7594 11.8021 44.5563 11.4896 44.4053C11.4375 44.3688 11.3984 44.3402 11.3724 44.3193C11.3515 44.2933 11.3411 44.262 11.3411 44.2256C11.3411 44.1943 11.3541 44.1605 11.3802 44.124C11.4062 44.0824 11.4244 44.0563 11.4349 44.0459C11.5286 43.8949 11.6614 43.7152 11.8333 43.5068C12.0052 43.2985 12.1354 43.1449 12.2239 43.0459C12.2291 43.0407 12.2448 43.0277 12.2708 43.0068C12.2968 42.986 12.3203 42.9756 12.3411 42.9756C12.3619 42.9756 12.3906 42.986 12.4271 43.0068C12.4687 43.0225 12.5 43.0355 12.5208 43.0459C13.0989 43.3376 13.7057 43.749 14.3411 44.2803C14.5755 44.4834 14.7448 44.6969 14.8489 44.9209C14.9531 45.1449 15.0182 45.387 15.0442 45.6475C15.0547 45.8193 15.0677 46.1318 15.0833 46.585C15.0989 47.0381 15.1067 47.4261 15.1067 47.749C15.1067 48.9834 15.0937 49.9053 15.0677 50.5146C15.0677 50.5615 15.0573 50.6136 15.0364 50.6709C15.0156 50.723 14.9948 50.7725 14.9739 50.8193C14.8854 50.9756 14.7656 51.1527 14.6146 51.3506C14.4635 51.5433 14.3489 51.6735 14.2708 51.7412C14.2396 51.7673 14.2083 51.7803 14.1771 51.7803ZM17.7674 51.7021C17.7205 50.3584 17.6762 49.3141 17.6346 48.5693C17.5981 47.8193 17.5408 47.1318 17.4627 46.5068C17.3898 45.8766 17.2856 45.3584 17.1502 44.9521C17.1241 44.874 17.1111 44.8037 17.1111 44.7412C17.1111 44.6683 17.1346 44.5798 17.1814 44.4756C17.2439 44.3662 17.3976 44.1292 17.6424 43.7646C17.8872 43.4001 18.0564 43.1657 18.1502 43.0615C18.171 43.0407 18.1997 43.0225 18.2361 43.0068C18.2726 42.986 18.3038 42.9756 18.3299 42.9756C18.3715 42.9756 18.4132 42.9886 18.4549 43.0146C18.4965 43.0407 18.5252 43.0798 18.5408 43.1318C18.5512 43.1683 18.5642 43.223 18.5799 43.2959C18.6007 43.3688 18.6215 43.4339 18.6424 43.4912C18.6632 43.5433 18.6918 43.5771 18.7283 43.5928C18.7804 43.624 18.8585 43.6501 18.9627 43.6709C19.0668 43.6865 19.1736 43.6943 19.283 43.6943H21.6502C22.2439 43.6943 22.783 43.874 23.2674 44.2334C23.7569 44.5876 24.1372 45.0407 24.408 45.5928C24.6215 46.0355 24.7674 46.5485 24.8455 47.1318C24.9236 47.7152 24.9627 48.3662 24.9627 49.085C24.9627 49.5381 24.9549 49.9756 24.9392 50.3975C24.934 50.5485 24.9236 50.6605 24.908 50.7334C24.8924 50.8011 24.8663 50.8662 24.8299 50.9287C24.7622 51.0537 24.6684 51.2048 24.5486 51.3818C24.434 51.5537 24.3507 51.6683 24.2986 51.7256C24.2622 51.762 24.2283 51.7803 24.1971 51.7803C24.1137 51.7803 24.0721 51.6839 24.0721 51.4912C23.9471 48.6787 23.7023 46.9626 23.3377 46.3428C23.2387 46.1605 23.0929 45.9704 22.9002 45.7725C22.7075 45.5693 22.4679 45.3949 22.1814 45.249C21.9002 45.098 21.5903 45.0225 21.2517 45.0225H18.9549C18.8403 45.0225 18.7543 45.0589 18.6971 45.1318C18.645 45.1995 18.6189 45.2933 18.6189 45.4131L18.6346 45.6553C18.7231 46.9105 18.7674 47.8298 18.7674 48.4131C18.7674 49.1006 18.7491 49.7074 18.7127 50.2334C18.6971 50.4157 18.6632 50.5589 18.6111 50.6631C18.5069 50.887 18.408 51.0798 18.3142 51.2412C18.2205 51.4027 18.1007 51.5641 17.9549 51.7256C17.9184 51.762 17.8819 51.7803 17.8455 51.7803C17.8247 51.7803 17.8064 51.7725 17.7908 51.7568C17.7752 51.7412 17.7674 51.723 17.7674 51.7021ZM29.7683 50.2334C29.7996 50.1865 29.8308 50.1579 29.8621 50.1475C29.8933 50.1318 29.9558 50.124 30.0496 50.124H31.5886C31.6876 50.124 31.7371 50.0719 31.7371 49.9678C31.7371 49.8688 31.6746 49.4912 31.5496 48.835C31.4298 48.1735 31.2865 47.4938 31.1199 46.7959C30.9584 46.098 30.8074 45.5693 30.6667 45.21C30.6459 45.1423 30.6121 45.0902 30.5652 45.0537C30.5235 45.012 30.474 44.9912 30.4167 44.9912H29.4792C29.4115 44.9912 29.3516 44.973 29.2996 44.9365C29.2475 44.8949 29.2214 44.8428 29.2214 44.7803C29.2214 44.7542 29.2371 44.7178 29.2683 44.6709C29.3568 44.5146 29.5496 44.2334 29.8464 43.8271C30.1485 43.4209 30.3647 43.1605 30.4949 43.0459C30.5574 42.999 30.6094 42.9756 30.6511 42.9756C30.7397 42.9756 30.8126 43.0459 30.8699 43.1865C30.8855 43.223 30.9141 43.2959 30.9558 43.4053C30.9975 43.5146 31.0417 43.5902 31.0886 43.6318C31.1355 43.6735 31.1954 43.6943 31.2683 43.6943H35.2136C36.0365 43.6943 36.5964 43.973 36.8933 44.5303C37.0339 44.8011 37.1355 45.4183 37.198 46.3818C37.2657 47.3402 37.2996 48.3115 37.2996 49.2959C37.2996 49.8063 37.2943 50.1214 37.2839 50.2412C37.2735 50.4079 37.2553 50.5199 37.2292 50.5771C37.0782 50.9626 36.9011 51.3245 36.698 51.6631C36.6772 51.6943 36.6511 51.7204 36.6199 51.7412C36.5886 51.7673 36.56 51.7803 36.5339 51.7803C36.4923 51.7803 36.4558 51.7646 36.4246 51.7334C36.3985 51.7021 36.3829 51.6553 36.3777 51.5928C36.3621 51.4834 36.3464 51.0667 36.3308 50.3428C36.2943 49.2334 36.2553 48.2803 36.2136 47.4834C36.1719 46.6865 36.1199 46.1605 36.0574 45.9053C35.974 45.598 35.8621 45.3714 35.7214 45.2256C35.5808 45.0798 35.3881 45.0068 35.1433 45.0068H32.1355C32.0678 45.0068 32.0157 45.0146 31.9792 45.0303C31.9428 45.0459 31.9246 45.0667 31.9246 45.0928C31.9246 45.098 31.9246 45.1162 31.9246 45.1475C31.9298 45.1787 31.9402 45.2204 31.9558 45.2725C32.0496 45.71 32.1589 46.2933 32.2839 47.0225C32.4089 47.7516 32.4949 48.3141 32.5417 48.71C32.5574 48.8193 32.5652 48.9339 32.5652 49.0537C32.5652 49.1683 32.5574 49.262 32.5417 49.335C32.4949 49.5693 32.4089 49.8844 32.2839 50.2803C32.1589 50.6761 32.0522 50.9756 31.9636 51.1787C31.9063 51.3402 31.7943 51.4209 31.6277 51.4209H29.1824C29.1459 51.4209 29.1147 51.4131 29.0886 51.3975C29.0678 51.3766 29.0574 51.3532 29.0574 51.3271C29.0574 51.2855 29.0756 51.2412 29.1121 51.1943C29.3204 50.835 29.5391 50.5146 29.7683 50.2334ZM39.3117 51.0615C39.5253 50.9626 39.8143 50.8245 40.1789 50.6475C40.5487 50.4704 40.7909 50.3454 40.9055 50.2725C40.994 50.2256 41.0383 50.1631 41.0383 50.085C41.0331 50.0537 41.0227 50.012 41.007 49.96C40.9914 49.9027 40.9758 49.8584 40.9602 49.8271L40.7336 49.0537C40.5305 48.361 40.356 47.7985 40.2102 47.3662C40.0643 46.9339 39.882 46.4704 39.6633 45.9756C39.4445 45.4756 39.1763 44.9521 38.8586 44.4053C38.7805 44.2646 38.7414 44.1709 38.7414 44.124C38.7414 44.0928 38.757 44.0563 38.7883 44.0146C38.8195 43.973 38.8404 43.9443 38.8508 43.9287C38.9654 43.7881 39.1112 43.611 39.2883 43.3975C39.4706 43.1839 39.5852 43.0615 39.632 43.0303C39.6425 43.0251 39.6607 43.0146 39.6867 42.999C39.718 42.9834 39.7466 42.9756 39.7727 42.9756C39.8352 42.9756 39.8768 43.0042 39.8977 43.0615C40.2362 43.7699 40.5227 44.5042 40.757 45.2646C40.9914 46.0199 41.257 46.973 41.5539 48.124C41.6373 48.4521 41.7675 48.9443 41.9445 49.6006C41.9602 49.6631 41.9914 49.6943 42.0383 49.6943C42.0643 49.6943 42.093 49.6891 42.1242 49.6787C42.1555 49.6631 42.1789 49.6501 42.1945 49.6396C42.6581 49.348 43.0097 49.124 43.2492 48.9678C43.4888 48.8115 43.6425 48.6943 43.7102 48.6162C43.8091 48.512 43.8742 48.3896 43.9055 48.249C43.9419 48.1032 43.9602 47.9053 43.9602 47.6553C43.9602 46.7959 43.8195 45.8532 43.5383 44.8271C43.4393 44.473 43.3899 44.2438 43.3899 44.1396C43.3899 44.0771 43.4107 44.012 43.4524 43.9443C43.5565 43.8089 43.7024 43.6396 43.8899 43.4365C44.0774 43.2282 44.205 43.0928 44.2727 43.0303C44.2831 43.0251 44.2987 43.0146 44.3195 42.999C44.3456 42.9834 44.369 42.9756 44.3899 42.9756C44.4211 42.9756 44.4524 42.9886 44.4836 43.0146C44.5149 43.0407 44.5357 43.0798 44.5461 43.1318C44.6919 43.6579 44.7961 44.2152 44.8586 44.8037C44.9211 45.3923 44.9524 45.9652 44.9524 46.5225C44.9524 46.8402 44.9263 47.111 44.8742 47.335C44.8274 47.5537 44.7414 47.8558 44.6164 48.2412C44.5123 48.5589 44.3456 48.8844 44.1164 49.2178C43.8873 49.5459 43.5878 49.8506 43.218 50.1318C42.7284 50.4964 42.0591 50.9157 41.2102 51.3896C40.3664 51.8636 39.5617 52.2673 38.7961 52.6006C38.6867 52.6423 38.6164 52.6631 38.5852 52.6631C38.5487 52.6631 38.5175 52.6501 38.4914 52.624C38.4706 52.598 38.4602 52.5667 38.4602 52.5303C38.4602 52.4574 38.5331 52.2699 38.6789 51.9678C38.8248 51.6709 38.9393 51.4521 39.0227 51.3115C39.0539 51.249 39.0904 51.1995 39.132 51.1631C39.1789 51.1266 39.2388 51.0928 39.3117 51.0615ZM46.6208 50.2959C46.6729 50.2282 46.7198 50.1761 46.7614 50.1396C46.8083 50.1032 46.8682 50.085 46.9411 50.085H50.988C51.0817 50.085 51.1442 50.0719 51.1755 50.0459C51.2067 50.0199 51.2224 49.9782 51.2224 49.9209C51.2224 49.8063 51.1833 49.7126 51.1052 49.6396C50.7875 49.2959 50.2849 48.8167 49.5974 48.2021L49.2458 47.8818C49.2093 47.8454 49.0869 47.7334 48.8786 47.5459C48.6755 47.3532 48.5062 47.1943 48.3708 47.0693C48.2354 46.9443 48.014 46.7412 47.7067 46.46C47.3994 46.1787 47.2041 45.9938 47.1208 45.9053C46.876 45.6396 46.6729 45.4053 46.5114 45.2021C46.35 44.9938 46.1807 44.7334 46.0036 44.4209C45.9776 44.3896 45.9646 44.3584 45.9646 44.3271C45.9646 44.3011 45.9698 44.2777 45.9802 44.2568C45.9906 44.2308 45.9984 44.2152 46.0036 44.21C46.1651 43.96 46.3005 43.7646 46.4099 43.624C46.5244 43.4782 46.6494 43.3271 46.7849 43.1709C46.8161 43.124 46.85 43.0824 46.8864 43.0459C46.9333 42.999 46.9698 42.9756 46.9958 42.9756C47.0166 42.9756 47.0401 42.986 47.0661 43.0068C47.0922 43.0225 47.1104 43.0459 47.1208 43.0771C47.376 43.7126 47.7302 44.348 48.1833 44.9834C48.6677 45.6344 49.3031 46.2725 50.0896 46.8975C50.1208 46.9287 50.1468 46.9495 50.1677 46.96C50.1937 46.9652 50.225 46.9678 50.2614 46.9678C50.35 46.9678 50.4489 46.8896 50.5583 46.7334C50.6468 46.5615 50.7198 46.3714 50.7771 46.1631C50.8343 45.9548 50.863 45.6917 50.863 45.374C50.863 45.098 50.8109 44.8219 50.7067 44.5459C50.6703 44.4626 50.6521 44.4079 50.6521 44.3818C50.6521 44.335 50.6703 44.2855 50.7067 44.2334C50.8369 44.0563 50.9984 43.848 51.1911 43.6084C51.389 43.3636 51.5479 43.1813 51.6677 43.0615C51.6937 43.0355 51.7172 43.0146 51.738 42.999C51.764 42.9834 51.7849 42.9756 51.8005 42.9756C51.8422 42.9756 51.8838 43.012 51.9255 43.085C52.1651 43.5381 52.2849 44.0537 52.2849 44.6318C52.2849 45.0589 52.1677 45.512 51.9333 45.9912C51.7041 46.4652 51.3838 46.9339 50.9724 47.3975C50.9567 47.4131 50.9411 47.4391 50.9255 47.4756C50.9099 47.5068 50.9021 47.5381 50.9021 47.5693C50.9021 47.6162 50.9125 47.6501 50.9333 47.6709C51.6625 48.3324 52.1078 48.7699 52.2692 48.9834C52.3942 49.1344 52.4567 49.3063 52.4567 49.499C52.4567 49.6761 52.3994 49.8688 52.2849 50.0771L52.1677 50.2881C51.975 50.6579 51.8005 50.9548 51.6442 51.1787C51.5713 51.2829 51.5036 51.3506 51.4411 51.3818C51.3786 51.4079 51.2875 51.4209 51.1677 51.4209H46.1364C46.0583 51.4209 46.001 51.4079 45.9646 51.3818C45.9333 51.3558 45.9177 51.3219 45.9177 51.2803C45.9177 51.2594 45.9229 51.2412 45.9333 51.2256C45.9437 51.2048 45.9541 51.1891 45.9646 51.1787C46.1312 50.9339 46.2901 50.7178 46.4411 50.5303L46.6208 50.2959ZM60.4221 46.1396C60.3127 45.3844 59.9325 45.0068 59.2814 45.0068H54.2424C54.0705 45.0068 53.9377 44.9834 53.8439 44.9365C53.7554 44.8844 53.7111 44.8193 53.7111 44.7412C53.7111 44.6839 53.7293 44.6292 53.7658 44.5771C53.8856 44.3896 54.0835 44.124 54.3596 43.7803C54.6408 43.4365 54.8569 43.1969 55.008 43.0615C55.0757 43.0042 55.1252 42.9756 55.1564 42.9756C55.2398 42.9756 55.2944 43.0329 55.3205 43.1475C55.3257 43.1787 55.3309 43.2282 55.3361 43.2959C55.3465 43.3584 55.3596 43.4183 55.3752 43.4756C55.396 43.5277 55.4247 43.5667 55.4611 43.5928C55.5028 43.6292 55.5575 43.6527 55.6252 43.6631C55.6929 43.6735 55.7736 43.6787 55.8674 43.6787H59.5236C59.7528 43.6787 59.9585 43.7021 60.1408 43.749C60.3283 43.7907 60.5236 43.8896 60.7267 44.0459C60.9611 44.2178 61.1356 44.4261 61.2502 44.6709C61.3648 44.9105 61.4403 45.1995 61.4767 45.5381C61.6017 46.5798 61.6642 48.1709 61.6642 50.3115C61.6642 50.3896 61.6616 50.4495 61.6564 50.4912C61.6512 50.5329 61.6356 50.585 61.6096 50.6475C61.5627 50.7673 61.4611 50.96 61.3049 51.2256C61.1486 51.4912 61.0366 51.6579 60.9689 51.7256C60.9325 51.762 60.8934 51.7803 60.8517 51.7803C60.8101 51.7803 60.7762 51.7646 60.7502 51.7334C60.7241 51.7021 60.7111 51.6631 60.7111 51.6162L60.6642 50.2959C60.633 49.2178 60.6017 48.361 60.5705 47.7256C60.5392 47.085 60.4898 46.5563 60.4221 46.1396ZM54.6486 47.8115C54.6486 47.6292 54.6668 47.5016 54.7033 47.4287C54.7762 47.2829 54.8778 47.1136 55.008 46.9209C55.1382 46.7282 55.2762 46.5485 55.4221 46.3818C55.4481 46.3558 55.4741 46.3428 55.5002 46.3428C55.5783 46.3428 55.6252 46.4027 55.6408 46.5225C55.6929 46.835 55.7372 47.4782 55.7736 48.4521C55.8101 49.4209 55.8283 50.098 55.8283 50.4834C55.8283 50.5771 55.8049 50.6761 55.758 50.7803C55.5705 51.1501 55.383 51.4521 55.1955 51.6865C55.1694 51.723 55.1434 51.7464 55.1174 51.7568C55.0913 51.7725 55.0601 51.7803 55.0236 51.7803C54.9924 51.7803 54.9637 51.7646 54.9377 51.7334C54.9168 51.7074 54.9038 51.6683 54.8986 51.6162C54.7319 49.3089 54.6486 48.0407 54.6486 47.8115Z" fill="#0052B4"/>
</svg>
