<svg width="56" height="56" viewBox="0 0 56 56" fill="none" xmlns="http://www.w3.org/2000/svg">
<path d="M33.5 19.503C33.5 19.3704 33.4473 19.2432 33.3536 19.1494C33.2598 19.0557 33.1326 19.003 33 19.003H30.5C29.2411 18.9403 28.0086 19.3784 27.0717 20.2216C26.1348 21.0648 25.5698 22.2445 25.5 23.503V26.203H23C22.8674 26.203 22.7402 26.2557 22.6464 26.3494C22.5527 26.4432 22.5 26.5704 22.5 26.703V29.303C22.5 29.4356 22.5527 29.5628 22.6464 29.6565C22.7402 29.7503 22.8674 29.803 23 29.803H25.5V36.503C25.5 36.6356 25.5527 36.7628 25.6464 36.8565C25.7402 36.9503 25.8674 37.003 26 37.003H29C29.1326 37.003 29.2598 36.9503 29.3536 36.8565C29.4473 36.7628 29.5 36.6356 29.5 36.503V29.803H32.12C32.2312 29.8046 32.3397 29.7691 32.4285 29.7021C32.5172 29.635 32.5811 29.5404 32.61 29.433L33.33 26.833C33.3499 26.7591 33.3526 26.6816 33.3378 26.6066C33.3231 26.5315 33.2913 26.4608 33.2449 26.4C33.1985 26.3391 33.1388 26.2897 33.0704 26.2555C33.0019 26.2214 32.9265 26.2034 32.85 26.203H29.5V23.503C29.5249 23.2555 29.6411 23.0261 29.826 22.8597C30.0109 22.6933 30.2512 22.6017 30.5 22.603H33C33.1326 22.603 33.2598 22.5503 33.3536 22.4565C33.4473 22.3628 33.5 22.2356 33.5 22.103V19.503Z" fill="#405790"/>
<rect x="1" y="1" width="54" height="54" rx="27" stroke="#405790" stroke-width="2"/>
</svg>
