<svg width="77" height="50" viewBox="0 0 77 50" fill="none" xmlns="http://www.w3.org/2000/svg">
<g style="mix-blend-mode:multiply">
<path d="M15.889 14.342C15.217 14.342 14.527 14.264 13.819 14.108C13.111 13.952 12.499 13.712 11.983 13.388L12.091 10.724H13.765L14.125 12.938C14.401 13.046 14.677 13.13 14.953 13.19C15.229 13.238 15.535 13.262 15.871 13.262C16.519 13.262 17.011 13.1 17.347 12.776C17.683 12.44 17.851 12.032 17.851 11.552C17.851 11.072 17.725 10.7 17.473 10.436C17.233 10.172 16.843 9.92 16.303 9.68L15.529 9.338C14.473 8.846 13.651 8.3 13.063 7.7C12.487 7.1 12.199 6.302 12.199 5.306C12.199 4.226 12.601 3.38 13.405 2.768C14.221 2.144 15.307 1.832 16.663 1.832C17.311 1.832 17.929 1.916 18.517 2.084C19.117 2.24 19.633 2.462 20.065 2.75L19.921 5.27H18.265L17.923 3.146C17.731 3.074 17.539 3.02 17.347 2.984C17.155 2.936 16.945 2.912 16.717 2.912C16.201 2.912 15.763 3.062 15.403 3.362C15.043 3.662 14.863 4.058 14.863 4.55C14.863 5.03 15.001 5.414 15.277 5.702C15.565 5.978 15.973 6.236 16.501 6.476L17.347 6.854C18.487 7.37 19.309 7.916 19.813 8.492C20.329 9.056 20.587 9.794 20.587 10.706C20.587 11.762 20.185 12.632 19.381 13.316C18.589 14 17.425 14.342 15.889 14.342ZM20.9845 14V13.154L21.9925 12.938C22.0045 12.494 22.0105 12.02 22.0105 11.516C22.0105 11.012 22.0105 10.58 22.0105 10.22V2.678L20.8945 2.498V1.742L24.6745 0.932L24.9625 1.112L24.8905 3.632V9.158L27.8065 6.314L26.4385 6.098V5.306H30.7765V6.098L29.1565 6.332L27.5725 7.826L30.1105 12.884L31.2625 13.154V14H27.5905L25.5565 9.698L24.8905 10.328C24.8905 10.724 24.8905 11.162 24.8905 11.642C24.9025 12.11 24.9085 12.548 24.9085 12.956L25.8805 13.154V14H20.9845ZM31.2743 14V13.154L32.2463 12.938C32.2583 12.506 32.2643 12.038 32.2643 11.534C32.2643 11.03 32.2643 10.592 32.2643 10.22V9.356C32.2643 8.864 32.2583 8.456 32.2463 8.132C32.2463 7.796 32.2343 7.448 32.2103 7.088L31.0943 6.926V6.224L34.8743 5.018L35.1803 5.216L35.1263 7.826V10.22C35.1263 10.592 35.1263 11.036 35.1263 11.552C35.1263 12.056 35.1323 12.53 35.1443 12.974L36.0443 13.154V14H31.2743ZM33.6683 3.686C33.2483 3.686 32.8883 3.554 32.5883 3.29C32.2883 3.014 32.1383 2.672 32.1383 2.264C32.1383 1.844 32.2883 1.502 32.5883 1.238C32.8883 0.961999 33.2483 0.823999 33.6683 0.823999C34.0883 0.823999 34.4483 0.961999 34.7483 1.238C35.0483 1.502 35.1983 1.844 35.1983 2.264C35.1983 2.672 35.0483 3.014 34.7483 3.29C34.4483 3.554 34.0883 3.686 33.6683 3.686ZM36.3589 18.086V17.24L37.3669 17.024C37.3789 16.46 37.3849 15.932 37.3849 15.44C37.3969 14.96 37.4029 14.498 37.4029 14.054V9.176C37.4029 8.684 37.3969 8.306 37.3849 8.042C37.3849 7.766 37.3729 7.448 37.3489 7.088L36.2329 6.926V6.224L39.7609 5.018L40.0669 5.198L40.1389 6.206C40.8949 5.414 41.7829 5.018 42.8029 5.018C43.4629 5.018 44.0569 5.192 44.5849 5.54C45.1129 5.888 45.5329 6.404 45.8449 7.088C46.1689 7.772 46.3309 8.612 46.3309 9.608C46.3309 10.568 46.1509 11.402 45.7909 12.11C45.4309 12.806 44.9569 13.34 44.3689 13.712C43.7929 14.084 43.1629 14.27 42.4789 14.27C41.5549 14.27 40.7989 13.958 40.2109 13.334V14.036C40.2109 14.48 40.2109 14.942 40.2109 15.422C40.2229 15.902 40.2349 16.418 40.2469 16.97L41.3989 17.24V18.086H36.3589ZM41.4889 6.584C41.2609 6.584 41.0449 6.632 40.8409 6.728C40.6489 6.824 40.4569 6.944 40.2649 7.088V12.308C40.6249 12.608 41.0149 12.758 41.4349 12.758C41.9749 12.758 42.4129 12.506 42.7489 12.002C43.0969 11.498 43.2709 10.712 43.2709 9.644C43.2709 8.576 43.1029 7.802 42.7669 7.322C42.4429 6.83 42.0169 6.584 41.4889 6.584ZM53.5344 14.27C52.7304 14.27 52.1004 14.078 51.6444 13.694C51.1884 13.298 50.9604 12.656 50.9604 11.768C50.9604 11.456 50.9604 11.168 50.9604 10.904C50.9724 10.628 50.9784 10.316 50.9784 9.968V6.53H49.8084V5.468L51.1404 5.288L52.0404 2.768H53.8764L53.8404 5.306H55.7304V6.53H53.8404V11.57C53.8404 11.99 53.9244 12.302 54.0924 12.506C54.2724 12.698 54.4944 12.794 54.7584 12.794C55.0704 12.794 55.3944 12.662 55.7304 12.398L56.1804 12.83C55.9404 13.286 55.6044 13.64 55.1724 13.892C54.7524 14.144 54.2064 14.27 53.5344 14.27ZM60.5453 14.27C59.6093 14.27 58.7993 14.078 58.1153 13.694C57.4313 13.298 56.9033 12.752 56.5313 12.056C56.1593 11.348 55.9733 10.532 55.9733 9.608C55.9733 8.684 56.1713 7.88 56.5673 7.196C56.9753 6.512 57.5273 5.978 58.2233 5.594C58.9193 5.21 59.6933 5.018 60.5453 5.018C61.3973 5.018 62.1653 5.204 62.8493 5.576C63.5453 5.948 64.0973 6.482 64.5053 7.178C64.9133 7.862 65.1173 8.672 65.1173 9.608C65.1173 10.544 64.9313 11.36 64.5593 12.056C64.1873 12.752 63.6593 13.298 62.9753 13.694C62.2913 14.078 61.4813 14.27 60.5453 14.27ZM60.5453 13.334C61.0493 13.334 61.4273 13.04 61.6793 12.452C61.9313 11.864 62.0573 10.934 62.0573 9.662C62.0573 8.378 61.9313 7.442 61.6793 6.854C61.4273 6.266 61.0493 5.972 60.5453 5.972C60.0293 5.972 59.6453 6.266 59.3933 6.854C59.1413 7.442 59.0153 8.378 59.0153 9.662C59.0153 10.934 59.1413 11.864 59.3933 12.452C59.6453 13.04 60.0293 13.334 60.5453 13.334ZM4.10059 30.27C2.96059 30.27 1.91659 29.994 0.968593 29.442L1.02259 27.246H2.46259L2.76859 29.028C2.98459 29.112 3.20059 29.178 3.41659 29.226C3.63259 29.262 3.86659 29.28 4.11859 29.28C4.63459 29.28 5.03059 29.196 5.30659 29.028C5.58259 28.848 5.72059 28.578 5.72059 28.218C5.72059 27.942 5.61859 27.702 5.41459 27.498C5.21059 27.294 4.80859 27.108 4.20859 26.94L3.23659 26.652C2.54059 26.448 2.00059 26.118 1.61659 25.662C1.24459 25.206 1.05859 24.642 1.05859 23.97C1.05859 23.142 1.38259 22.446 2.03059 21.882C2.67859 21.306 3.60859 21.018 4.82059 21.018C5.34859 21.018 5.83459 21.084 6.27859 21.216C6.73459 21.336 7.19659 21.516 7.66459 21.756L7.53859 23.718H6.09859L5.73859 22.17C5.48659 22.074 5.15659 22.026 4.74859 22.026C4.34059 22.026 4.01059 22.11 3.75859 22.278C3.51859 22.446 3.39859 22.698 3.39859 23.034C3.39859 23.274 3.49459 23.49 3.68659 23.682C3.87859 23.862 4.28659 24.048 4.91059 24.24L5.79259 24.492C6.64459 24.744 7.25659 25.104 7.62859 25.572C8.00059 26.04 8.18659 26.61 8.18659 27.282C8.18659 28.23 7.82059 28.968 7.08859 29.496C6.36859 30.012 5.37259 30.27 4.10059 30.27ZM14.833 30.198L14.725 28.686C14.341 29.19 13.903 29.58 13.411 29.856C12.919 30.132 12.385 30.27 11.809 30.27C11.041 30.27 10.423 30.03 9.95495 29.55C9.48695 29.058 9.25895 28.218 9.27095 27.03L9.34295 22.638L8.29895 22.404V21.648L11.971 21.126L12.259 21.324L12.169 23.862V27.048C12.169 27.6 12.253 27.984 12.421 28.2C12.601 28.416 12.841 28.524 13.141 28.524C13.393 28.524 13.651 28.446 13.915 28.29C14.191 28.134 14.449 27.942 14.689 27.714L14.761 22.62L13.771 22.404V21.702L17.353 21.126L17.641 21.324L17.587 23.862V28.974L18.523 29.172V30.018L14.833 30.198ZM18.8545 30V29.154L19.8265 28.938C19.8385 28.506 19.8445 28.038 19.8445 27.534C19.8445 27.03 19.8445 26.592 19.8445 26.22V25.176C19.8445 24.684 19.8385 24.306 19.8265 24.042C19.8265 23.766 19.8145 23.448 19.7905 23.088L18.6925 22.926V22.224L22.2385 21.018L22.5625 21.216L22.6705 22.512C23.0905 22.02 23.5285 21.648 23.9845 21.396C24.4525 21.144 24.9505 21.018 25.4785 21.018C26.7145 21.018 27.5125 21.552 27.8725 22.62C28.3645 22.02 28.8385 21.606 29.2945 21.378C29.7625 21.138 30.2545 21.018 30.7705 21.018C31.6825 21.018 32.3485 21.282 32.7685 21.81C33.1885 22.338 33.3985 23.136 33.3985 24.204V26.22C33.3985 26.604 33.3985 27.048 33.3985 27.552C33.3985 28.056 33.4045 28.524 33.4165 28.956L34.3165 29.154V30H29.6725V29.154L30.5545 28.938C30.5665 28.506 30.5725 28.044 30.5725 27.552C30.5725 27.048 30.5725 26.604 30.5725 26.22V24.474C30.5725 23.802 30.4945 23.352 30.3385 23.124C30.1825 22.884 29.9185 22.764 29.5465 22.764C29.0425 22.764 28.5385 22.98 28.0345 23.412C28.0465 23.52 28.0525 23.634 28.0525 23.754C28.0645 23.862 28.0705 23.982 28.0705 24.114V26.22C28.0705 26.616 28.0705 27.066 28.0705 27.57C28.0705 28.062 28.0765 28.53 28.0885 28.974L28.9345 29.154V30H24.2905V29.154L25.2265 28.938C25.2385 28.506 25.2445 28.044 25.2445 27.552C25.2445 27.048 25.2445 26.604 25.2445 26.22V24.492C25.2445 23.856 25.1665 23.412 25.0105 23.16C24.8665 22.896 24.5965 22.764 24.2005 22.764C23.9485 22.764 23.6965 22.824 23.4445 22.944C23.1925 23.064 22.9525 23.22 22.7245 23.412V26.22C22.7245 26.592 22.7245 27.036 22.7245 27.552C22.7245 28.056 22.7305 28.53 22.7425 28.974L23.5885 29.154V30H18.8545ZM34.6446 30V29.154L35.6166 28.938C35.6286 28.506 35.6346 28.038 35.6346 27.534C35.6346 27.03 35.6346 26.592 35.6346 26.22V25.176C35.6346 24.684 35.6286 24.306 35.6166 24.042C35.6166 23.766 35.6046 23.448 35.5806 23.088L34.4826 22.926V22.224L38.0286 21.018L38.3526 21.216L38.4606 22.512C38.8806 22.02 39.3186 21.648 39.7746 21.396C40.2426 21.144 40.7406 21.018 41.2686 21.018C42.5046 21.018 43.3026 21.552 43.6626 22.62C44.1546 22.02 44.6286 21.606 45.0846 21.378C45.5526 21.138 46.0446 21.018 46.5606 21.018C47.4726 21.018 48.1386 21.282 48.5586 21.81C48.9786 22.338 49.1886 23.136 49.1886 24.204V26.22C49.1886 26.604 49.1886 27.048 49.1886 27.552C49.1886 28.056 49.1946 28.524 49.2066 28.956L50.1066 29.154V30H45.4626V29.154L46.3446 28.938C46.3566 28.506 46.3626 28.044 46.3626 27.552C46.3626 27.048 46.3626 26.604 46.3626 26.22V24.474C46.3626 23.802 46.2846 23.352 46.1286 23.124C45.9726 22.884 45.7086 22.764 45.3366 22.764C44.8326 22.764 44.3286 22.98 43.8246 23.412C43.8366 23.52 43.8426 23.634 43.8426 23.754C43.8546 23.862 43.8606 23.982 43.8606 24.114V26.22C43.8606 26.616 43.8606 27.066 43.8606 27.57C43.8606 28.062 43.8666 28.53 43.8786 28.974L44.7246 29.154V30H40.0806V29.154L41.0166 28.938C41.0286 28.506 41.0346 28.044 41.0346 27.552C41.0346 27.048 41.0346 26.604 41.0346 26.22V24.492C41.0346 23.856 40.9566 23.412 40.8006 23.16C40.6566 22.896 40.3866 22.764 39.9906 22.764C39.7386 22.764 39.4866 22.824 39.2346 22.944C38.9826 23.064 38.7426 23.22 38.5146 23.412V26.22C38.5146 26.592 38.5146 27.036 38.5146 27.552C38.5146 28.056 38.5206 28.53 38.5326 28.974L39.3786 29.154V30H34.6446ZM57.2777 30.252C56.2337 30.252 55.5737 29.82 55.2977 28.956C54.9137 29.364 54.5417 29.688 54.1817 29.928C53.8337 30.156 53.3477 30.27 52.7237 30.27C52.0277 30.27 51.4577 30.072 51.0137 29.676C50.5817 29.28 50.3657 28.71 50.3657 27.966C50.3657 27.534 50.4617 27.144 50.6537 26.796C50.8457 26.448 51.1937 26.124 51.6977 25.824C52.2017 25.524 52.9157 25.242 53.8397 24.978C54.0197 24.918 54.2297 24.858 54.4697 24.798C54.7097 24.738 54.9557 24.678 55.2077 24.618V24.024C55.2077 23.22 55.1057 22.674 54.9017 22.386C54.7097 22.098 54.3257 21.954 53.7497 21.954C53.6657 21.954 53.5877 21.954 53.5157 21.954C53.4437 21.954 53.3597 21.96 53.2637 21.972L53.1737 22.764C53.1617 23.352 53.0237 23.778 52.7597 24.042C52.5077 24.306 52.2077 24.438 51.8597 24.438C51.1997 24.438 50.7977 24.138 50.6537 23.538C50.7017 22.794 51.0797 22.188 51.7877 21.72C52.4957 21.252 53.4977 21.018 54.7937 21.018C55.9457 21.018 56.7677 21.282 57.2597 21.81C57.7637 22.338 58.0157 23.208 58.0157 24.42V28.452C58.0157 28.8 58.1477 28.974 58.4117 28.974C58.5077 28.974 58.5977 28.95 58.6817 28.902C58.7657 28.842 58.8557 28.734 58.9517 28.578L59.4377 28.902C59.2217 29.382 58.9397 29.73 58.5917 29.946C58.2557 30.15 57.8177 30.252 57.2777 30.252ZM53.0297 27.498C53.0297 27.942 53.1317 28.272 53.3357 28.488C53.5517 28.704 53.8097 28.812 54.1097 28.812C54.2417 28.812 54.3797 28.782 54.5237 28.722C54.6677 28.662 54.8957 28.524 55.2077 28.308V25.392C55.0517 25.44 54.8957 25.494 54.7397 25.554C54.5957 25.602 54.4697 25.65 54.3617 25.698C53.9537 25.866 53.6297 26.106 53.3897 26.418C53.1497 26.718 53.0297 27.078 53.0297 27.498ZM59.3162 30V29.154L60.3062 28.956C60.3182 28.512 60.3242 28.038 60.3242 27.534C60.3242 27.03 60.3242 26.592 60.3242 26.22V25.158C60.3242 24.822 60.3182 24.546 60.3062 24.33C60.3062 24.114 60.3002 23.916 60.2882 23.736C60.2882 23.544 60.2822 23.328 60.2702 23.088L59.1722 22.926V22.224L62.7182 21.018L63.0422 21.216L63.2042 23.34C63.4562 22.572 63.8102 21.996 64.2662 21.612C64.7222 21.216 65.1722 21.018 65.6162 21.018C66.0122 21.018 66.3542 21.132 66.6422 21.36C66.9302 21.576 67.1102 21.906 67.1822 22.35C67.1702 22.818 67.0442 23.184 66.8042 23.448C66.5642 23.7 66.2642 23.826 65.9042 23.826C65.4002 23.826 64.9382 23.544 64.5182 22.98L64.4102 22.836C64.1462 23.088 63.9002 23.406 63.6722 23.79C63.4562 24.174 63.3002 24.576 63.2042 24.996V26.22C63.2042 26.592 63.2042 27.018 63.2042 27.498C63.2042 27.978 63.2102 28.428 63.2222 28.848L64.6442 29.154V30H59.3162ZM73.1122 22.08V21.306H76.4962V22.08L75.4702 22.26L72.1942 30.738C71.7502 31.89 71.2882 32.766 70.8082 33.366C70.3282 33.966 69.6682 34.266 68.8282 34.266C68.3482 34.266 67.9222 34.134 67.5502 33.87C67.1902 33.606 66.9982 33.288 66.9742 32.916C67.0462 32.52 67.2202 32.226 67.4962 32.034C67.7842 31.842 68.1022 31.746 68.4502 31.746C68.6902 31.746 68.9482 31.794 69.2242 31.89C69.5002 31.998 69.7582 32.232 69.9982 32.592L70.1242 32.772C70.6522 32.208 71.0602 31.518 71.3482 30.702V30.684L67.7662 22.224L66.9202 22.08V21.306H72.0322V22.08L70.8262 22.296L72.5902 27.156L74.3002 22.296L73.1122 22.08Z" fill="#0052B4"/>
</g>
<path d="M44.1568 40L38.5 43.6569L32.8431 40" stroke="#0052B4" stroke-width="2" stroke-linecap="round" stroke-linejoin="round"/>
<path d="M44.1568 45L38.5 48.6569L32.8431 45" stroke="#0052B4" stroke-width="2" stroke-linecap="round" stroke-linejoin="round"/>
</svg>
