<svg width="80" height="45" viewBox="0 0 80 45" fill="none" xmlns="http://www.w3.org/2000/svg">
<g style="mix-blend-mode:multiply">
<path d="M5.99934 9.13477C5.89387 8.49609 5.63605 7.98926 5.2259 7.61426C4.8216 7.2334 4.30305 7.04297 3.67023 7.04297H1.31477C1.22102 7.04297 1.14191 7.02246 1.07746 6.98145C1.01301 6.94043 0.980782 6.8877 0.980782 6.82324C0.980782 6.62402 1.06574 6.31934 1.23566 5.90918C1.41145 5.49902 1.62238 5.08594 1.86848 4.66992C2.11457 4.25391 2.34016 3.94336 2.54523 3.73828C2.58625 3.69141 2.62434 3.65332 2.65949 3.62402C2.69465 3.58887 2.73273 3.57129 2.77375 3.57129C2.8382 3.57129 2.88801 3.58594 2.92316 3.61523C2.95832 3.63867 2.98176 3.68262 2.99348 3.74707C3.03449 3.95801 3.09016 4.11621 3.16047 4.22168C3.23664 4.32715 3.3216 4.37988 3.41535 4.37988H5.12043C5.67121 4.37988 6.1634 4.5293 6.59699 4.82812C7.03645 5.12109 7.34992 5.49902 7.53742 5.96191C7.70734 6.41895 7.82746 7.03418 7.89777 7.80762C7.96809 8.58105 8.00324 9.24316 8.00324 9.79395C8.00324 10.4502 7.98273 10.875 7.94172 11.0684C7.86555 11.3555 7.71906 11.7012 7.50227 12.1055C7.29133 12.5039 7.05695 12.8965 6.79914 13.2832C6.73469 13.3594 6.68195 13.4092 6.64094 13.4326C6.60578 13.4619 6.56184 13.4766 6.5091 13.4766C6.35676 13.4766 6.2718 13.2949 6.25422 12.9316C6.2425 12.7207 6.23078 12.4102 6.21906 12C6.19563 11.3262 6.16926 10.7754 6.13996 10.3477C6.11066 9.91406 6.06379 9.50977 5.99934 9.13477ZM12.016 12.0967C11.8695 11.5576 11.7259 11.0654 11.5853 10.6201C11.4505 10.1748 11.2718 9.63281 11.0492 8.99414C10.6859 7.95117 10.2875 7.03125 9.85387 6.23438C9.73668 6.02344 9.67809 5.8623 9.67809 5.75098C9.67809 5.68066 9.71031 5.5752 9.77477 5.43457C9.89781 5.2002 10.0853 4.91016 10.3373 4.56445C10.5892 4.21289 10.8119 3.94043 11.0052 3.74707C11.017 3.73535 11.0375 3.71484 11.0668 3.68555C11.0961 3.65039 11.1254 3.62695 11.1546 3.61523C11.1839 3.59766 11.2191 3.58887 11.2601 3.58887C11.3304 3.58887 11.389 3.60937 11.4359 3.65039C11.4828 3.68555 11.5384 3.75 11.6029 3.84375C11.6849 3.97266 11.8138 4.26855 11.9896 4.73145C12.1654 5.19434 12.3089 5.62793 12.4203 6.03223C12.6664 6.8877 12.8363 7.56445 12.93 8.0625C12.93 8.08594 12.9388 8.11816 12.9564 8.15918C12.974 8.2002 13.0004 8.2207 13.0355 8.2207C13.141 8.2207 13.2464 8.15918 13.3519 8.03613C13.4632 7.90723 13.5541 7.7373 13.6244 7.52637C13.6947 7.31543 13.7298 7.0957 13.7298 6.86719C13.7298 6.53906 13.6625 6.19629 13.5277 5.83887C13.4808 5.74512 13.4574 5.67188 13.4574 5.61914C13.4574 5.55469 13.472 5.49609 13.5013 5.44336C13.5365 5.38477 13.5599 5.34375 13.5716 5.32031C14.0052 4.64648 14.4095 4.12207 14.7845 3.74707C14.89 3.6416 14.9779 3.58887 15.0482 3.58887C15.1947 3.58887 15.306 3.65918 15.3822 3.7998C15.4818 3.94629 15.5785 4.22461 15.6722 4.63477C15.766 5.03906 15.8129 5.36719 15.8129 5.61914C15.8129 5.87109 15.7836 6.07617 15.725 6.23438C15.6664 6.39258 15.6048 6.52734 15.5404 6.63867C15.4759 6.74414 15.432 6.81445 15.4086 6.84961C15.2504 7.13672 14.9925 7.47949 14.6351 7.87793C14.2836 8.27637 13.8763 8.68945 13.4134 9.11719C13.4076 9.12305 13.3783 9.14941 13.3255 9.19629C13.2728 9.2373 13.2464 9.28125 13.2464 9.32812C13.2464 9.38086 13.2494 9.42188 13.2552 9.45117C13.267 9.48633 13.2992 9.62109 13.3519 9.85547C13.4105 10.0898 13.4691 10.2539 13.5277 10.3477C13.598 10.4824 13.6713 10.5762 13.7474 10.6289C13.8236 10.6758 13.9554 10.6992 14.1429 10.6992C14.4125 10.6992 14.7113 10.6436 15.0394 10.5322C15.3675 10.415 15.6752 10.2773 15.9623 10.1191C16.2494 9.95508 16.475 9.80566 16.639 9.6709C16.8265 9.51855 16.9701 9.38965 17.0697 9.28418C17.1752 9.17285 17.2543 9.04688 17.307 8.90625C17.3656 8.76562 17.3949 8.58984 17.3949 8.37891C17.3949 8.0625 17.3334 7.69629 17.2103 7.28027C17.0931 6.86426 16.9584 6.4248 16.806 5.96191C16.7474 5.82715 16.7181 5.72461 16.7181 5.6543C16.7181 5.58984 16.7357 5.53711 16.7709 5.49609C16.9408 5.20898 17.1546 4.89844 17.4125 4.56445C17.6703 4.23047 17.9398 3.94043 18.2211 3.69434C18.2562 3.6709 18.3002 3.64746 18.3529 3.62402C18.4056 3.60059 18.4496 3.58887 18.4847 3.58887C18.5726 3.58887 18.6429 3.61816 18.6957 3.67676C18.7484 3.72949 18.7953 3.7998 18.8363 3.8877C18.9418 4.13379 19.0443 4.51758 19.1439 5.03906C19.2494 5.56055 19.3021 5.99707 19.3021 6.34863C19.3021 6.63574 19.2787 6.90527 19.2318 7.15723C19.1849 7.40332 19.1205 7.68164 19.0384 7.99219L18.9857 8.20312C18.8392 8.75977 18.6869 9.22266 18.5287 9.5918C18.3705 9.96094 18.2416 10.2363 18.142 10.418C18.0482 10.5938 17.9896 10.7021 17.9662 10.7432C17.8255 11.0068 17.6293 11.2881 17.3773 11.5869C17.1254 11.8857 16.8763 12.1084 16.6302 12.2549C16.4076 12.3838 16.0941 12.5361 15.6898 12.7119C15.2855 12.8877 14.8754 13.0371 14.4593 13.1602C14.0433 13.2891 13.7035 13.3535 13.4398 13.3535C13.1468 13.3535 12.8627 13.2451 12.5873 13.0283C12.3177 12.8115 12.1273 12.501 12.016 12.0967ZM22.1547 10.7871C22.2484 10.5996 22.3686 10.374 22.515 10.1104C22.7143 9.76465 22.8695 9.47461 22.9809 9.24023C23.0922 9.00586 23.1479 8.81543 23.1479 8.66895C23.1479 8.18848 23.016 7.81348 22.7523 7.54395C22.5824 7.36816 22.3979 7.20117 22.1986 7.04297C21.9994 6.88477 21.7563 6.70312 21.4691 6.49805C21.434 6.46875 21.3373 6.39844 21.1791 6.28711C21.0268 6.17578 20.9096 6.0791 20.8275 5.99707C20.7455 5.89746 20.7045 5.82129 20.7045 5.76855C20.7045 5.70996 20.7367 5.625 20.8012 5.51367C20.9066 5.30273 21.1176 4.99805 21.434 4.59961C21.7504 4.20117 21.9994 3.91699 22.1811 3.74707C22.2572 3.68262 22.3158 3.6416 22.3568 3.62402C22.3979 3.60059 22.4359 3.58887 22.4711 3.58887C22.5121 3.58887 22.5619 3.60352 22.6205 3.63281C22.9604 3.83203 23.3764 4.13965 23.8686 4.55566C24.3666 4.96582 24.7299 5.32617 24.9584 5.63672C25.1225 5.85938 25.2514 6.08496 25.3451 6.31348C25.4389 6.53613 25.4857 6.78516 25.4857 7.06055C25.4857 7.40625 25.4096 7.77246 25.2572 8.15918C25.1049 8.54004 24.935 8.87402 24.7475 9.16113C24.5131 9.54199 24.1908 9.8877 23.7807 10.1982C23.3764 10.5088 22.9486 10.752 22.4975 10.9277C22.392 10.9746 22.3188 10.998 22.2777 10.998C22.184 10.998 22.1371 10.9541 22.1371 10.8662C22.1371 10.8369 22.143 10.8105 22.1547 10.7871ZM33.4448 7.86035C33.4272 7.64355 33.3422 7.43848 33.1899 7.24512C33.0434 7.05176 32.8032 6.95508 32.4692 6.95508H26.9496C26.6508 6.95508 26.5014 6.86426 26.5014 6.68262C26.5014 6.63574 26.519 6.55957 26.5541 6.4541C26.5952 6.34863 26.642 6.23438 26.6948 6.11133L26.8178 5.8125C26.9819 5.45508 27.1782 5.0918 27.4067 4.72266C27.6352 4.35352 27.8637 4.0166 28.0922 3.71191C28.1215 3.6709 28.1655 3.63867 28.2241 3.61523C28.2885 3.58594 28.3559 3.57129 28.4262 3.57129C28.5493 3.57129 28.6342 3.63574 28.6811 3.76465C28.6987 3.81152 28.7221 3.89355 28.7514 4.01074C28.7866 4.12793 28.8334 4.21875 28.892 4.2832C28.9506 4.34766 29.0268 4.37988 29.1205 4.37988H33.5151C34.0307 4.37988 34.435 4.54688 34.728 4.88086C35.0209 5.20898 35.1996 5.63086 35.2641 6.14648C35.3227 6.57422 35.3666 7.24219 35.3959 8.15039C35.4311 9.05273 35.4487 10.0723 35.4487 11.209C35.4487 11.3262 35.434 11.4375 35.4047 11.543C35.3403 11.7598 35.1791 12.0703 34.9213 12.4746C34.6694 12.8789 34.4467 13.1631 34.2534 13.3271C34.1303 13.4209 34.0366 13.4678 33.9721 13.4678C33.9077 13.4678 33.8549 13.4297 33.8139 13.3535C33.7729 13.2832 33.7524 13.1777 33.7524 13.0371C33.7348 12.1699 33.6967 11.2617 33.6381 10.3125C33.5795 9.36328 33.5151 8.5459 33.4448 7.86035ZM27.7319 9.9873C27.7319 9.89941 27.7407 9.8291 27.7582 9.77637C27.7758 9.71777 27.808 9.63574 27.8549 9.53027C27.9487 9.34277 28.0864 9.1084 28.268 8.82715C28.4496 8.5459 28.6166 8.31738 28.769 8.1416C28.8862 8.01855 28.977 7.93359 29.0414 7.88672C29.1059 7.83398 29.1704 7.80762 29.2348 7.80762C29.3051 7.80762 29.352 7.8252 29.3754 7.86035C29.4047 7.89551 29.4223 7.93066 29.4282 7.96582C29.434 8.00098 29.437 8.02441 29.437 8.03613C29.478 8.21777 29.5307 8.72168 29.5952 9.54785C29.6596 10.374 29.6918 10.9219 29.6918 11.1914C29.6918 11.2793 29.686 11.3584 29.6743 11.4287C29.6625 11.4932 29.6362 11.5781 29.5952 11.6836C29.5131 11.9238 29.3315 12.2344 29.0502 12.6152C28.7748 12.9902 28.5463 13.2539 28.3647 13.4062C28.3061 13.4473 28.2475 13.4678 28.1889 13.4678C28.1186 13.4678 28.0746 13.4443 28.0571 13.3975C28.0395 13.3506 28.0278 13.2832 28.0219 13.1953C27.9633 12.832 27.8989 12.2666 27.8286 11.499C27.7641 10.7314 27.7319 10.2275 27.7319 9.9873ZM43.2808 13.4678C43.1987 13.4678 43.1343 13.418 43.0874 13.3184C43.0464 13.2246 43.02 13.1074 43.0083 12.9668C42.9849 12.334 42.9234 11.4873 42.8237 10.4268C42.7241 9.36035 42.6392 8.61328 42.5689 8.18555C42.5454 8.00977 42.4693 7.80469 42.3404 7.57031C42.2173 7.33008 42.065 7.13086 41.8833 6.97266C41.5552 6.68555 41.2212 6.43066 40.8814 6.20801L40.7144 6.08496C40.6382 6.02051 40.6001 5.9502 40.6001 5.87402C40.6001 5.81543 40.6206 5.74512 40.6616 5.66309C41.2007 4.71973 41.6987 4.04883 42.1558 3.65039C42.2202 3.60937 42.2847 3.58887 42.3491 3.58887C42.3843 3.58887 42.437 3.60352 42.5073 3.63281C42.7066 3.74414 42.979 3.9873 43.3247 4.3623C43.6704 4.7373 43.9077 5.03027 44.0366 5.24121C44.1773 5.46973 44.3003 5.72168 44.4058 5.99707C44.5112 6.2666 44.5816 6.65039 44.6167 7.14844C44.6812 7.81641 44.7134 8.66895 44.7134 9.70605C44.7134 10.3154 44.7075 10.7402 44.6958 10.9805C44.6958 11.0273 44.6929 11.1006 44.687 11.2002C44.6812 11.2998 44.6665 11.3936 44.6431 11.4814C44.6255 11.5693 44.5962 11.6631 44.5552 11.7627C44.4673 11.9795 44.3179 12.2461 44.107 12.5625C43.9019 12.873 43.7202 13.1221 43.562 13.3096C43.4683 13.415 43.3745 13.4678 43.2808 13.4678ZM47.1793 10.708C47.2261 10.6436 47.2906 10.585 47.3726 10.5322C47.4546 10.4736 47.5484 10.4443 47.6539 10.4443H50.6949C50.8238 10.4443 50.8882 10.4062 50.8882 10.3301C50.8882 10.3066 50.8765 10.2803 50.8531 10.251C50.8296 10.2158 50.8033 10.1836 50.774 10.1543C50.5513 9.96094 50.1763 9.66797 49.649 9.27539C48.9927 8.7832 48.4595 8.36719 48.0494 8.02734C47.6392 7.6875 47.2818 7.33008 46.9771 6.95508C46.813 6.75586 46.6578 6.53613 46.5113 6.2959C46.3707 6.0498 46.3004 5.88281 46.3004 5.79492C46.3004 5.68359 46.3912 5.4873 46.5728 5.20605C46.7545 4.9248 46.9625 4.63477 47.1968 4.33594C47.4312 4.03711 47.6099 3.82324 47.733 3.69434C47.7447 3.68262 47.7652 3.65918 47.7945 3.62402C47.8296 3.58887 47.8707 3.57129 47.9175 3.57129C48.023 3.57129 48.1021 3.65625 48.1548 3.82617C48.2662 4.20703 48.4273 4.55273 48.6382 4.86328C48.8492 5.17383 49.1304 5.50488 49.482 5.85645C49.7574 6.1377 50.0709 6.43945 50.4224 6.76172C50.7798 7.07812 51.1168 7.35352 51.4332 7.58789C51.4449 7.59961 51.4595 7.60547 51.4771 7.60547C51.5064 7.60547 51.5298 7.59375 51.5474 7.57031C51.5709 7.54102 51.5826 7.50586 51.5826 7.46484C51.5826 7.35352 51.5679 7.20996 51.5386 7.03418C51.5093 6.85254 51.4654 6.6709 51.4068 6.48926C51.3482 6.30762 51.2867 6.16113 51.2222 6.0498C51.1636 5.93262 51.1343 5.84766 51.1343 5.79492C51.1343 5.75977 51.1402 5.73047 51.1519 5.70703C51.1636 5.67773 51.1783 5.65137 51.1959 5.62793C51.2134 5.60449 51.2252 5.58691 51.231 5.5752C51.4068 5.28223 51.6412 4.94238 51.9341 4.55566C52.233 4.16309 52.4498 3.89355 52.5845 3.74707C52.6373 3.69434 52.6841 3.65332 52.7252 3.62402C52.7662 3.58887 52.8013 3.57129 52.8306 3.57129C52.8892 3.57129 52.942 3.59766 52.9888 3.65039C53.0416 3.70312 53.0738 3.73535 53.0855 3.74707C53.1382 3.80566 53.2027 3.91699 53.2789 4.08105C53.3609 4.24512 53.4312 4.44434 53.4898 4.67871C53.5484 4.91309 53.5777 5.15918 53.5777 5.41699C53.5777 5.9209 53.5045 6.36328 53.358 6.74414C53.2173 7.11914 52.9654 7.59961 52.6021 8.18555C52.5787 8.22656 52.5494 8.26758 52.5142 8.30859C52.4849 8.34961 52.4703 8.39355 52.4703 8.44043C52.4703 8.46387 52.4791 8.49023 52.4966 8.51953C52.5142 8.54297 52.5377 8.57227 52.567 8.60742C52.5962 8.63672 52.6285 8.67188 52.6636 8.71289C52.8746 8.92383 53.0855 9.17578 53.2964 9.46875C53.5132 9.76172 53.6216 9.9873 53.6216 10.1455C53.6216 10.2686 53.5718 10.4883 53.4722 10.8047C53.3726 11.1211 53.2408 11.4697 53.0767 11.8506C52.9127 12.2256 52.7398 12.5684 52.5582 12.8789C52.5054 12.9551 52.441 13.0078 52.3648 13.0371C52.2886 13.0605 52.189 13.0723 52.066 13.0723H46.6168C46.3941 13.0723 46.2828 13.002 46.2828 12.8613C46.2828 12.7207 46.3941 12.3867 46.6168 11.8594C46.8453 11.3262 47.0328 10.9424 47.1793 10.708ZM55.4459 10.6816C55.4986 10.5996 55.5543 10.5381 55.6129 10.4971C55.6773 10.4502 55.7594 10.4268 55.859 10.4268H59.5855C59.8082 10.4268 59.9195 10.3008 59.9195 10.0488C59.9195 9.82031 59.8902 9.48633 59.8316 9.04688C59.7789 8.60742 59.7086 8.23535 59.6207 7.93066C59.5387 7.70215 59.3951 7.47363 59.19 7.24512C59.0201 7.05176 58.8004 6.87305 58.5309 6.70898C58.2613 6.54492 57.9977 6.41602 57.7398 6.32227C57.482 6.22266 57.2945 6.17285 57.1773 6.17285C57.0953 6.17285 57.0309 6.22266 56.984 6.32227C56.943 6.41602 56.9225 6.52148 56.9225 6.63867C56.9225 6.7793 56.9811 6.9375 57.0982 7.11328C57.2213 7.2832 57.3824 7.41504 57.5816 7.50879C57.6813 7.54395 57.7574 7.59082 57.8102 7.64941C57.8629 7.70215 57.8893 7.75488 57.8893 7.80762C57.8893 7.83691 57.8805 7.86914 57.8629 7.9043C57.8453 7.93945 57.8336 7.96582 57.8277 7.9834C57.7398 8.16504 57.5875 8.42578 57.3707 8.76562C57.1598 9.10547 57.0045 9.33398 56.9049 9.45117C56.8697 9.49219 56.8258 9.52734 56.773 9.55664C56.7203 9.58008 56.6705 9.5918 56.6236 9.5918C56.5768 9.5918 56.4801 9.54492 56.3336 9.45117C56.0875 9.28125 55.8766 9.12012 55.7008 8.96777C55.5309 8.80957 55.3756 8.60742 55.235 8.36133C55.0943 8.11523 55.024 7.83691 55.024 7.52637C55.024 7.09277 55.1646 6.60059 55.4459 6.0498C55.6451 5.66895 55.9586 5.23242 56.3863 4.74023C56.8199 4.24219 57.1832 3.89941 57.4762 3.71191C57.482 3.70605 57.5113 3.68555 57.5641 3.65039C57.6227 3.60937 57.6988 3.58887 57.7926 3.58887C57.9156 3.58887 58.1529 3.65918 58.5045 3.7998C58.8561 3.94043 59.2193 4.11621 59.5943 4.32715C59.9693 4.53223 60.2623 4.72852 60.4732 4.91602C60.6432 5.06836 60.7896 5.2207 60.9127 5.37305C61.0416 5.51953 61.1617 5.72461 61.273 5.98828C61.3844 6.24609 61.4664 6.56543 61.5191 6.94629C61.6305 7.67871 61.6861 8.52246 61.6861 9.47754C61.6861 9.89355 61.6217 10.3154 61.4928 10.7432C61.3814 11.0947 61.2408 11.4814 61.0709 11.9033C60.9068 12.3252 60.7428 12.6562 60.5787 12.8965C60.5377 12.9609 60.4908 13.0078 60.4381 13.0371C60.3912 13.0605 60.3268 13.0723 60.2447 13.0723H54.8131C54.6139 13.0723 54.5143 13.002 54.5143 12.8613C54.5143 12.6621 54.6227 12.3193 54.8395 11.833C55.0563 11.3467 55.2584 10.9629 55.4459 10.6816ZM64.5123 10.7871C64.6061 10.5996 64.7262 10.374 64.8727 10.1104C65.0719 9.76465 65.2272 9.47461 65.3385 9.24023C65.4498 9.00586 65.5055 8.81543 65.5055 8.66895C65.5055 8.18848 65.3737 7.81348 65.11 7.54395C64.9401 7.36816 64.7555 7.20117 64.5563 7.04297C64.3571 6.88477 64.1139 6.70312 63.8268 6.49805C63.7916 6.46875 63.695 6.39844 63.5368 6.28711C63.3844 6.17578 63.2672 6.0791 63.1852 5.99707C63.1032 5.89746 63.0621 5.82129 63.0621 5.76855C63.0621 5.70996 63.0944 5.625 63.1588 5.51367C63.2643 5.30273 63.4752 4.99805 63.7916 4.59961C64.108 4.20117 64.3571 3.91699 64.5387 3.74707C64.6149 3.68262 64.6735 3.6416 64.7145 3.62402C64.7555 3.60059 64.7936 3.58887 64.8288 3.58887C64.8698 3.58887 64.9196 3.60352 64.9782 3.63281C65.318 3.83203 65.734 4.13965 66.2262 4.55566C66.7243 4.96582 67.0875 5.32617 67.3161 5.63672C67.4801 5.85938 67.609 6.08496 67.7028 6.31348C67.7965 6.53613 67.8434 6.78516 67.8434 7.06055C67.8434 7.40625 67.7672 7.77246 67.6149 8.15918C67.4625 8.54004 67.2926 8.87402 67.1051 9.16113C66.8707 9.54199 66.5485 9.8877 66.1383 10.1982C65.734 10.5088 65.3063 10.752 64.8551 10.9277C64.7496 10.9746 64.6764 10.998 64.6354 10.998C64.5416 10.998 64.4948 10.9541 64.4948 10.8662C64.4948 10.8369 64.5006 10.8105 64.5123 10.7871ZM70.3268 7.56152C70.3151 7.4209 70.2595 7.30664 70.1598 7.21875C70.0661 7.13086 69.9548 7.08691 69.8259 7.08691C69.6266 7.08691 69.4304 7.05469 69.237 6.99023C69.1901 6.97266 69.1491 6.94043 69.1139 6.89355C69.0846 6.84082 69.07 6.79688 69.07 6.76172C69.07 6.63867 69.1843 6.36328 69.4128 5.93555C69.6471 5.50195 69.9137 5.05957 70.2126 4.6084C70.5114 4.15723 70.7487 3.84375 70.9245 3.66797C70.9948 3.59766 71.0827 3.5625 71.1882 3.5625C71.3405 3.5625 71.4372 3.63574 71.4782 3.78223C71.5368 4.01074 71.5983 4.16602 71.6628 4.24805C71.7272 4.32422 71.818 4.3623 71.9352 4.3623H77.4284C77.9382 4.3623 78.2839 4.54688 78.4655 4.91602C78.6471 5.2793 78.738 5.75098 78.738 6.33105C78.738 6.62402 78.694 6.95215 78.6061 7.31543C78.5182 7.67871 78.4245 7.98633 78.3249 8.23828C78.2136 8.54297 78.0436 8.9502 77.8151 9.45996C77.5866 9.96387 77.3874 10.3711 77.2175 10.6816C76.7956 11.3613 76.3884 11.8418 75.9958 12.123C75.779 12.2754 75.4772 12.457 75.0905 12.668C74.7038 12.8789 74.3259 13.0576 73.9567 13.2041C73.5934 13.3564 73.3268 13.4326 73.1569 13.4326C73.0925 13.4326 73.0368 13.415 72.9899 13.3799C72.9489 13.3506 72.9284 13.3066 72.9284 13.248C72.9284 13.1191 72.9958 12.7998 73.1305 12.29C73.2712 11.7744 73.403 11.3672 73.5261 11.0684C73.5788 10.9395 73.6345 10.8486 73.693 10.7959C73.7575 10.7373 73.8483 10.6875 73.9655 10.6465C74.8444 10.3359 75.5007 10.0166 75.9343 9.68848C76.069 9.58887 76.1628 9.48047 76.2155 9.36328C76.2682 9.24023 76.321 9.07031 76.3737 8.85352C76.4147 8.66602 76.4411 8.49609 76.4528 8.34375C76.4645 8.18555 76.4704 7.98633 76.4704 7.74609C76.4704 7.48242 76.4177 7.29785 76.3122 7.19238C76.2067 7.08105 76.0221 7.02539 75.7585 7.02539H72.8493C72.5563 7.02539 72.4098 7.19824 72.4098 7.54395V13.2832C72.4098 14.0332 72.3835 14.499 72.3307 14.6807C72.2839 14.8154 72.2341 14.9297 72.1813 15.0234C72.1345 15.123 72.1052 15.1875 72.0934 15.2168C71.9294 15.498 71.7887 15.7266 71.6716 15.9023C71.5602 16.084 71.4284 16.2686 71.2761 16.4561C71.1999 16.5439 71.1384 16.6025 71.0915 16.6318C71.0505 16.6611 71.0007 16.6758 70.9421 16.6758C70.8132 16.6758 70.7399 16.5352 70.7223 16.2539L70.6432 14.3291C70.5202 11.1123 70.4147 8.85645 70.3268 7.56152ZM16.2396 26.5674C16.2396 26.2041 16.2191 25.6357 16.1781 24.8623C16.1371 24.083 16.099 23.6025 16.0639 23.4209C16.0521 23.3271 16.0199 23.251 15.9672 23.1924C15.9145 23.1338 15.8324 23.0898 15.7211 23.0605C15.6742 23.0547 15.598 23.0488 15.4926 23.043C15.393 23.0312 15.3168 23.0195 15.2641 23.0078C15.2172 22.9961 15.1762 22.9697 15.141 22.9287C15.1059 22.8818 15.0883 22.8291 15.0883 22.7705C15.0883 22.7295 15.1117 22.6504 15.1586 22.5332C15.2055 22.4102 15.2348 22.3369 15.2465 22.3135C15.4105 21.9443 15.6244 21.5254 15.8881 21.0566C16.1576 20.5879 16.3949 20.2188 16.6 19.9492C16.6938 19.8203 16.7787 19.7266 16.8549 19.668C16.9369 19.6035 17.0219 19.5713 17.1098 19.5713C17.1742 19.5713 17.2357 19.6006 17.2943 19.6592C17.3529 19.7119 17.3939 19.7793 17.4174 19.8613C17.476 20.0664 17.5492 20.2012 17.6371 20.2656C17.7309 20.3301 17.8627 20.3623 18.0326 20.3623H22.559C23.2387 20.3623 23.7104 20.582 23.974 21.0215C24.2436 21.4551 24.4047 21.9854 24.4574 22.6123C24.5043 23.1514 24.5336 23.6055 24.5453 23.9746C24.5629 24.3438 24.5775 24.8447 24.5893 25.4775C24.5893 25.7471 24.5805 25.9785 24.5629 26.1719C24.5453 26.3652 24.5102 26.5615 24.4574 26.7607C24.3285 27.2646 24.2055 27.6748 24.0883 27.9912C23.977 28.3076 23.8275 28.6035 23.64 28.8789C23.599 28.9551 23.5463 29.0078 23.4818 29.0371C23.4174 29.0605 23.3295 29.0723 23.2182 29.0723H17.5756C17.1537 29.0723 16.8139 28.8672 16.5561 28.457C16.433 28.2637 16.348 27.9883 16.3012 27.6309C16.2602 27.2734 16.2396 26.9189 16.2396 26.5674ZM22.4447 26.4268C22.5443 26.4268 22.6117 26.3828 22.6469 26.2949C22.6879 26.2012 22.7084 26.1133 22.7084 26.0312C22.7084 25.6738 22.6938 25.2666 22.6645 24.8096C22.6352 24.3525 22.5883 23.9951 22.5238 23.7373C22.4711 23.5205 22.3422 23.3447 22.1371 23.21C21.932 23.0752 21.7123 23.0078 21.4779 23.0078H18.3842C18.2377 23.0078 18.1322 23.0459 18.0678 23.1221C18.0033 23.1924 17.9711 23.3066 17.9711 23.4648C17.9711 23.7461 17.9916 24.1504 18.0326 24.6777C18.0736 25.2051 18.1264 25.5977 18.1908 25.8555C18.2377 26.0605 18.3109 26.207 18.4105 26.2949C18.516 26.3828 18.6625 26.4268 18.85 26.4268H22.4447ZM28.9272 29.4678C28.8452 29.4678 28.7807 29.418 28.7338 29.3184C28.6928 29.2246 28.6664 29.1074 28.6547 28.9668C28.6313 28.334 28.5698 27.4873 28.4702 26.4268C28.3705 25.3604 28.2856 24.6133 28.2153 24.1855C28.1918 24.0098 28.1157 23.8047 27.9868 23.5703C27.8637 23.3301 27.7114 23.1309 27.5297 22.9727C27.2016 22.6855 26.8676 22.4307 26.5278 22.208L26.3608 22.085C26.2846 22.0205 26.2465 21.9502 26.2465 21.874C26.2465 21.8154 26.267 21.7451 26.308 21.6631C26.8471 20.7197 27.3452 20.0488 27.8022 19.6504C27.8666 19.6094 27.9311 19.5889 27.9955 19.5889C28.0307 19.5889 28.0834 19.6035 28.1538 19.6328C28.353 19.7441 28.6254 19.9873 28.9711 20.3623C29.3168 20.7373 29.5541 21.0303 29.683 21.2412C29.8237 21.4697 29.9467 21.7217 30.0522 21.9971C30.1577 22.2666 30.228 22.6504 30.2631 23.1484C30.3276 23.8164 30.3598 24.6689 30.3598 25.7061C30.3598 26.3154 30.3539 26.7402 30.3422 26.9805C30.3422 27.0273 30.3393 27.1006 30.3334 27.2002C30.3276 27.2998 30.3129 27.3936 30.2895 27.4814C30.2719 27.5693 30.2426 27.6631 30.2016 27.7627C30.1137 27.9795 29.9643 28.2461 29.7534 28.5625C29.5483 28.873 29.3666 29.1221 29.2084 29.3096C29.1147 29.415 29.0209 29.4678 28.9272 29.4678ZM32.5093 26.6992C32.5854 26.5879 32.6616 26.5146 32.7378 26.4795C32.8198 26.4443 32.9077 26.4268 33.0014 26.4268H36.0073C36.1714 26.4268 36.3266 26.377 36.4731 26.2773C36.6196 26.1777 36.7397 26.0312 36.8335 25.8379C36.9272 25.6445 36.9741 25.416 36.9741 25.1523C36.9741 24.7422 36.8921 24.376 36.728 24.0537C36.5698 23.7256 36.3413 23.4707 36.0425 23.2891C35.7436 23.1016 35.3921 23.0078 34.9878 23.0078H32.5444C32.2807 23.0078 32.0786 22.9814 31.938 22.9287C31.7973 22.8701 31.727 22.7705 31.727 22.6299C31.727 22.4834 31.8208 22.2109 32.0083 21.8125C32.2016 21.4082 32.4214 21.0039 32.6675 20.5996C32.9136 20.1953 33.0981 19.9316 33.2212 19.8086C33.3149 19.7148 33.3852 19.6533 33.4321 19.624C33.4848 19.5889 33.5464 19.5713 33.6167 19.5713C33.6753 19.5713 33.7309 19.6035 33.7837 19.668C33.8364 19.7324 33.8686 19.8115 33.8804 19.9053C33.9214 20.1045 33.9653 20.2305 34.0122 20.2832C34.0649 20.3359 34.1557 20.3623 34.2846 20.3623H36.3764C36.9507 20.3623 37.4429 20.5352 37.853 20.8809C38.2632 21.2207 38.5708 21.6572 38.7759 22.1904C38.9868 22.7178 39.0923 23.2539 39.0923 23.7988C39.0923 24.291 39.06 24.7246 38.9956 25.0996C38.937 25.4746 38.8139 25.8965 38.6264 26.3652C38.4331 26.834 38.187 27.3057 37.8882 27.7803C37.5893 28.2549 37.3139 28.6064 37.062 28.835C36.9682 28.9229 36.8774 28.9844 36.7895 29.0195C36.7075 29.0547 36.5903 29.0723 36.438 29.0723H31.9116C31.7886 29.0723 31.7007 29.0547 31.6479 29.0195C31.6011 28.9844 31.5776 28.917 31.5776 28.8174C31.5776 28.665 31.7007 28.3223 31.9468 27.7891C32.1929 27.25 32.3804 26.8867 32.5093 26.6992ZM41.857 26.7871C41.9507 26.5996 42.0708 26.374 42.2173 26.1104C42.4165 25.7646 42.5718 25.4746 42.6831 25.2402C42.7945 25.0059 42.8501 24.8154 42.8501 24.6689C42.8501 24.1885 42.7183 23.8135 42.4546 23.5439C42.2847 23.3682 42.1001 23.2012 41.9009 23.043C41.7017 22.8848 41.4585 22.7031 41.1714 22.498C41.1362 22.4688 41.0396 22.3984 40.8814 22.2871C40.729 22.1758 40.6118 22.0791 40.5298 21.9971C40.4478 21.8975 40.4068 21.8213 40.4068 21.7686C40.4068 21.71 40.439 21.625 40.5034 21.5137C40.6089 21.3027 40.8198 20.998 41.1362 20.5996C41.4527 20.2012 41.7017 19.917 41.8833 19.7471C41.9595 19.6826 42.0181 19.6416 42.0591 19.624C42.1001 19.6006 42.1382 19.5889 42.1734 19.5889C42.2144 19.5889 42.2642 19.6035 42.3228 19.6328C42.6626 19.832 43.0786 20.1396 43.5708 20.5557C44.0689 20.9658 44.4321 21.3262 44.6607 21.6367C44.8247 21.8594 44.9536 22.085 45.0474 22.3135C45.1411 22.5361 45.188 22.7852 45.188 23.0605C45.188 23.4062 45.1118 23.7725 44.9595 24.1592C44.8071 24.54 44.6372 24.874 44.4497 25.1611C44.2154 25.542 43.8931 25.8877 43.4829 26.1982C43.0786 26.5088 42.6509 26.752 42.1997 26.9277C42.0943 26.9746 42.021 26.998 41.98 26.998C41.8862 26.998 41.8394 26.9541 41.8394 26.8662C41.8394 26.8369 41.8452 26.8105 41.857 26.7871ZM47.9175 24.2646C47.8062 23.8662 47.6744 23.5586 47.522 23.3418C47.3697 23.1191 47.1558 23.0078 46.8804 23.0078C46.6578 23.0078 46.5084 22.9785 46.4322 22.9199C46.356 22.8613 46.3179 22.7676 46.3179 22.6387C46.3179 22.5859 46.3297 22.5215 46.3531 22.4453C46.3765 22.3691 46.4058 22.29 46.441 22.208C46.5406 21.9971 46.7457 21.6221 47.0562 21.083C47.3668 20.5439 47.6129 20.1455 47.7945 19.8877C47.8824 19.7764 47.9586 19.7002 48.023 19.6592C48.0933 19.6123 48.1636 19.5889 48.2339 19.5889C48.3394 19.5889 48.4156 19.6152 48.4625 19.668C48.5152 19.7207 48.5504 19.8057 48.5679 19.9229C48.6031 20.0986 48.6617 20.2188 48.7437 20.2832C48.8316 20.3477 48.9664 20.3799 49.148 20.3799H54.8082C55.0367 20.3799 55.2447 20.4443 55.4322 20.5732C55.6197 20.6963 55.7691 20.875 55.8804 21.1094C55.9918 21.3438 56.0474 21.6133 56.0474 21.918C56.0474 22.627 55.9449 23.3535 55.7398 24.0977C55.5406 24.8359 55.2974 25.542 55.0103 26.2158C54.7877 26.749 54.5474 27.165 54.2896 27.4639C54.0377 27.7568 53.6978 28.041 53.2701 28.3164C52.8248 28.5859 52.3297 28.8262 51.7847 29.0371C51.2398 29.248 50.7564 29.3535 50.3345 29.3535C50.1236 29.3535 49.942 29.3066 49.7896 29.2129C49.6373 29.125 49.4996 28.9727 49.3765 28.7559C49.1949 28.4453 49.022 28.0381 48.858 27.5342C48.6998 27.0303 48.4918 26.3213 48.2339 25.4072C48.1109 24.9443 48.0054 24.5635 47.9175 24.2646ZM51.1695 26.6465C51.4507 26.6465 51.7964 26.5703 52.2066 26.418C52.6168 26.2598 52.9859 26.0869 53.314 25.8994C53.5425 25.7705 53.73 25.5625 53.8765 25.2754C54.023 24.9883 54.0963 24.6514 54.0963 24.2646C54.0963 23.8486 54.0025 23.541 53.815 23.3418C53.6334 23.1426 53.355 23.043 52.98 23.043H50.0093C49.8043 23.043 49.7017 23.1133 49.7017 23.2539C49.7017 23.3418 49.7457 23.5703 49.8336 23.9395C49.9214 24.3086 50.0298 24.707 50.1588 25.1348C50.2935 25.5566 50.4254 25.9141 50.5543 26.207C50.6832 26.5 50.8882 26.6465 51.1695 26.6465ZM59.2779 26.7432C59.3365 26.6787 59.3834 26.6348 59.4186 26.6113C59.4537 26.582 59.5035 26.5615 59.568 26.5498C59.9723 26.4619 60.4146 26.3096 60.8951 26.0928C61.3756 25.8701 61.7096 25.6562 61.8971 25.4512C62.0553 25.2637 62.1725 25.0439 62.2486 24.792C62.3307 24.5342 62.3717 24.2588 62.3717 23.9658C62.3717 23.6553 62.3131 23.4209 62.1959 23.2627C62.0846 23.1045 61.8971 23.0254 61.6334 23.0254H58.777C58.4254 23.0254 58.1646 22.9873 57.9947 22.9111C57.8307 22.835 57.7193 22.7119 57.6607 22.542C57.608 22.3721 57.5816 22.1172 57.5816 21.7773C57.5816 21.7363 57.5846 21.6572 57.5904 21.54C57.5963 21.4229 57.5992 21.2822 57.5992 21.1182C57.5992 20.7549 57.5787 20.4414 57.5377 20.1777C57.4557 19.75 57.3385 19.4072 57.1861 19.1494C57.1568 19.0791 57.1422 19.0205 57.1422 18.9736C57.1422 18.9326 57.1568 18.877 57.1861 18.8066C57.2916 18.6016 57.4967 18.3145 57.8014 17.9453C58.1119 17.5762 58.3756 17.2891 58.5924 17.084C58.6627 17.0137 58.7242 16.9785 58.777 16.9785C58.8707 16.9785 58.9586 17.0225 59.0406 17.1104C59.1227 17.1924 59.1813 17.3008 59.2164 17.4355C59.2809 17.6406 59.3248 17.9863 59.3482 18.4727C59.3717 18.9531 59.3834 19.3838 59.3834 19.7646C59.3834 19.9873 59.4566 20.1455 59.6031 20.2393C59.7496 20.333 59.9723 20.3799 60.2711 20.3799H63.4879C63.8629 20.3799 64.1412 20.4795 64.3229 20.6787C64.5045 20.8721 64.5953 21.1504 64.5953 21.5137C64.5953 22.0645 64.5367 22.6064 64.4195 23.1396C64.3082 23.6729 64.1559 24.2383 63.9625 24.8359C63.6695 25.7324 63.2271 26.5381 62.6354 27.2529C62.0436 27.9619 61.3521 28.4893 60.5611 28.835C60.2447 28.9756 59.8609 29.1162 59.4098 29.2568C58.9586 29.3975 58.6598 29.4678 58.5133 29.4678C58.3727 29.4678 58.3023 29.3887 58.3023 29.2305C58.3023 29.0605 58.358 28.8086 58.4693 28.4746C58.5807 28.1348 58.7154 27.7979 58.8736 27.4639C59.0318 27.1299 59.1666 26.8896 59.2779 26.7432Z" fill="#828282"/>
</g>
<path d="M45.6568 35.0723L40 38.7291L34.3431 35.0723" stroke="#828282" stroke-width="2" stroke-linecap="round" stroke-linejoin="round"/>
<path d="M45.6568 40.0723L40 43.7291L34.3431 40.0723" stroke="#828282" stroke-width="2" stroke-linecap="round" stroke-linejoin="round"/>
</svg>
