<svg width="61" height="54" viewBox="0 0 61 54" fill="none" xmlns="http://www.w3.org/2000/svg">
<path d="M51.9583 31.4726V41.3204C51.9583 48.1948 49.6933 52.8096 49.5948 52.9956C49.5027 53.1952 49.3715 53.3742 49.2089 53.5221C49.0462 53.67 48.8556 53.7837 48.6482 53.8565C48.4408 53.9293 48.2209 53.9597 48.0015 53.9459C47.7821 53.9321 47.5677 53.8744 47.3711 53.7762C47.1745 53.6779 46.9996 53.5412 46.8568 53.3741C46.714 53.207 46.6062 53.0129 46.5398 52.8034C46.4735 52.5938 46.4499 52.3731 46.4705 52.1542C46.4911 51.9354 46.5554 51.7229 46.6596 51.5294C46.6788 51.4911 48.6757 47.3741 48.6757 41.3204V31.4726C48.6757 30.4569 48.2722 29.4828 47.554 28.7646C46.8358 28.0464 45.8617 27.6429 44.846 27.6429C43.8303 27.6429 42.8562 28.0464 42.138 28.7646C41.4198 29.4828 41.0163 30.4569 41.0163 31.4726V32.5668C41.0163 33.0021 40.8433 33.4196 40.5355 33.7274C40.2277 34.0352 39.8103 34.2081 39.375 34.2081C38.9397 34.2081 38.5222 34.0352 38.2144 33.7274C37.9066 33.4196 37.7337 33.0021 37.7337 32.5668V27.0958C37.7337 26.0801 37.3302 25.106 36.612 24.3877C35.8937 23.6695 34.9196 23.266 33.9039 23.266C32.8882 23.266 31.9141 23.6695 31.1959 24.3877C30.4777 25.106 30.0742 26.0801 30.0742 27.0958V30.3784C30.0742 30.8137 29.9013 31.2312 29.5935 31.539C29.2857 31.8468 28.8682 32.0197 28.4329 32.0197C27.9976 32.0197 27.5801 31.8468 27.2723 31.539C26.9645 31.2312 26.7916 30.8137 26.7916 30.3784V11.7769C26.7916 10.7612 26.3881 9.78708 25.6699 9.06887C24.9517 8.35066 23.9776 7.94717 22.9619 7.94717C21.9462 7.94717 20.9721 8.35066 20.2539 9.06887C19.5356 9.78708 19.1322 10.7612 19.1322 11.7769V41.3204C19.1318 41.6768 19.0154 42.0233 18.8007 42.3076C18.586 42.592 18.2845 42.7988 17.9419 42.8967C17.5993 42.9946 17.2342 42.9784 16.9016 42.8505C16.569 42.7226 16.2871 42.4899 16.0985 42.1876L10.9885 33.9811C10.9779 33.9665 10.9687 33.9509 10.9612 33.9345C10.4533 33.0549 9.61683 32.413 8.6357 32.1501C7.65457 31.8871 6.60919 32.0247 5.72951 32.5326C4.84984 33.0404 4.20794 33.877 3.94502 34.8581C3.68211 35.8392 3.81971 36.8846 4.32756 37.7643L12.3399 51.4418C12.4657 51.6284 12.5517 51.8388 12.5928 52.06C12.6338 52.2812 12.6289 52.5084 12.5785 52.7277C12.528 52.9469 12.433 53.1534 12.2993 53.3344C12.1657 53.5154 11.9963 53.667 11.8016 53.7797C11.6069 53.8925 11.3911 53.964 11.1676 53.9898C10.9442 54.0157 10.7177 53.9953 10.5025 53.93C10.2872 53.8647 10.0876 53.7558 9.91619 53.6101C9.74475 53.4644 9.60509 53.2851 9.50589 53.0831L1.48536 39.4056C0.537493 37.7732 0.276907 35.8311 0.76093 34.0066C1.24495 32.1821 2.43394 30.6246 4.06632 29.6767C5.6987 28.7289 7.64077 28.4683 9.46528 28.9523C11.2898 29.4363 12.8473 30.6253 13.7952 32.2577L15.8495 35.5759V11.7769C15.8495 9.89058 16.5989 8.08153 17.9327 6.74771C19.2665 5.41388 21.0756 4.66455 22.9619 4.66455C24.8482 4.66455 26.6572 5.41388 27.9911 6.74771C29.3249 8.08153 30.0742 9.89058 30.0742 11.7769V21.105C31.0406 20.4868 32.1423 20.1115 33.2851 20.0112C34.428 19.9109 35.5781 20.0885 36.6375 20.529C37.6968 20.9694 38.6339 21.6596 39.3687 22.5406C40.1036 23.4216 40.6144 24.4673 40.8576 25.5885C41.9268 24.8643 43.173 24.445 44.4624 24.3753C45.7519 24.3057 47.036 24.5884 48.177 25.1932C49.3179 25.798 50.2727 26.702 50.9389 27.8083C51.6051 28.9145 51.9575 30.1812 51.9583 31.4726Z" fill="#0052B4"/>
<path d="M54.9193 12.8212L39.1847 12.8212C38.7494 12.8212 38.3319 12.6483 38.0241 12.3405C37.7163 12.0327 37.5433 11.6152 37.5433 11.1799C37.5433 10.7446 37.7163 10.3271 38.0241 10.0193C38.3319 9.71153 38.7494 9.53861 39.1847 9.53861L54.9193 9.53861L48.9668 3.58613C48.6634 3.2773 48.4942 2.86105 48.4962 2.42807C48.4982 1.99508 48.6712 1.58043 48.9776 1.27444C49.284 0.968446 49.6988 0.795907 50.1318 0.794406C50.5648 0.792903 50.9808 0.96255 51.2893 1.26641L60.0429 10.0201C60.3503 10.3278 60.523 10.745 60.523 11.1799C60.523 11.6149 60.3503 12.032 60.0429 12.3398L51.2893 21.0934C50.9808 21.3973 50.5648 21.5669 50.1318 21.5654C49.6988 21.5639 49.2839 21.3914 48.9776 21.0854C48.6712 20.7794 48.4982 20.3647 48.4962 19.9318C48.4942 19.4988 48.6634 19.0825 48.9668 18.7737L54.9193 12.8212Z" fill="#0052B4"/>
</svg>
