<svg width="199" height="101" viewBox="0 0 199 101" fill="none" xmlns="http://www.w3.org/2000/svg">
<g style="mix-blend-mode:multiply">
<path d="M20.6716 82.9531C20.6716 82.6198 20.7341 82.25 20.8591 81.8438C20.9841 81.4375 21.1456 81.0521 21.3435 80.6875C21.3748 80.625 21.4685 80.4583 21.6248 80.1875C21.781 79.9167 21.906 79.625 21.9998 79.3125C22.1039 79 22.156 78.7031 22.156 78.4219C22.156 77.8281 21.8591 77.3594 21.2654 77.0156C20.682 76.6615 19.9789 76.3542 19.156 76.0938L18.7341 75.9531C18.63 75.8906 18.5779 75.8073 18.5779 75.7031C18.5779 75.526 18.6195 75.3646 18.7029 75.2188C19.1404 74.5312 19.5518 73.9323 19.9373 73.4219C20.3331 72.901 20.8123 72.4115 21.3748 71.9531C21.5831 71.7865 21.7602 71.7031 21.906 71.7031C21.9998 71.7031 22.1352 71.7292 22.3123 71.7812C22.9477 71.9375 23.5779 72.1979 24.2029 72.5625C24.8279 72.9167 25.3487 73.3698 25.7654 73.9219C26.1925 74.474 26.406 75.1042 26.406 75.8125C26.406 76.4167 26.2914 76.9479 26.0623 77.4062C25.8331 77.8646 25.557 78.3021 25.2341 78.7188C24.807 79.2708 24.4737 79.7552 24.2341 80.1719C24.005 80.5885 23.8904 80.9479 23.8904 81.25C23.8904 81.4167 23.932 81.5677 24.0154 81.7031C24.1091 81.8281 24.2445 81.974 24.4216 82.1406C24.4425 82.1615 24.4789 82.1979 24.531 82.25C24.5831 82.3021 24.6195 82.3542 24.6404 82.4062C24.6612 82.4583 24.6716 82.5208 24.6716 82.5938C24.6716 82.6562 24.6508 82.7188 24.6091 82.7812C24.5675 82.8438 24.5414 82.8906 24.531 82.9219C24.3956 83.1823 24.1456 83.5312 23.781 83.9688C23.4268 84.4062 23.1456 84.724 22.9373 84.9219C22.906 84.9427 22.8539 84.9792 22.781 85.0312C22.7185 85.0833 22.6612 85.125 22.6091 85.1562C22.557 85.1771 22.4998 85.1875 22.4373 85.1875C22.3331 85.1875 22.2289 85.1667 22.1248 85.125C22.0206 85.0833 21.9477 85.0417 21.906 85C21.0831 84.3125 20.6716 83.6302 20.6716 82.9531ZM20.0154 89.8906C19.9112 89.7448 19.8591 89.6094 19.8591 89.4844C19.8591 89.2969 19.9216 89.1302 20.0466 88.9844C20.255 88.7344 20.6248 88.3177 21.156 87.7344C21.6873 87.151 22.0362 86.7812 22.2029 86.625C22.3904 86.4375 22.5727 86.3438 22.7498 86.3438C22.8227 86.3438 22.8904 86.3698 22.9529 86.4219C23.0154 86.4635 23.0883 86.5208 23.1716 86.5938C23.557 86.9896 23.9737 87.3698 24.4216 87.7344C24.8695 88.0885 25.307 88.3958 25.7341 88.6562C25.9425 88.7708 26.0466 88.9427 26.0466 89.1719C26.0466 89.2448 26.0258 89.3385 25.9841 89.4531C25.9425 89.5677 25.8956 89.651 25.8435 89.7031C25.1873 90.6719 24.4893 91.5104 23.7498 92.2188C23.6143 92.375 23.4633 92.4531 23.2966 92.4531C23.1195 92.4531 22.9789 92.4167 22.8748 92.3438C22.3227 92.0521 21.8018 91.6927 21.3123 91.2656C20.8227 90.8385 20.3904 90.3802 20.0154 89.8906Z" fill="#0052B4"/>
</g>
<rect x="23.4409" y="3.00391" width="8" height="92" transform="rotate(-8 23.4409 3.00391)" fill="#0052B4"/>
<rect x="2.21558" y="2" width="8" height="92" fill="#0052B4"/>
</svg>
