<svg width="244" height="101" viewBox="0 0 244 101" fill="none" xmlns="http://www.w3.org/2000/svg">
<g style="mix-blend-mode:multiply">
<path d="M69.8312 37.228H69.1872C69.1685 38.3853 69.1498 39.552 69.1312 40.728C69.1312 41.904 69.1312 43.0893 69.1312 44.284V45.404H69.9432C71.1752 45.404 72.0992 45.012 72.7152 44.228C73.3312 43.4253 73.6392 42.3893 73.6392 41.12C73.6392 39.832 73.3032 38.8613 72.6312 38.208C71.9778 37.5547 71.0445 37.228 69.8312 37.228ZM62.2712 37.116V35.604H69.8872C71.8285 35.604 73.3965 35.8373 74.5912 36.304C75.7858 36.752 76.6538 37.396 77.1952 38.236C77.7552 39.0573 78.0352 40.028 78.0352 41.148C78.0352 42.212 77.7738 43.192 77.2512 44.088C76.7472 44.9653 75.9072 45.6653 74.7312 46.188C73.5552 46.7107 71.9498 46.972 69.9152 46.972H69.1312C69.1312 47.7747 69.1312 48.624 69.1312 49.52C69.1498 50.3973 69.1685 51.3027 69.1872 52.236L71.6792 52.488V54H62.2712V52.488L64.3712 52.264C64.4085 51.1253 64.4272 49.9773 64.4272 48.82C64.4272 47.6627 64.4272 46.496 64.4272 45.32V44.284C64.4272 43.1267 64.4272 41.9693 64.4272 40.812C64.4272 39.636 64.4085 38.4787 64.3712 37.34L62.2712 37.116ZM87.1216 37.228H86.0016C85.9829 38.3853 85.9643 39.5427 85.9456 40.7C85.9456 41.8387 85.9456 42.9307 85.9456 43.976H87.0096C87.9429 43.976 88.6709 43.8173 89.1936 43.5C89.7163 43.1827 90.0896 42.7627 90.3136 42.24C90.5376 41.7173 90.6496 41.1573 90.6496 40.56C90.6496 38.3387 89.4736 37.228 87.1216 37.228ZM79.1696 37.116V35.604H88.2696C90.4723 35.604 92.1616 36.0147 93.3376 36.836C94.5323 37.6573 95.1296 38.796 95.1296 40.252C95.1296 40.868 94.9709 41.484 94.6536 42.1C94.3363 42.6973 93.8136 43.2293 93.0856 43.696C92.3576 44.144 91.3683 44.4707 90.1176 44.676C91.1816 44.8067 92.0123 45.068 92.6096 45.46C93.2069 45.8333 93.6549 46.328 93.9536 46.944C94.2523 47.5413 94.4669 48.2787 94.5976 49.156L95.1296 52.264L97.2576 52.488V54C96.8096 54.0933 96.4363 54.168 96.1376 54.224C95.8389 54.2987 95.5403 54.3453 95.2416 54.364C94.9616 54.3827 94.6069 54.392 94.1776 54.392C92.9829 54.392 92.0403 54.1867 91.3496 53.776C90.6776 53.3653 90.2669 52.6187 90.1176 51.536L89.6136 48.288C89.4829 47.3547 89.2123 46.664 88.8016 46.216C88.4096 45.768 87.7936 45.544 86.9536 45.544H85.9456C85.9456 46.7387 85.9456 47.8867 85.9456 48.988C85.9643 50.0893 85.9829 51.1813 86.0016 52.264L88.1856 52.488V54H79.1696V52.488L81.2696 52.264C81.3069 51.1253 81.3256 49.9773 81.3256 48.82C81.3256 47.6627 81.3256 46.496 81.3256 45.32V44.284C81.3256 43.1267 81.3256 41.9693 81.3256 40.812C81.3256 39.636 81.3069 38.4787 81.2696 37.34L79.1696 37.116ZM106.64 54.532C105.483 54.532 104.372 54.336 103.308 53.944C102.244 53.5333 101.292 52.9267 100.452 52.124C99.6307 51.3027 98.9773 50.2853 98.492 49.072C98.0067 47.8587 97.764 46.4307 97.764 44.788C97.764 43.1827 98.0067 41.7733 98.492 40.56C98.9773 39.3467 99.64 38.3387 100.48 37.536C101.32 36.7147 102.272 36.0987 103.336 35.688C104.4 35.2773 105.501 35.072 106.64 35.072C107.797 35.072 108.899 35.2773 109.944 35.688C111.008 36.08 111.96 36.6773 112.8 37.48C113.64 38.2827 114.303 39.3 114.788 40.532C115.273 41.7453 115.516 43.164 115.516 44.788C115.516 46.412 115.273 47.8307 114.788 49.044C114.303 50.2573 113.64 51.2747 112.8 52.096C111.979 52.8987 111.036 53.5053 109.972 53.916C108.908 54.3267 107.797 54.532 106.64 54.532ZM106.64 52.908C107.592 52.908 108.348 52.5533 108.908 51.844C109.487 51.1347 109.907 50.1733 110.168 48.96C110.429 47.728 110.56 46.3373 110.56 44.788C110.56 43.2387 110.429 41.8573 110.168 40.644C109.907 39.4307 109.487 38.4693 108.908 37.76C108.348 37.0507 107.592 36.696 106.64 36.696C105.707 36.696 104.951 37.0507 104.372 37.76C103.793 38.4693 103.373 39.4307 103.112 40.644C102.851 41.8573 102.72 43.2387 102.72 44.788C102.72 46.3373 102.851 47.728 103.112 48.96C103.373 50.1733 103.793 51.1347 104.372 51.844C104.951 52.5533 105.707 52.908 106.64 52.908ZM116.567 40.812L116.679 35.604H133.115L133.199 40.812H130.875L130.371 37.172H127.291C127.273 38.3293 127.254 39.5053 127.235 40.7C127.235 41.876 127.235 43.0707 127.235 44.284V45.292C127.235 46.4493 127.235 47.6067 127.235 48.764C127.254 49.9213 127.273 51.0787 127.291 52.236L129.699 52.488V54H120.095V52.488L122.475 52.236C122.513 51.0973 122.531 49.9493 122.531 48.792C122.531 47.6347 122.531 46.4773 122.531 45.32V44.284C122.531 43.108 122.531 41.932 122.531 40.756C122.531 39.5613 122.513 38.3667 122.475 37.172H119.423L118.891 40.812H116.567ZM134.677 37.116V35.604H148.957L149.153 40.42H146.829L146.269 37.172H141.593C141.575 38.236 141.556 39.3093 141.537 40.392C141.537 41.4747 141.537 42.5667 141.537 43.668H144.561L144.897 41.484H146.521V47.504H144.897L144.561 45.32H141.537C141.537 46.608 141.537 47.8307 141.537 48.988C141.556 50.1453 141.575 51.2933 141.593 52.432H146.829L147.389 49.184H149.713L149.517 54H134.677V52.488L136.777 52.264C136.815 51.1253 136.833 49.9773 136.833 48.82C136.833 47.6627 136.833 46.496 136.833 45.32V44.284C136.833 43.1267 136.833 41.9693 136.833 40.812C136.833 39.636 136.815 38.4787 136.777 37.34L134.677 37.116ZM160.691 54.532C158.899 54.532 157.266 54.1773 155.791 53.468C154.316 52.74 153.14 51.6573 152.263 50.22C151.404 48.7827 150.975 46.972 150.975 44.788C150.975 43.1267 151.236 41.6893 151.759 40.476C152.3 39.2627 153.028 38.2547 153.943 37.452C154.876 36.6493 155.94 36.052 157.135 35.66C158.33 35.268 159.58 35.072 160.887 35.072C161.951 35.072 162.922 35.1933 163.799 35.436C164.676 35.66 165.535 36.0053 166.375 36.472L166.487 40.812H164.359L163.547 37.144C162.912 36.8267 162.24 36.668 161.531 36.668C160.542 36.668 159.618 36.948 158.759 37.508C157.919 38.068 157.238 38.9547 156.715 40.168C156.192 41.3627 155.931 42.912 155.931 44.816C155.931 46.72 156.183 48.2693 156.687 49.464C157.191 50.64 157.854 51.508 158.675 52.068C159.515 52.628 160.43 52.908 161.419 52.908C161.811 52.908 162.203 52.8613 162.595 52.768C162.987 52.6747 163.379 52.544 163.771 52.376L164.555 48.792H166.683L166.571 53.104C165.824 53.5147 164.956 53.8507 163.967 54.112C162.996 54.392 161.904 54.532 160.691 54.532ZM168.001 40.812L168.113 35.604H184.549L184.633 40.812H182.309L181.805 37.172H178.725C178.706 38.3293 178.688 39.5053 178.669 40.7C178.669 41.876 178.669 43.0707 178.669 44.284V45.292C178.669 46.4493 178.669 47.6067 178.669 48.764C178.688 49.9213 178.706 51.0787 178.725 52.236L181.133 52.488V54H171.529V52.488L173.909 52.236C173.946 51.0973 173.965 49.9493 173.965 48.792C173.965 47.6347 173.965 46.4773 173.965 45.32V44.284C173.965 43.108 173.965 41.932 173.965 40.756C173.965 39.5613 173.946 38.3667 173.909 37.172H170.857L170.325 40.812H168.001ZM192.024 54.532C190.978 54.532 189.905 54.4107 188.804 54.168C187.702 53.9253 186.75 53.552 185.948 53.048L186.116 48.904H188.72L189.28 52.348C189.709 52.516 190.138 52.6467 190.568 52.74C190.997 52.8147 191.473 52.852 191.996 52.852C193.004 52.852 193.769 52.6 194.292 52.096C194.814 51.5733 195.076 50.9387 195.076 50.192C195.076 49.4453 194.88 48.8667 194.488 48.456C194.114 48.0453 193.508 47.6533 192.668 47.28L191.464 46.748C189.821 45.9827 188.542 45.1333 187.628 44.2C186.732 43.2667 186.284 42.0253 186.284 40.476C186.284 38.796 186.909 37.48 188.16 36.528C189.429 35.5573 191.118 35.072 193.228 35.072C194.236 35.072 195.197 35.2027 196.112 35.464C197.045 35.7067 197.848 36.052 198.52 36.5L198.296 40.42H195.72L195.188 37.116C194.889 37.004 194.59 36.92 194.292 36.864C193.993 36.7893 193.666 36.752 193.312 36.752C192.509 36.752 191.828 36.9853 191.268 37.452C190.708 37.9187 190.428 38.5347 190.428 39.3C190.428 40.0467 190.642 40.644 191.072 41.092C191.52 41.5213 192.154 41.9227 192.976 42.296L194.292 42.884C196.065 43.6867 197.344 44.536 198.128 45.432C198.93 46.3093 199.332 47.4573 199.332 48.876C199.332 50.5187 198.706 51.872 197.456 52.936C196.224 54 194.413 54.532 192.024 54.532Z" fill="#0052B4"/>
</g>
<g style="mix-blend-mode:multiply">
<path d="M8.31086 75.208C8.31086 76.4213 8.31086 77.6253 8.31086 78.82C8.32952 80.0147 8.34819 81.2 8.36686 82.376H9.29086C10.8962 82.376 12.1562 81.7227 13.0709 80.416C14.0042 79.0907 14.4709 77.2147 14.4709 74.788C14.4709 72.324 14.0042 70.448 13.0709 69.16C12.1562 67.872 10.9055 67.228 9.31886 67.228H8.36686C8.34819 68.3853 8.32952 69.552 8.31086 70.728C8.31086 71.904 8.31086 73.0893 8.31086 74.284V75.208ZM1.45086 67.116V65.604H9.76686C11.7642 65.604 13.4722 65.9773 14.8909 66.724C16.3095 67.452 17.4015 68.4973 18.1669 69.86C18.9322 71.2227 19.3149 72.856 19.3149 74.76C19.3149 76.7013 18.9042 78.3627 18.0829 79.744C17.2615 81.1253 16.0949 82.18 14.5829 82.908C13.0895 83.636 11.3162 84 9.26286 84H1.45086V82.488L3.55086 82.264C3.58819 81.1253 3.60686 79.968 3.60686 78.792C3.60686 77.616 3.60686 76.4307 3.60686 75.236V74.284C3.60686 73.1267 3.60686 71.9693 3.60686 70.812C3.60686 69.636 3.58819 68.4787 3.55086 67.34L1.45086 67.116ZM20.5368 67.116V65.604H34.8168L35.0128 70.42H32.6888L32.1288 67.172H27.4528C27.4341 68.236 27.4155 69.3093 27.3968 70.392C27.3968 71.4747 27.3968 72.5667 27.3968 73.668H30.4208L30.7568 71.484H32.3808V77.504H30.7568L30.4208 75.32H27.3968C27.3968 76.608 27.3968 77.8307 27.3968 78.988C27.4155 80.1453 27.4341 81.2933 27.4528 82.432H32.6888L33.2488 79.184H35.5728L35.3768 84H20.5368V82.488L22.6368 82.264C22.6741 81.1253 22.6928 79.9773 22.6928 78.82C22.6928 77.6627 22.6928 76.496 22.6928 75.32V74.284C22.6928 73.1267 22.6928 71.9693 22.6928 70.812C22.6928 69.636 22.6741 68.4787 22.6368 67.34L20.5368 67.116ZM36.7691 84V82.488L39.4851 82.152V67.396L37.0211 67.116V65.604H44.4131L48.9771 77.924L53.2611 65.604H60.3451V67.116L58.3571 67.34C58.3385 68.4787 58.3198 69.636 58.3011 70.812C58.3011 71.9693 58.3011 73.1267 58.3011 74.284V75.32C58.3011 76.4773 58.3011 77.6347 58.3011 78.792C58.3198 79.9493 58.3385 81.1067 58.3571 82.264L60.4291 82.488V84H51.4971V82.488L53.5411 82.236C53.5785 81.0973 53.5878 79.9867 53.5691 78.904C53.5691 77.8213 53.5785 76.8227 53.5971 75.908L53.6531 69.72L48.6691 84H46.5131L41.1651 69.692L41.3051 75.292V82.124L43.6011 82.488V84H36.7691ZM70.8119 84.532C69.6546 84.532 68.5439 84.336 67.4799 83.944C66.4159 83.5333 65.4639 82.9267 64.6239 82.124C63.8026 81.3027 63.1492 80.2853 62.6639 79.072C62.1786 77.8587 61.9359 76.4307 61.9359 74.788C61.9359 73.1827 62.1786 71.7733 62.6639 70.56C63.1492 69.3467 63.8119 68.3387 64.6519 67.536C65.4919 66.7147 66.4439 66.0987 67.5079 65.688C68.5719 65.2773 69.6732 65.072 70.8119 65.072C71.9692 65.072 73.0706 65.2773 74.1159 65.688C75.1799 66.08 76.1319 66.6773 76.9719 67.48C77.8119 68.2827 78.4746 69.3 78.9599 70.532C79.4452 71.7453 79.6879 73.164 79.6879 74.788C79.6879 76.412 79.4452 77.8307 78.9599 79.044C78.4746 80.2573 77.8119 81.2747 76.9719 82.096C76.1506 82.8987 75.2079 83.5053 74.1439 83.916C73.0799 84.3267 71.9692 84.532 70.8119 84.532ZM70.8119 82.908C71.7639 82.908 72.5199 82.5533 73.0799 81.844C73.6586 81.1347 74.0786 80.1733 74.3399 78.96C74.6012 77.728 74.7319 76.3373 74.7319 74.788C74.7319 73.2387 74.6012 71.8573 74.3399 70.644C74.0786 69.4307 73.6586 68.4693 73.0799 67.76C72.5199 67.0507 71.7639 66.696 70.8119 66.696C69.8786 66.696 69.1226 67.0507 68.5439 67.76C67.9652 68.4693 67.5452 69.4307 67.2839 70.644C67.0226 71.8573 66.8919 73.2387 66.8919 74.788C66.8919 76.3373 67.0226 77.728 67.2839 78.96C67.5452 80.1733 67.9652 81.1347 68.5439 81.844C69.1226 82.5533 69.8786 82.908 70.8119 82.908ZM91.7769 84.532C89.9849 84.532 88.3516 84.1773 86.8769 83.468C85.4022 82.74 84.2262 81.6573 83.3489 80.22C82.4902 78.7827 82.0609 76.972 82.0609 74.788C82.0609 73.1267 82.3222 71.6893 82.8449 70.476C83.3862 69.2627 84.1142 68.2547 85.0289 67.452C85.9622 66.6493 87.0262 66.052 88.2209 65.66C89.4156 65.268 90.6662 65.072 91.9729 65.072C93.0369 65.072 94.0076 65.1933 94.8849 65.436C95.7622 65.66 96.6209 66.0053 97.4609 66.472L97.5729 70.812H95.4449L94.6329 67.144C93.9982 66.8267 93.3262 66.668 92.6169 66.668C91.6276 66.668 90.7036 66.948 89.8449 67.508C89.0049 68.068 88.3236 68.9547 87.8009 70.168C87.2782 71.3627 87.0169 72.912 87.0169 74.816C87.0169 76.72 87.2689 78.2693 87.7729 79.464C88.2769 80.64 88.9396 81.508 89.7609 82.068C90.6009 82.628 91.5156 82.908 92.5049 82.908C92.8969 82.908 93.2889 82.8613 93.6809 82.768C94.0729 82.6747 94.4649 82.544 94.8569 82.376L95.6409 78.792H97.7689L97.6569 83.104C96.9102 83.5147 96.0422 83.8507 95.0529 84.112C94.0822 84.392 92.9902 84.532 91.7769 84.532ZM107.403 67.228H106.283C106.264 68.3853 106.246 69.5427 106.227 70.7C106.227 71.8387 106.227 72.9307 106.227 73.976H107.291C108.224 73.976 108.952 73.8173 109.475 73.5C109.998 73.1827 110.371 72.7627 110.595 72.24C110.819 71.7173 110.931 71.1573 110.931 70.56C110.931 68.3387 109.755 67.228 107.403 67.228ZM99.4509 67.116V65.604H108.551C110.754 65.604 112.443 66.0147 113.619 66.836C114.814 67.6573 115.411 68.796 115.411 70.252C115.411 70.868 115.252 71.484 114.935 72.1C114.618 72.6973 114.095 73.2293 113.367 73.696C112.639 74.144 111.65 74.4707 110.399 74.676C111.463 74.8067 112.294 75.068 112.891 75.46C113.488 75.8333 113.936 76.328 114.235 76.944C114.534 77.5413 114.748 78.2787 114.879 79.156L115.411 82.264L117.539 82.488V84C117.091 84.0933 116.718 84.168 116.419 84.224C116.12 84.2987 115.822 84.3453 115.523 84.364C115.243 84.3827 114.888 84.392 114.459 84.392C113.264 84.392 112.322 84.1867 111.631 83.776C110.959 83.3653 110.548 82.6187 110.399 81.536L109.895 78.288C109.764 77.3547 109.494 76.664 109.083 76.216C108.691 75.768 108.075 75.544 107.235 75.544H106.227C106.227 76.7387 106.227 77.8867 106.227 78.988C106.246 80.0893 106.264 81.1813 106.283 82.264L108.467 82.488V84H99.4509V82.488L101.551 82.264C101.588 81.1253 101.607 79.9773 101.607 78.82C101.607 77.6627 101.607 76.496 101.607 75.32V74.284C101.607 73.1267 101.607 71.9693 101.607 70.812C101.607 69.636 101.588 68.4787 101.551 67.34L99.4509 67.116ZM126.034 69.888L123.71 77.028H128.302L126.034 69.888ZM118.166 84V82.488L120.434 82.152L126.118 65.576H129.002L134.742 82.348L136.45 82.544V84H127.798V82.544L129.954 82.264L128.806 78.652H123.178L122.058 82.152L124.186 82.488V84H118.166ZM146.738 84.532C144.946 84.532 143.312 84.1773 141.838 83.468C140.363 82.74 139.187 81.6573 138.31 80.22C137.451 78.7827 137.022 76.972 137.022 74.788C137.022 73.1267 137.283 71.6893 137.806 70.476C138.347 69.2627 139.075 68.2547 139.99 67.452C140.923 66.6493 141.987 66.052 143.182 65.66C144.376 65.268 145.627 65.072 146.934 65.072C147.998 65.072 148.968 65.1933 149.846 65.436C150.723 65.66 151.582 66.0053 152.422 66.472L152.534 70.812H150.406L149.594 67.144C148.959 66.8267 148.287 66.668 147.578 66.668C146.588 66.668 145.664 66.948 144.806 67.508C143.966 68.068 143.284 68.9547 142.762 70.168C142.239 71.3627 141.978 72.912 141.978 74.816C141.978 76.72 142.23 78.2693 142.734 79.464C143.238 80.64 143.9 81.508 144.722 82.068C145.562 82.628 146.476 82.908 147.466 82.908C147.858 82.908 148.25 82.8613 148.642 82.768C149.034 82.6747 149.426 82.544 149.818 82.376L150.602 78.792H152.73L152.618 83.104C151.871 83.5147 151.003 83.8507 150.014 84.112C149.043 84.392 147.951 84.532 146.738 84.532ZM154.412 67.116V65.604H163.428V67.116L161.328 67.34C161.309 68.4787 161.29 69.6267 161.272 70.784C161.272 71.9413 161.272 73.108 161.272 74.284V75.292C161.272 76.4493 161.272 77.616 161.272 78.792C161.29 79.9493 161.309 81.1067 161.328 82.264L163.428 82.488V84H154.412V82.488L156.512 82.264C156.549 81.1253 156.568 79.9773 156.568 78.82C156.568 77.6627 156.568 76.496 156.568 75.32V74.284C156.568 73.1267 156.568 71.9693 156.568 70.812C156.568 69.636 156.549 68.4787 156.512 67.34L154.412 67.116ZM165.267 67.116V65.604H179.547L179.743 70.42H177.419L176.859 67.172H172.183C172.165 68.236 172.146 69.3093 172.127 70.392C172.127 71.4747 172.127 72.5667 172.127 73.668H175.151L175.487 71.484H177.111V77.504H175.487L175.151 75.32H172.127C172.127 76.608 172.127 77.8307 172.127 78.988C172.146 80.1453 172.165 81.2933 172.183 82.432H177.419L177.979 79.184H180.303L180.107 84H165.267V82.488L167.367 82.264C167.405 81.1253 167.423 79.9773 167.423 78.82C167.423 77.6627 167.423 76.496 167.423 75.32V74.284C167.423 73.1267 167.423 71.9693 167.423 70.812C167.423 69.636 167.405 68.4787 167.367 67.34L165.267 67.116ZM188.024 84.532C186.978 84.532 185.905 84.4107 184.804 84.168C183.702 83.9253 182.75 83.552 181.948 83.048L182.116 78.904H184.72L185.28 82.348C185.709 82.516 186.138 82.6467 186.568 82.74C186.997 82.8147 187.473 82.852 187.996 82.852C189.004 82.852 189.769 82.6 190.292 82.096C190.814 81.5733 191.076 80.9387 191.076 80.192C191.076 79.4453 190.88 78.8667 190.488 78.456C190.114 78.0453 189.508 77.6533 188.668 77.28L187.464 76.748C185.821 75.9827 184.542 75.1333 183.628 74.2C182.732 73.2667 182.284 72.0253 182.284 70.476C182.284 68.796 182.909 67.48 184.16 66.528C185.429 65.5573 187.118 65.072 189.228 65.072C190.236 65.072 191.197 65.2027 192.112 65.464C193.045 65.7067 193.848 66.052 194.52 66.5L194.296 70.42H191.72L191.188 67.116C190.889 67.004 190.59 66.92 190.292 66.864C189.993 66.7893 189.666 66.752 189.312 66.752C188.509 66.752 187.828 66.9853 187.268 67.452C186.708 67.9187 186.428 68.5347 186.428 69.3C186.428 70.0467 186.642 70.644 187.072 71.092C187.52 71.5213 188.154 71.9227 188.976 72.296L190.292 72.884C192.065 73.6867 193.344 74.536 194.128 75.432C194.93 76.3093 195.332 77.4573 195.332 78.876C195.332 80.5187 194.706 81.872 193.456 82.936C192.224 84 190.413 84.532 188.024 84.532Z" fill="#0052B4"/>
</g>
<g style="mix-blend-mode:multiply">
<path d="M142.365 7.11551V5.60351H148.273V7.11551L146.089 7.47951L141.161 24.0555H138.417L134.441 11.3435L130.577 24.0555H127.833L122.821 7.28351L121.113 7.11551V5.60351H129.793V7.11551L127.749 7.33951L130.605 18.5955L133.965 7.36751L131.921 7.11551V5.60351H140.321V7.11551L137.857 7.42351L141.133 18.8195L144.353 7.42351L142.365 7.11551ZM160.046 7.11551V5.60351H168.894V7.11551L166.822 7.33951C166.803 8.47818 166.784 9.62618 166.766 10.7835C166.766 11.9408 166.766 13.1075 166.766 14.2835V15.3195C166.766 16.4582 166.766 17.6155 166.766 18.7915C166.784 19.9488 166.803 21.1062 166.822 22.2635L168.894 22.4875V23.9995H160.046V22.4875L162.006 22.2915C162.043 21.1342 162.062 19.9768 162.062 18.8195C162.062 17.6622 162.062 16.5142 162.062 15.3755H156.098C156.098 16.6262 156.098 17.8208 156.098 18.9595C156.116 20.0795 156.135 21.1902 156.154 22.2915L158.114 22.4875V23.9995H149.294V22.4875L151.338 22.2635C151.375 21.1248 151.394 19.9768 151.394 18.8195C151.394 17.6622 151.394 16.4955 151.394 15.3195V14.2835C151.394 13.1262 151.394 11.9688 151.394 10.8115C151.394 9.65418 151.375 8.49684 151.338 7.33951L149.294 7.11551V5.60351H158.114V7.11551L156.154 7.31151C156.135 8.45018 156.116 9.57951 156.098 10.6995C156.098 11.8195 156.098 12.8275 156.098 13.7235H162.062C162.062 12.6595 162.062 11.5955 162.062 10.5315C162.062 9.44884 162.043 8.37551 162.006 7.31151L160.046 7.11551ZM177.9 9.88751L175.576 17.0275H180.168L177.9 9.88751ZM170.032 23.9995V22.4875L172.3 22.1515L177.984 5.57551H180.868L186.608 22.3475L188.316 22.5435V23.9995H179.664V22.5435L181.82 22.2635L180.672 18.6515H175.044L173.924 22.1515L176.052 22.4875V23.9995H170.032ZM187.156 10.8115L187.268 5.60351H203.704L203.788 10.8115H201.464L200.96 7.17151H197.88C197.862 8.32884 197.843 9.50484 197.824 10.6995C197.824 11.8755 197.824 13.0702 197.824 14.2835V15.2915C197.824 16.4488 197.824 17.6062 197.824 18.7635C197.843 19.9208 197.862 21.0782 197.88 22.2355L200.288 22.4875V23.9995H190.684V22.4875L193.064 22.2355C193.102 21.0968 193.12 19.9488 193.12 18.7915C193.12 17.6342 193.12 16.4768 193.12 15.3195V14.2835C193.12 13.1075 193.12 11.9315 193.12 10.7555C193.12 9.56084 193.102 8.36618 193.064 7.17151H190.012L189.48 10.8115H187.156Z" fill="#0052B4"/>
</g>
<g style="mix-blend-mode:multiply">
<path d="M222.368 75.9531C222.368 75.6198 222.43 75.25 222.555 74.8438C222.68 74.4375 222.842 74.0521 223.04 73.6875C223.071 73.625 223.165 73.4583 223.321 73.1875C223.477 72.9167 223.602 72.625 223.696 72.3125C223.8 72 223.852 71.7031 223.852 71.4219C223.852 70.8281 223.555 70.3594 222.961 70.0156C222.378 69.6615 221.675 69.3542 220.852 69.0938L220.43 68.9531C220.326 68.8906 220.274 68.8073 220.274 68.7031C220.274 68.526 220.316 68.3646 220.399 68.2188C220.836 67.5312 221.248 66.9323 221.633 66.4219C222.029 65.901 222.508 65.4115 223.071 64.9531C223.279 64.7865 223.456 64.7031 223.602 64.7031C223.696 64.7031 223.831 64.7292 224.008 64.7812C224.644 64.9375 225.274 65.1979 225.899 65.5625C226.524 65.9167 227.045 66.3698 227.461 66.9219C227.889 67.474 228.102 68.1042 228.102 68.8125C228.102 69.4167 227.987 69.9479 227.758 70.4062C227.529 70.8646 227.253 71.3021 226.93 71.7188C226.503 72.2708 226.17 72.7552 225.93 73.1719C225.701 73.5885 225.586 73.9479 225.586 74.25C225.586 74.4167 225.628 74.5677 225.711 74.7031C225.805 74.8281 225.941 74.974 226.118 75.1406C226.139 75.1615 226.175 75.1979 226.227 75.25C226.279 75.3021 226.316 75.3542 226.336 75.4062C226.357 75.4583 226.368 75.5208 226.368 75.5938C226.368 75.6562 226.347 75.7188 226.305 75.7812C226.264 75.8438 226.237 75.8906 226.227 75.9219C226.092 76.1823 225.842 76.5312 225.477 76.9688C225.123 77.4062 224.842 77.724 224.633 77.9219C224.602 77.9427 224.55 77.9792 224.477 78.0312C224.415 78.0833 224.357 78.125 224.305 78.1562C224.253 78.1771 224.196 78.1875 224.133 78.1875C224.029 78.1875 223.925 78.1667 223.821 78.125C223.717 78.0833 223.644 78.0417 223.602 78C222.779 77.3125 222.368 76.6302 222.368 75.9531ZM221.711 82.8906C221.607 82.7448 221.555 82.6094 221.555 82.4844C221.555 82.2969 221.618 82.1302 221.743 81.9844C221.951 81.7344 222.321 81.3177 222.852 80.7344C223.383 80.151 223.732 79.7812 223.899 79.625C224.086 79.4375 224.269 79.3438 224.446 79.3438C224.519 79.3438 224.586 79.3698 224.649 79.4219C224.711 79.4635 224.784 79.5208 224.868 79.5938C225.253 79.9896 225.67 80.3698 226.118 80.7344C226.566 81.0885 227.003 81.3958 227.43 81.6562C227.639 81.7708 227.743 81.9427 227.743 82.1719C227.743 82.2448 227.722 82.3385 227.68 82.4531C227.639 82.5677 227.592 82.651 227.54 82.7031C226.883 83.6719 226.185 84.5104 225.446 85.2188C225.31 85.375 225.159 85.4531 224.993 85.4531C224.816 85.4531 224.675 85.4167 224.571 85.3438C224.019 85.0521 223.498 84.6927 223.008 84.2656C222.519 83.8385 222.086 83.3802 221.711 82.8906Z" fill="#0052B4"/>
</g>
<rect x="235.5" y="5.99951" width="8" height="80" fill="#0052B4"/>
<rect x="213.948" y="4.77002" width="8" height="79.9971" transform="rotate(8 213.948 4.77002)" fill="#0052B4"/>
</svg>
