<svg width="244" height="101" viewBox="0 0 244 101" fill="none" xmlns="http://www.w3.org/2000/svg">
<g style="mix-blend-mode:multiply">
<path d="M222.368 75.9531C222.368 75.6198 222.43 75.25 222.555 74.8438C222.68 74.4375 222.842 74.0521 223.04 73.6875C223.071 73.625 223.165 73.4583 223.321 73.1875C223.477 72.9167 223.602 72.625 223.696 72.3125C223.8 72 223.852 71.7031 223.852 71.4219C223.852 70.8281 223.555 70.3594 222.961 70.0156C222.378 69.6615 221.675 69.3542 220.852 69.0938L220.43 68.9531C220.326 68.8906 220.274 68.8073 220.274 68.7031C220.274 68.526 220.316 68.3646 220.399 68.2188C220.836 67.5312 221.248 66.9323 221.633 66.4219C222.029 65.901 222.508 65.4115 223.071 64.9531C223.279 64.7865 223.456 64.7031 223.602 64.7031C223.696 64.7031 223.831 64.7292 224.008 64.7812C224.644 64.9375 225.274 65.1979 225.899 65.5625C226.524 65.9167 227.045 66.3698 227.461 66.9219C227.889 67.474 228.102 68.1042 228.102 68.8125C228.102 69.4167 227.987 69.9479 227.758 70.4062C227.529 70.8646 227.253 71.3021 226.93 71.7188C226.503 72.2708 226.17 72.7552 225.93 73.1719C225.701 73.5885 225.586 73.9479 225.586 74.25C225.586 74.4167 225.628 74.5677 225.711 74.7031C225.805 74.8281 225.941 74.974 226.118 75.1406C226.139 75.1615 226.175 75.1979 226.227 75.25C226.279 75.3021 226.316 75.3542 226.336 75.4062C226.357 75.4583 226.368 75.5208 226.368 75.5938C226.368 75.6562 226.347 75.7188 226.305 75.7812C226.264 75.8438 226.237 75.8906 226.227 75.9219C226.092 76.1823 225.842 76.5312 225.477 76.9688C225.123 77.4062 224.842 77.724 224.633 77.9219C224.602 77.9427 224.55 77.9792 224.477 78.0312C224.415 78.0833 224.357 78.125 224.305 78.1562C224.253 78.1771 224.196 78.1875 224.133 78.1875C224.029 78.1875 223.925 78.1667 223.821 78.125C223.717 78.0833 223.644 78.0417 223.602 78C222.779 77.3125 222.368 76.6302 222.368 75.9531ZM221.711 82.8906C221.607 82.7448 221.555 82.6094 221.555 82.4844C221.555 82.2969 221.618 82.1302 221.743 81.9844C221.951 81.7344 222.321 81.3177 222.852 80.7344C223.383 80.151 223.732 79.7812 223.899 79.625C224.086 79.4375 224.269 79.3438 224.446 79.3438C224.519 79.3438 224.586 79.3698 224.649 79.4219C224.711 79.4635 224.784 79.5208 224.868 79.5938C225.253 79.9896 225.67 80.3698 226.118 80.7344C226.566 81.0885 227.003 81.3958 227.43 81.6562C227.639 81.7708 227.743 81.9427 227.743 82.1719C227.743 82.2448 227.722 82.3385 227.68 82.4531C227.639 82.5677 227.592 82.651 227.54 82.7031C226.883 83.6719 226.185 84.5104 225.446 85.2188C225.31 85.375 225.159 85.4531 224.993 85.4531C224.816 85.4531 224.675 85.4167 224.571 85.3438C224.019 85.0521 223.498 84.6927 223.008 84.2656C222.519 83.8385 222.086 83.3802 221.711 82.8906Z" fill="#0052B4"/>
</g>
<rect x="235.5" y="5.99951" width="8" height="80" fill="#0052B4"/>
<rect x="213.948" y="4.77002" width="8" height="79.9971" transform="rotate(8 213.948 4.77002)" fill="#0052B4"/>
</svg>
